<svg xmlns="http://www.w3.org/2000/svg" xmlns:xlink="http://www.w3.org/1999/xlink" width="90" height="70" viewBox="0 0 90 70" fill="none"><rect x="0" y="0" width="0" height="0" fill="rgba(249, 249, 249, 1)" /><g opacity="1"  transform="translate(0 0)  rotate(0)"><rect fill="#FFFFFF" opacity="1" transform="translate(0 0)  rotate(0)" x="0" y="0" width="90" height="70" /><mask id="bg-mask-0" fill="white"><use xlink:href="#path_0"></use></mask><g mask="url(#bg-mask-0)" ><path id="矩形 1" fill-rule="evenodd" style="fill:#44C7EB" opacity="1" d="M69 0C78.43 0 83.14 0 86.07 2.93L86.07 2.93C89 5.86 89 10.57 89 20L89 50C89 59.43 89 64.14 86.07 67.07L86.07 67.07C83.14 70 78.43 70 69 70L19 70C9.57 70 4.86 70 1.93 67.07L1.93 67.07C-1 64.14 -1 59.43 -1 50L-1 20C-1 10.57 -1 5.86 1.93 2.93L1.93 2.93C4.86 0 9.57 0 19 0L69 0Z"></path><g opacity="1" transform="translate(6 5)  rotate(0)"><text><tspan x="0" y="12.026" font-size="14" line-height="0" fill="#FFFFFF" opacity="1" font-family="HuXiaoBoNanShen-Regular" font-weight="Regular" letter-spacing="0"  >更</tspan><tspan x="0" y="26.683999999999997" font-size="14" line-height="0" fill="#FFFFFF" opacity="1" font-family="HuXiaoBoNanShen-Regular" font-weight="Regular" letter-spacing="0"  >多</tspan><tspan x="0" y="41.342" font-size="14" line-height="0" fill="#FFFFFF" opacity="1" font-family="HuXiaoBoNanShen-Regular" font-weight="Regular" letter-spacing="0"  >内</tspan><tspan x="0" y="56" font-size="14" line-height="0" fill="#FFFFFF" opacity="1" font-family="HuXiaoBoNanShen-Regular" font-weight="Regular" letter-spacing="0" >容</tspan></text></g><g opacity="1" transform="translate(21 5)  rotate(0)"><text><tspan x="0" y="12.026" font-size="14" line-height="0" fill="#FFFFFF" opacity="1" font-family="HuXiaoBoNanShen-Regular" font-weight="Regular" letter-spacing="0"  >敬</tspan><tspan x="0" y="26.683999999999997" font-size="14" line-height="0" fill="#FFFFFF" opacity="1" font-family="HuXiaoBoNanShen-Regular" font-weight="Regular" letter-spacing="0"  >请</tspan><tspan x="0" y="41.342" font-size="14" line-height="0" fill="#FFFFFF" opacity="1" font-family="HuXiaoBoNanShen-Regular" font-weight="Regular" letter-spacing="0"  >期</tspan><tspan x="0" y="56" font-size="14" line-height="0" fill="#FFFFFF" opacity="1" font-family="HuXiaoBoNanShen-Regular" font-weight="Regular" letter-spacing="0" >待</tspan></text></g><g opacity="1"  transform="translate(89.75437927246094 5)  rotate(0)"><path id="Vector" fill-rule="evenodd" style="fill:#491F7B" opacity="1" d="M-47.879 12.3741L-46.429 8.90413L-46.629 11.6741L-47.879 12.3741Z"></path><path id="Vector" fill-rule="evenodd" style="fill:#2E144E" opacity="1" d="M-48.5541 10.7479L-46.6241 11.6779L-47.8741 12.3679L-49.7541 11.1079L-48.5541 10.7479Z"></path><g opacity="1"  transform="translate(0 0)  rotate(0)"><path id="Vector" fill-rule="evenodd" style="fill:#2E144E" opacity="1" d="M-37.2474,15.2696l0.15,-0.06l0.03,0.16c0.08,0.46 0.31,0.8 0.68,1.02c0.37,0.23 0.9,0.35 1.59,0.35l0.31,-0.01l-0.22,0.23c-0.62,0.64 -1.04,1.19 -1.29,1.64c-0.25,0.46 -0.31,0.81 -0.24,1.07c0.06,0.25 0.26,0.46 0.62,0.61c0.36,0.15 0.87,0.24 1.52,0.26l0.63,0.03l-0.59,0.23c-1.01,0.38 -1.71,0.78 -2.17,1.19c-0.45,0.4 -0.65,0.8 -0.67,1.18c-0.02,0.39 0.14,0.79 0.45,1.2c0.32,0.41 0.78,0.82 1.34,1.21l0.2,0.14l-0.22,0.09c-1.52,0.63 -2.59,1.27 -3.27,1.89c-0.69,0.63 -0.98,1.24 -0.99,1.83c0,0.59 0.29,1.19 0.84,1.78c0.55,0.6 1.35,1.19 2.34,1.76l0.37,0.21l-0.42,0.03c-3.16,0.23 -5.8,-0.29 -7.67,-1.89c-1.87,-1.61 -2.93,-4.28 -2.98,-8.31l-0.01,-0.3l0.23,0.2c0.66,0.58 1.39,0.68 2.14,0.45c0.75,-0.24 1.52,-0.82 2.22,-1.6c1.41,-1.55 2.51,-3.86 2.7,-5.61l0.01,-0.08l0.08,-0.03zM-37.1974,15.3896l-0.05,-0.12l0.0453,0.1207zM-37.2962,15.5623l0.1388,-0.0527l-0.0447,-0.1193l-0.1253,0.0193c0.0087,0.0522 0.0191,0.1031 0.0312,0.1527zM-42.1374,22.0396c-0.71,0.79 -1.52,1.41 -2.33,1.66c-0.7468,0.2339 -1.4936,0.1683 -2.1748,-0.3206c0.0945,3.8412 1.1368,6.3367 2.8848,7.8406c1.7159,1.468 4.1224,2.0092 7.0462,1.8573c0.1217,0.0746 0.2464,0.1488 0.3738,0.2227l0.0697,-0.1234l0.0003,0.0034l0.06,-0.11l-0.0603,0.1066l-0.0097,-0.1266c-0.1458,0.0107 -0.2904,0.0199 -0.4338,0.0273c-0.8335,-0.5107 -1.5288,-1.0376 -2.0262,-1.5873c-0.58,-0.63 -0.91,-1.28 -0.91,-1.96c0.01,-0.68 0.35,-1.36 1.07,-2.02c0.6766,-0.6194 1.7074,-1.2389 3.127,-1.8496c0.063,0.0466 0.1274,0.0932 0.193,0.1396l0.075,-0.11l0.055,0.12l-0.05,-0.12l0.07,-0.11l-0.075,0.11l-0.055,-0.12c-0.072,0.0301 -0.143,0.0602 -0.213,0.0904c-0.4939,-0.3657 -0.9055,-0.7402 -1.207,-1.1304c-0.33,-0.44 -0.53,-0.9 -0.5,-1.37c0.02,-0.47 0.27,-0.93 0.76,-1.37c0.3929,-0.352 0.9599,-0.6972 1.7176,-1.0248c0.1798,0.0209 0.371,0.0356 0.5724,0.0448l0.0047,-0.1277l0.0453,0.1177l-0.045,-0.125l0.005,-0.135l-0.0094,0.1227l-0.0406,-0.1127c-0.1869,0.0708 -0.3643,0.1426 -0.5324,0.2152c-0.4093,-0.0476 -0.7597,-0.1271 -1.0376,-0.2452c-0.4,-0.17 -0.68,-0.42 -0.78,-0.78c-0.09,-0.36 0.01,-0.78 0.27,-1.26c0.2312,-0.4358 0.6127,-0.9269 1.1304,-1.4874c0.097,0.005 0.1969,0.0074 0.2996,0.0074v-0.1253l0.09,0.0853l-0.09,-0.09v0.0047l-0.1,-0.0947c-0.0686,0.072 -0.1352,0.1428 -0.1996,0.2126c-0.5829,-0.0297 -1.0618,-0.1497 -1.4304,-0.3726c-0.3974,-0.2439 -0.6562,-0.5939 -0.7688,-1.0573l-2.0797,0.7901c-0.2217,1.8001 -1.3407,4.1184 -2.7615,5.6872zM-39.3674,16.2796l-0.1228,-0.0142l-0.0472,-0.1258l0.04,0.12l-0.13,-0.01l0.1372,0.0158l0.0428,0.1142l0.0715,-0.0272c0.003,-0.0243 0.0058,-0.0486 0.0085,-0.0728zM-34.1027,20.6819l-0.0047,-0.0123l0.0006,-0.0073l0.0044,0.0123zM-46.7774,23.1046l-0.13,0.005h0.1253zM-46.7727,23.1044l0.0853,-0.0948l-0.09,0.095zM-46.7727,23.1044l-0.0047,0.0052h-0.0047l-0.0853,0.09c0.0742,0.0652 0.1493,0.1249 0.2252,0.1794c-0.0023,-0.0924 -0.004,-0.1855 -0.0052,-0.2794z"></path><path id="Vector" fill-rule="evenodd" style="fill:#491F7B" opacity="1" d="M-34.7947 16.8678C-37.2947 19.4678 -36.7147 20.5578 -34.1047 20.6778C-38.1747 22.2278 -37.4647 24.0978 -35.1847 25.6878C-41.2947 28.2278 -40.2647 30.8878 -36.2747 33.1878C-42.5447 33.6278 -46.6747 31.1278 -46.7747 23.1078C-43.9747 25.5778 -39.8847 19.8378 -39.4947 16.2578L-37.1947 15.3878C-37.0247 16.3878 -36.2047 16.8678 -34.7947 16.8678Z"></path><path id="Vector" fill-rule="evenodd" style="fill:#2E144E" opacity="1" d="M-38.6055 16.2778C-38.5455 16.1478 -38.4955 16.0178 -38.4455 15.8678L-37.1955 15.3878C-37.1955 15.4578 -37.1655 15.5178 -37.1555 15.5778C-36.9155 16.4478 -36.1155 16.8678 -34.7955 16.8678C-39.6855 17.8478 -39.3455 18.1378 -38.6055 16.2778Z"></path><path id="Vector" fill-rule="evenodd" style="fill:#3F1870" opacity="1" d="M-37.2047 15.3878C-37.2047 15.4578 -37.1747 15.5178 -37.1547 15.5778C-37.0747 15.8678 -36.9247 16.1178 -36.7147 16.3178C-36.5047 16.5178 -36.2347 16.6578 -35.9547 16.7278C-38.6047 17.2978 -38.2647 17.2278 -37.6447 15.6878L-37.5947 15.5378L-37.2047 15.3878Z"></path><path id="Vector" fill-rule="evenodd" style="fill:#3F1870" opacity="1" d="M-34.7907 16.8582C-37.2907 19.4582 -36.7107 20.5582 -34.1007 20.6682C-35.9907 20.5882 -39.9907 21.3282 -39.6307 20.0082C-39.0607 17.9382 -36.4607 18.0682 -34.7907 16.8582Z"></path><path id="Vector" fill-rule="evenodd" style="fill:#3F1870" opacity="1" d="M-34.1007 20.674C-38.1807 22.234 -37.4607 24.094 -35.1807 25.684C-38.2507 25.844 -44.5007 25.514 -42.0607 22.864C-40.9307 21.634 -36.6307 21.454 -34.1007 20.674Z"></path><path id="Vector" fill-rule="evenodd" style="fill:#3F1870" opacity="1" d="M-35.178 25.6901C-41.288 28.2301 -40.248 30.8901 -36.268 33.1801C-44.058 33.0701 -46.058 24.7801 -44.248 25.4001C-42.438 26.0301 -39.928 27.0801 -35.178 25.6901Z"></path><path id="Vector" fill-rule="evenodd" style="fill:#2E144E" opacity="1" d="M-37.6369 32.3001C-37.1969 32.6201 -36.7369 32.9202 -36.2669 33.1801C-44.0769 33.0701 -46.0569 24.7801 -44.2469 25.4001L-43.9169 25.5201C-43.9369 27.1901 -42.0369 31.1701 -37.6369 32.3001Z"></path><path id="Vector" fill-rule="evenodd" style="fill:#2E144E" opacity="1" d="M-42.0658 22.8632C-41.7858 22.5932 -41.4458 22.3832 -41.0858 22.2532L-41.1058 22.2732C-43.1458 24.5032 -39.0758 25.0932 -35.8958 25.1232C-35.7758 25.2332 -35.6458 25.3332 -35.5058 25.4432C-36.0958 25.5632 -36.6458 25.6532 -37.1558 25.7132C-40.2758 25.6332 -44.0458 25.0132 -42.0658 22.8632Z"></path><path id="Vector" fill-rule="evenodd" style="fill:#2E144E" opacity="1" d="M-39.6311 20.019C-39.3711 19.089 -38.7211 18.599 -37.9111 18.239C-38.2811 18.549 -38.5511 18.969 -38.6711 19.429C-38.8911 20.209 -37.5411 20.269 -36.0211 20.209C-35.7511 20.389 -35.4511 20.509 -35.1311 20.569L-36.1411 20.739C-37.9611 20.849 -39.8911 20.939 -39.6311 20.019Z"></path><path id="Vector" fill-rule="evenodd" style="fill:#9933CC" opacity="1" d="M-39.0036 17.5629C-39.8136 19.8029 -41.5336 22.2029 -43.2936 22.9329C-41.4436 21.5629 -39.8136 18.6229 -39.5136 16.4329L-39.4936 16.2629L-38.5736 15.9129C-38.5736 16.0329 -38.6136 16.1529 -38.6336 16.3029L-38.6736 16.4429C-38.9336 17.0729 -39.1136 17.4229 -39.0036 17.5629Z"></path><path id="Vector" fill-rule="evenodd" style="fill:#9933CC" opacity="1" d="M-40.6591 32.0651C-39.3091 32.7951 -37.7991 33.1851 -36.2591 33.1851C-42.5391 33.6351 -46.6691 31.1251 -46.7691 23.1051C-46.4891 23.3551 -46.1491 23.5451 -45.7891 23.6351C-45.4891 28.3851 -43.6191 30.9751 -40.6591 32.0651Z"></path><path id="Vector" fill-rule="evenodd" style="fill:#2E144E" opacity="1" d="M-31.4356,5.73h-0.12l-1.3,0.16l-0.95,3.15l-2.17,-0.13l0.25,-3.89v-0.11h0.11l1.62,-0.2l1.2,-1.75l0.03,-0.05h0.05l1.2,-0.35l0.05,-0.03l0.05,0.02l0.99,0.48l0.94,-2.25l0.33,-0.78l-0.06,0.86l-0.19,2.76v0.08l-0.07,0.04l-1.25,0.69l-0.08,0.05l-0.07,-0.05l-0.5,-0.35l-0.06,1.54zM-31.6456,3.57l0.21,0.14l0.64,0.44l1.11,-0.61l0.13,-1.85l-0.67,1.6l-0.05,0.13l-0.14,-0.06l-1.07,-0.52l-1.1,0.33l-1.23,1.84h-0.06l-1.58,0.19l-0.26,3.5l1.64,0.09l0.97,-3.05l0.03,-0.09h0.1l1.27,-0.16l0.06,-1.66z"></path><path id="Vector" fill-rule="evenodd" style="fill:#491F7B" opacity="1" d="M-32.6779 3.0517L-31.4779 2.6917L-31.5879 5.6117L-34.6779 6.0017L-32.6779 3.0517Z"></path><path id="Vector" fill-rule="evenodd" style="fill:#2E144E" opacity="1" d="M-32.7033 4.72216L-31.5833 5.61216L-34.6833 6.00216L-35.6033 5.06216L-32.7033 4.72216Z"></path><path id="Vector" fill-rule="evenodd" style="fill:#491F7B" opacity="1" d="M-35.9895 8.93216L-35.5995 5.06216L-32.6995 4.72216L-33.8195 9.06216L-35.9895 8.93216Z"></path><path id="Vector" fill-rule="evenodd" style="fill:#2E144E" opacity="1" d="M-30.9076,7.36056c-2.03,0 -3.99,0.7 -5.55,1.96999c-1.56,1.28005 -2.63,3.06005 -3.03,5.04005c-0.39,1.97 -0.09,4.02 0.87,5.8c0.95,1.78 2.49,3.17 4.36,3.94c1.87,0.77 3.94,0.88 5.88,0.29c1.93,-0.59 3.6,-1.82 4.73,-3.49c1.12,-1.68 1.62,-3.69 1.43,-5.7c-0.2,-2 -1.09,-3.88 -2.52,-5.30005c-0.81,-0.80999 -1.77,-1.44999 -2.83,-1.88999c-1.06,-0.44 -2.2,-0.66 -3.34,-0.66zM-24.5625,9.72566l-0.1751,0.18489l0.18,-0.17999c-0.0016,-0.00164 -0.0033,-0.00327 -0.0049,-0.0049zM-24.5576,9.72056c1.48,1.47004 2.39,3.40004 2.6,5.47004c0.2,2.06 -0.32,4.13 -1.48,5.86c-1.15,1.72 -2.87,3 -4.87,3.6c-1.99,0.6 -4.13,0.5 -6.05,-0.3c-1.93,-0.79 -3.51,-2.23 -4.5,-4.06c-0.98,-1.83 -1.29,-3.94 -0.88,-5.97c0.4,-2.04 1.51,-3.87 3.12,-5.19004c1.61,-1.31 3.62,-2.03 5.71,-2.03c1.18,0 2.35,0.23 3.44,0.68c1.0879,0.44912 2.0761,1.10743 2.9051,1.9451zM-31.5476,9.64056c1.49,-0.15 2.99,0.23 4.23,1.06004c1.25,0.83 2.17,2.06 2.6,3.49c0.44,1.43 0.36,2.96 -0.21,4.34c-0.58,1.38 -1.61,2.52 -2.93,3.22c-1.32,0.7 -2.85,0.93 -4.32,0.64c-1.47,-0.29 -2.79,-1.08 -3.74,-2.24c-0.95,-1.15 -1.47,-2.6 -1.47,-4.09c0,-1.71 0.69,-3.35 1.9,-4.56c1.06,-1.06 2.45,-1.71004 3.94,-1.86004zM-37.1276,16.0606c0,1.43 0.5,2.82 1.41,3.93c0.92,1.11 2.18,1.86 3.59,2.14c1.41,0.28 2.88,0.06 4.14,-0.61c1.27,-0.68 2.26,-1.77 2.81,-3.09c0.56,-1.32 0.63,-2.8 0.21,-4.17c-0.42,-1.37 -1.3,-2.55 -2.49,-3.35c-1.2,-0.79 -2.63,-1.15004 -4.06,-1.01004c-1.43,0.14004 -2.77,0.77004 -3.79,1.78004c-1.16,1.16 -1.82,2.74 -1.82,4.38z"></path><path id="Vector" fill-rule="evenodd" style="fill:#491F7B" opacity="1" d="M-24.5742,16.061c0,-1.68 -0.66,-3.28 -1.85,-4.47c-1.19,-1.19 -2.81,-1.84997 -4.49,-1.84997c-1.68,0 -3.29,0.65997 -4.48,1.84997c-1.19,1.19 -1.86,2.79 -1.86,4.47c0,1.68 0.67,3.28 1.86,4.47c1.19,1.18 2.8,1.85 4.48,1.85c1.68,0 3.3,-0.67 4.49,-1.85c1.19,-1.19 1.85,-2.79 1.85,-4.47zM-37.0642,22.241c-1.62,-1.65 -2.53,-3.87 -2.53,-6.18c0,-2.31 0.91,-4.53 2.53,-6.17997c1.63,-1.65 3.83,-2.6 6.15,-2.65c2.32,0.05 4.53,1 6.15,2.65c1.62,1.64997 2.53,3.86997 2.53,6.17997c0,2.31 -0.91,4.53 -2.53,6.18c-1.62,1.65 -3.83,2.61 -6.15,2.65c-2.32,-0.04 -4.52,-1 -6.15,-2.65z"></path><path id="Vector" fill-rule="evenodd" style="fill:#000000" opacity="1" d="M-36.7572 11.1936C-35.6972 10.1336 -34.3372 9.41365 -32.8672 9.12365C-31.3872 8.82365 -29.8572 8.97365 -28.4672 9.55365C-27.0772 10.1236 -25.8972 11.0936 -25.0572 12.3436C-24.2272 13.5836 -23.7772 15.0536 -23.7772 16.5536C-23.7772 18.5636 -24.5872 20.4836 -26.0072 21.9036C-27.4272 23.3236 -29.3672 24.1236 -31.3772 24.1236C-32.8772 24.1336 -34.3472 23.6836 -35.5972 22.8536C-36.8572 22.0236 -37.8272 20.8336 -38.4072 19.4536C-38.9772 18.0736 -39.1272 16.5436 -38.8372 15.0736C-38.5472 13.6036 -37.8172 12.2536 -36.7572 11.1936Z"></path><path id="Vector" fill-rule="evenodd" style="fill:#491F7B" opacity="1" d="M-27.505 10.3473C-26.945 12.0173 -28.975 14.1773 -32.025 15.1773C-35.065 16.1773 -37.975 15.6373 -38.535 13.9673C-39.085 12.2973 -37.055 10.1373 -34.015 9.13725C-30.955 8.13725 -28.075 8.68725 -27.505 10.3473Z"></path><path id="Vector" fill-rule="evenodd" style="fill:#9933CC" opacity="1" d="M-35.2667 14.4291C-35.6467 14.8091 -36.1667 15.0291 -36.7067 15.0291C-37.1067 15.0291 -37.4967 14.9091 -37.8367 14.6891C-38.1667 14.4691 -38.4367 14.1491 -38.5867 13.7791C-38.7367 13.4091 -38.7767 12.9991 -38.7067 12.5991C-38.6267 12.2091 -38.4267 11.8491 -38.1467 11.5591C-37.8567 11.2791 -37.4967 11.0891 -37.0967 11.0091C-36.7067 10.9291 -36.2967 10.9691 -35.9267 11.1191C-35.5567 11.2791 -35.2367 11.5391 -35.0067 11.8691C-34.7867 12.2091 -34.6667 12.5991 -34.6667 12.9991C-34.6667 13.5391 -34.8867 14.0491 -35.2667 14.4291Z"></path><path id="Vector" fill-rule="evenodd" style="fill:#9933CC" opacity="1" d="M-33.3859 9.27536C-33.1959 9.34536 -33.0459 9.47536 -32.9359 9.63536C-32.8259 9.80536 -32.7659 9.99536 -32.7659 10.1954C-32.7659 10.4554 -32.8759 10.7054 -33.0559 10.8954C-33.2459 11.0854 -33.4959 11.1854 -33.7659 11.1854C-33.9559 11.1854 -34.1559 11.1254 -34.3159 11.0254C-34.4859 10.9154 -34.6159 10.7554 -34.6859 10.5754C-34.7659 10.3954 -34.7859 10.1954 -34.7459 9.99536C-34.7059 9.80536 -34.6159 9.62536 -34.4759 9.48536C-34.3359 9.34536 -34.1559 9.25536 -33.9559 9.21536C-33.7659 9.17536 -33.5659 9.19536 -33.3859 9.27536Z"></path><path id="Vector" fill-rule="evenodd" style="fill:#FFCC00" opacity="1" d="M-33.5753 18.742L-28.7753 16.722C-28.4053 19.402 -31.4253 20.972 -33.5753 18.742Z"></path><path id="Vector" fill-rule="evenodd" style="fill:#FFFF00" opacity="1" d="M-32.7586 18.3915L-28.9986 16.8115C-28.8786 18.7915 -31.0786 19.9015 -32.7586 18.3915Z"></path><path id="Vector" fill-rule="evenodd" style="fill:#FFCC00" opacity="1" d="M-36.2357 18.742C-37.6157 20.972 -39.5457 19.402 -39.3157 16.722L-36.2357 18.742Z"></path><path id="Vector" fill-rule="evenodd" style="fill:#FFFF00" opacity="1" d="M-36.2357 18.7372C-36.3857 18.9972 -36.5857 19.2272 -36.8057 19.4272C-37.5857 19.5772 -38.2657 18.6972 -38.2957 17.3872L-36.2357 18.7372Z"></path><path id="Vector" fill-rule="evenodd" style="fill:#FFCC00" opacity="1" d="M-28.3636 22.0179L-28.6436 23.6179L-28.7936 23.6779L-29.3936 22.8379L-29.3936 23.8679L-30.2436 23.2379L-30.3236 24.0579L-30.3836 24.0579L-31.5836 22.5479L-31.8436 24.1079L-31.9936 24.1079L-32.3836 23.4379L-32.5336 24.0479L-32.6736 24.0279L-33.6136 22.4679L-33.6836 23.7079L-34.1636 23.1279L-34.2236 23.5879C-34.3336 23.5379 -34.4536 23.4879 -34.5636 23.4379L-34.9136 22.9279L-34.9936 23.2279C-35.1836 23.1179 -35.3636 23.0179 -35.5436 22.8979L-36.0636 22.3679L-36.0636 22.5179C-36.8436 21.9179 -37.4936 21.1679 -37.9836 20.3279L-36.7436 21.9179L-36.8436 20.6179L-35.3136 22.2179L-34.8236 20.4879L-34.1436 21.9779L-33.7036 20.2679L-32.6636 22.3379L-32.1836 20.4379L-30.4336 22.5379L-29.8736 20.6179L-29.2036 21.6779L-28.9736 20.0479L-27.8836 21.3379L-27.3836 19.1979L-26.9636 19.9779L-26.5236 18.2079L-25.9336 19.9579L-25.6036 19.1779L-25.3736 19.9579L-25.6336 19.9079L-25.9236 21.2079L-26.4336 20.2679L-26.8736 21.9879L-27.1936 21.1779L-27.7136 22.6479L-28.3636 22.0179Z"></path><path id="Vector" fill-rule="evenodd" style="fill:#FFFF00" opacity="1" d="M-25.6336,19.9273l-0.1,0.47l-0.01,0.01l-0.78,-0.6l-0.45,0.88l-0.5,-0.54l-0.43,1.5l-1.21,-0.59l0.14,-0.99l1.09,1.29l0.5,-2.14l0.42,0.78l0.44,-1.77l0.59,1.75l0.33,-0.78l0.23,0.78zM-34.1336,22.0073l0.44,-1.72l1.04,2.08l0.48,-1.91l1.47,1.76l-0.13,0.68l-1.23,-0.73l-0.21,0.69l-1.12,-1.35l-0.49,1.03l-0.57,-0.92l0.02,0.95l-0.81,-0.61l0.43,-1.45zM-29.7336,22.7273l-0.55,-0.67l0.41,-1.42l0.34,0.54zM-36.0236,22.0473l-0.78,-1.02l-0.03,-0.39l0.96,1.01z"></path><path id="Vector" fill-rule="evenodd" style="fill:#2E144E" opacity="1" d="M-20.9767,5.03368l0.03,0.06l0.67,1.22l2.64,-1.63l0.92,-0.58l-0.69,0.84l-2.25,2.72l-0.06,0.08h-0.1l-1.81,-0.21h-0.1l-0.04,-0.1l-0.27,-0.72l-1.17,1.54l-0.1,0.12l-0.13,-0.08l-1.46,-0.77l-3.31,2.54002l-2.15,-1.72002l3.13,-3.84l0.09,-0.1l0.13,0.07l1.82,1l2.53,-0.95l0.12,-0.02l1.51,0.52zM-28.2867,9.55367l3.26,-2.41999l0.09,-0.08l0.11,0.06l1.43,0.77l1.29,-1.66l0.2,-0.26l0.11,0.3l0.35,0.92l1.6,0.18l1.49,-1.81l-1.86,1.17l-0.16,0.1l-0.09,-0.16l-0.73,-1.33l-1.39,-0.47l-2.63,0.98l-0.07,-0.04l-1.77,-0.96l-2.85,3.41z"></path><path id="Vector" fill-rule="evenodd" style="fill:#491F7B" opacity="1" d="M-21.5963 7.36274L-17.5363 4.84274L-19.7863 7.56274L-21.5963 7.36274Z"></path><path id="Vector" fill-rule="evenodd" style="fill:#2E144E" opacity="1" d="M-21.0844 5.18546L-19.7844 7.56546L-21.5944 7.35546L-22.5944 4.67546L-21.0844 5.18546Z"></path><path id="Vector" fill-rule="evenodd" style="fill:#491F7B" opacity="1" d="M-22.5942 4.67546L-21.0842 5.18546L-23.3642 8.12546L-26.8442 6.25546L-22.5942 4.67546Z"></path><path id="Vector" fill-rule="evenodd" style="fill:#2E144E" opacity="1" d="M-23.8496 6.38545L-23.3596 8.12545L-26.8496 6.25545L-27.0996 4.60545L-23.8496 6.38545Z"></path><path id="Vector" fill-rule="evenodd" style="fill:#491F7B" opacity="1" d="M-30.3575 8.31544L-27.0975 4.60545L-23.8475 6.38545L-28.2075 10.0454L-30.3575 8.31544Z"></path><path id="Vector" fill-rule="evenodd" style="fill:#2E144E" opacity="1" d="M-8.48,21.1055c-0.47,2.18 -0.58,3.83 -0.39,5.02c0.07,0.78 0.45,1.51 1.05,2.02c0.67,0.45 1.48,0.64 2.28,0.53c1.46,-0.18 2.87,-0.61 4.17,-1.28l1.37,-0.62l-0.98,1.64c-2.26,3.78 -4.96,6.35 -8.23,7.19c-3.26,0.83 -7.12,-0.06 -11.75,-3.18l-1.25,-0.83l1.34,-0.33c0.58,-0.12 1.1,-0.42 1.49,-0.85c0.42,-0.52 0.66,-1.16 0.69,-1.83c0.06,-0.87 -0.03,-1.75 -0.26,-2.6c-0.64,-2.67 -2.11,-6.08 -3.87,-7.59l0.8,-3.27c0.4175,0.1939 0.8851,-0.0737 1.3115,-0.3177c0.1455,-0.0833 0.2862,-0.1638 0.4185,-0.2223c0.64,-0.33 1.18,-0.83 1.56,-1.44l0.44,-0.64l0.18,0.91c0.44,2.18 1,3.3 1.69,3.56c0.69,0.25 1.54,-0.36 2.53,-1.65l1.15,-1.5l-0.55,2.19c-0.28,0.99 -0.4,2.02 -0.34,3.04c0.02,0.52 0.25,1.01 0.62,1.36c0.44,0.33 0.99,0.49 1.53,0.46c0.88,-0.04 1.74,-0.23 2.55,-0.56l0.68,-0.25zM-21.77,15.8555l-0.57,2.27c1.79,1.7 3.44,4.66 4.11,7.44c0.28,1.05 0.38,2.13 0.31,3.21c-0.05,0.97 -0.4,1.89 -1.01,2.64c-0.2,0.23 -0.43,0.43 -0.68,0.59c4.04,2.48 7.41,3.15 10.28,2.41c2.62,-0.66 4.83,-2.5 6.75,-5.2c-0.94,0.37 -1.92,0.61 -2.93,0.71c-0.93,0.12 -1.88,-0.11 -2.65,-0.65c-0.73,-0.57 -1.24,-1.48 -1.46,-2.82c-0.19,-1.56 -0.12,-3.15 0.21,-4.7c-0.67,0.22 -1.37,0.34 -2.07,0.36c-0.68,0.04 -1.36,-0.17 -1.9,-0.59c-0.61,-0.59 -0.97,-1.39 -1.01,-2.23c-0.06,-0.65 -0.04,-1.3 0.05,-1.95c-0.82,0.77 -1.57,1.08 -2.26,0.82c-0.84,-0.31 -1.54,-1.44 -2.05,-3.53c-0.38,0.48 -0.87,0.87 -1.43,1.14c-0.53,0.24 -1.14,0.27 -1.69,0.08z"></path><path id="Vector" fill-rule="evenodd" style="fill:#491F7B" opacity="1" d="M-18.4707 13.5908C-17.5007 18.4108 -15.8107 18.6208 -13.6407 15.7908C-15.0907 21.5608 -12.4207 22.2208 -8.84071 20.9108C-10.7607 29.7207 -6.96071 30.6507 -1.26071 27.9808C-5.65071 35.3708 -11.6907 38.0207 -20.8107 31.8708C-15.8307 30.6607 -19.1007 21.6007 -22.8207 18.3908L-22.0107 15.1408C-20.7507 15.7308 -19.5707 15.1908 -18.4707 13.5908Z"></path><path id="Vector" fill-rule="evenodd" style="fill:#2E144E" opacity="1" d="M-22.1052 17.4063C-22.2052 17.2463 -22.3252 17.0763 -22.4452 16.9063L-22.0052 15.1363C-21.9152 15.1763 -21.8352 15.2063 -21.7552 15.2363C-20.5952 15.6463 -19.4952 15.0863 -18.4652 13.6063C-21.1952 19.8263 -20.5952 19.6863 -22.1052 17.4063Z"></path><path id="Vector" fill-rule="evenodd" style="fill:#3F1870" opacity="1" d="M-22.0046 15.1388C-21.6046 15.3288 -21.1546 15.3988 -20.7146 15.3388C-20.2746 15.2788 -19.8646 15.0788 -19.5346 14.7888C-20.9546 18.1888 -20.7746 17.7588 -22.0246 15.8788C-22.0646 15.8088 -22.1046 15.7488 -22.1546 15.6888L-22.0046 15.1388Z"></path><path id="Vector" fill-rule="evenodd" style="fill:#3F1870" opacity="1" d="M-18.475 13.6063C-17.505 18.4263 -15.815 18.6363 -13.645 15.8063C-15.215 17.8663 -17.515 22.9063 -18.705 21.4763C-20.585 19.2163 -18.435 16.3963 -18.475 13.6063Z"></path><path id="Vector" fill-rule="evenodd" style="fill:#3F1870" opacity="1" d="M-13.6443 15.8079C-15.0843 21.5679 -12.4243 22.2379 -8.84428 20.9279C-11.0743 24.4779 -16.3243 31.2079 -17.4043 26.4179C-17.9043 24.1979 -14.7443 19.2479 -13.6443 15.8079Z"></path><path id="Vector" fill-rule="evenodd" style="fill:#3F1870" opacity="1" d="M-8.83288 20.9229C-10.7529 29.7329 -6.95288 30.6629 -1.25288 28.0029C-7.47288 36.6129 -18.3729 32.3829 -16.2529 30.8429C-14.1329 29.3129 -10.9829 27.3429 -8.83288 20.9229Z"></path><path id="Vector" fill-rule="evenodd" style="fill:#2E144E" opacity="1" d="M-3.32071 28.8284C-2.62071 28.5984 -1.93071 28.3184 -1.26071 27.9984C-7.47071 36.6184 -18.3707 32.3783 -16.2507 30.8384L-15.8507 30.5584C-14.0007 31.8784 -8.05071 32.8884 -3.32071 28.8284Z"></path><path id="Vector" fill-rule="evenodd" style="fill:#2E144E" opacity="1" d="M-17.3868 26.4196C-17.4768 25.8896 -17.4468 25.3496 -17.3068 24.8396C-16.3968 28.9096 -12.5568 24.8096 -10.0268 21.2896C-9.81681 21.2396 -9.60681 21.1796 -9.38681 21.1096C-9.67681 21.8096 -9.99681 22.4896 -10.3668 23.1496C-12.8868 26.5896 -16.5168 30.3096 -17.3868 26.4196Z"></path><path id="Vector" fill-rule="evenodd" style="fill:#2E144E" opacity="1" d="M-18.7056 21.4798C-19.5456 20.4698 -19.5856 19.3498 -19.3656 18.1698C-19.3056 18.8198 -19.0456 19.4398 -18.6156 19.9498C-17.9056 20.7998 -16.7956 19.3298 -15.6756 17.5798C-15.2656 17.4198 -14.8956 17.1798 -14.5856 16.8698C-14.7756 17.2898 -14.9556 17.7198 -15.1656 18.1398C-16.4756 20.2598 -17.8656 22.4798 -18.7056 21.4798Z"></path><path id="Vector" fill-rule="evenodd" style="fill:#9933CC" opacity="1" d="M-20.9822 18.8476C-19.0922 21.5076 -17.7322 25.3076 -18.2822 27.8476C-18.3922 24.7076 -20.4122 20.5976 -22.6522 18.5476L-22.8222 18.3876L-22.5022 17.0876C-22.3722 17.2076 -22.2522 17.3276 -22.1322 17.4476L-21.9822 17.6076C-21.4822 18.3876 -21.2322 18.8676 -20.9822 18.8476Z"></path><path id="Vector" fill-rule="evenodd" style="fill:#9933CC" opacity="1" d="M-5.94851 32.0284C-4.07851 31.0984 -2.46851 29.7084 -1.26851 27.9984C-5.65851 35.3583 -11.6985 38.0183 -20.8185 31.8884C-20.3085 31.7684 -19.8385 31.5284 -19.4385 31.1884C-13.8685 34.5583 -9.48851 34.4984 -5.94851 32.0284Z"></path></g></g></g></g><defs><rect id="path_0" x="0" y="0" width="90" height="70" /></defs></svg>