<svg xmlns="http://www.w3.org/2000/svg" xmlns:xlink="http://www.w3.org/1999/xlink" width="90" height="70" viewBox="0 0 90 70" fill="none"><rect x="0" y="0" width="0" height="0" fill="rgba(249, 249, 249, 1)" /><g opacity="1"  transform="translate(0 0)  rotate(0)"><rect fill="#FFFFFF" opacity="1" transform="translate(0 0)  rotate(0)" x="0" y="0" width="90" height="70" /><mask id="bg-mask-0" fill="white"><use xlink:href="#path_0"></use></mask><g mask="url(#bg-mask-0)" ><path id="矩形 1" fill-rule="evenodd" style="fill:#BA93C9" opacity="1" d="M69 0C78.43 0 83.14 0 86.07 2.93L86.07 2.93C89 5.86 89 10.57 89 20L89 50C89 59.43 89 64.14 86.07 67.07L86.07 67.07C83.14 70 78.43 70 69 70L19 70C9.57 70 4.86 70 1.93 67.07L1.93 67.07C-1 64.14 -1 59.43 -1 50L-1 20C-1 10.57 -1 5.86 1.93 2.93L1.93 2.93C4.86 0 9.57 0 19 0L69 0Z"></path><g opacity="1" transform="translate(6 9)  rotate(0)"><text><tspan x="0" y="17.18" font-size="20" line-height="0" fill="#FFFFFF" opacity="1" font-family="HuXiaoBoNanShen-Regular" font-weight="Regular" letter-spacing="0"  >秘</tspan><tspan x="0" y="38.120000000000005" font-size="20" line-height="0" fill="#FFFFFF" opacity="1" font-family="HuXiaoBoNanShen-Regular" font-weight="Regular" letter-spacing="0" >宝</tspan></text></g><g opacity="1"  transform="translate(43 35)  rotate(0)"><path id="Vector" fill-rule="evenodd" style="fill:#FFB413" opacity="1" d="M8.65637,12.999l1,1.52c0.12,0.18 0.2,0.38 0.24,0.6c0.03,0.21 0.02,0.43 -0.03,0.65c-0.12,0.44 -0.41,0.83 -0.8,1.09c-0.39,0.25 -0.85,0.36 -1.32,0.29c-0.21,-0.03 -0.43,-0.1 -0.61,-0.22c-0.19,-0.12 -0.35,-0.27 -0.48,-0.45l-1,-1.51c-0.12,-0.18 -0.2,-0.39 -0.23,-0.61c-0.03,-0.21 -0.02,-0.43 0.03,-0.64c0.1,-0.38 0.32,-0.72 0.62,-0.98l0.16,-0.11c0.39,-0.26 0.86,-0.37 1.32,-0.3c0.22,0.03 0.43,0.1 0.62,0.22c0.19,0.12 0.35,0.27 0.48,0.45zM8.84637,15.059l-1,-1.51c-0.06,-0.09 -0.14,-0.16 -0.22,-0.21c-0.09,-0.06 -0.19,-0.09 -0.29,-0.11c-0.21,-0.03 -0.42,0.01 -0.62,0.12c-0.19,0.12 -0.33,0.32 -0.38,0.54c-0.02,0.1 -0.03,0.21 -0.01,0.31c0.01,0.1 0.05,0.2 0.11,0.28l1,1.5c0.06,0.09 0.14,0.16 0.23,0.22c0.08,0.06 0.18,0.09 0.29,0.11c0.22,0.03 0.44,-0.02 0.62,-0.15c0.18,-0.11 0.31,-0.3 0.37,-0.51c0.02,-0.1 0.03,-0.2 0.01,-0.3c-0.01,-0.11 -0.05,-0.2 -0.11,-0.29z"></path><path id="Vector" fill-rule="evenodd" style="fill:#FFD26B" opacity="1" d="M5.93993 13.8504C5.86993 14.1904 5.93993 14.5504 6.12993 14.8404L7.21993 16.4804C7.40993 16.7704 7.71993 16.9704 8.05993 17.0404C8.39993 17.1104 8.75993 17.0404 9.04993 16.8504C9.18993 16.7504 9.31993 16.6304 9.40993 16.4804C9.50993 16.3404 9.57993 16.1804 9.60993 16.0104C9.64993 15.8404 9.64993 15.6704 9.60993 15.5004C9.57993 15.3304 9.50993 15.1704 9.41993 15.0204L8.32993 13.3804C8.12993 13.0904 7.82993 12.8904 7.48993 12.8304C7.14993 12.7604 6.78993 12.8304 6.49993 13.0204C6.20993 13.2104 6.00993 13.5104 5.93993 13.8504Z"></path><path id="Vector" fill-rule="evenodd" style="fill:#FFE7AD" opacity="1" d="M6.51177 13.7899L7.61177 15.4299C7.80177 15.7199 8.10177 15.9199 8.44177 15.9899C8.79177 16.0599 9.14177 15.9899 9.43177 15.7899C9.50177 15.7499 9.57177 15.6999 9.63177 15.6399C9.61177 15.4199 9.54177 15.2099 9.42177 15.0299L8.32177 13.3899C8.23177 13.2499 8.10177 13.1199 7.96177 13.0299C7.82177 12.9299 7.66177 12.8599 7.49177 12.8299C7.32177 12.7899 7.14177 12.7899 6.97177 12.8199C6.80177 12.8599 6.64177 12.9199 6.50177 13.0199C6.43177 13.0699 6.36177 13.1199 6.30177 13.1799C6.32177 13.3999 6.39177 13.6099 6.51177 13.7899Z"></path><path id="Vector" fill-rule="evenodd" style="fill:#B3B3B3" opacity="1" d="M5.47,5.84042c-1.08,-0.24 -2.21,-0.05 -3.14,0.53999c-0.94,0.59001 -1.61,1.52001 -1.85,2.60001c-0.19,0.79999 -0.14,1.64998 0.16,2.41998c0.29,0.78 0.81,1.45 1.49,1.93c0.67,0.48 1.48,0.75 2.31,0.77c0.83,0.03 1.65,-0.2 2.35,-0.64c0.7,-0.44 1.26,-1.08 1.6,-1.84c0.34,-0.75 0.44,-1.59 0.3,-2.40999c-0.14,-0.81999 -0.52,-1.56999 -1.1,-2.16999c-0.57,-0.6 -1.31,-1.02 -2.12,-1.2zM2.13,6.07042c1.02,-0.64 2.25,-0.85 3.42,-0.59c0.89,0.2 1.69,0.65 2.31,1.3c0.62,0.66 1.04,1.48 1.19,2.37c0.16,0.88998 0.04,1.79998 -0.33,2.61998c-0.37,0.83 -0.97,1.52 -1.73,2c-0.77,0.48 -1.66,0.73 -2.56,0.7c-0.9,-0.03 -1.78,-0.32 -2.52,-0.84c-0.73,-0.52 -1.29,-1.25 -1.61,-2.1c-0.32,-0.84 -0.39,-1.75998 -0.18,-2.63998c0.27,-1.17 0.99,-2.18 2.01,-2.82z"></path><path id="Vector" fill-rule="evenodd" style="fill:#FFFFFF" opacity="1" d="M3.81347 5.59082C3.24347 5.69082 2.70347 5.89082 2.22347 6.20082C1.73347 6.50082 1.31347 6.90082 0.983468 7.36082C0.653468 7.83082 0.423468 8.36082 0.293468 8.92082C0.103468 9.76082 0.163468 10.6408 0.463468 11.4508C0.773468 12.2608 1.31347 12.9608 2.02347 13.4608C2.72347 13.9608 3.56347 14.2508 4.43347 14.2708C5.30347 14.2908 6.15347 14.0608 6.88347 13.6008C7.62347 13.1408 8.20347 12.4708 8.55347 11.6808C8.90347 10.8908 9.01347 10.0208 8.87347 9.16082C8.72347 8.31082 8.32347 7.52082 7.72347 6.89082C7.13347 6.27082 6.36347 5.83082 5.51347 5.64082C4.95347 5.51082 4.37347 5.50082 3.81347 5.59082Z"></path><path id="Vector" fill-rule="evenodd" style="fill:#E6E6E6" opacity="1" d="M5.90766 12.4026C4.92766 13.0126 3.74766 13.2126 2.61766 12.9626C1.91766 12.8026 1.25766 12.4726 0.717655 11.9926C1.01766 12.5726 1.42766 13.0726 1.94766 13.4726C2.45766 13.8626 3.05766 14.1426 3.68766 14.2726C4.32765 14.4126 4.98766 14.4026 5.61766 14.2626C6.24766 14.1126 6.83766 13.8226 7.34766 13.4226C7.84766 13.0126 8.26766 12.5026 8.54766 11.9226C8.82765 11.3426 8.98766 10.7026 8.98766 10.0526C8.99765 9.40262 8.85766 8.76262 8.58766 8.17262C8.31766 7.59262 7.91765 7.06262 7.41765 6.65262C7.92766 7.58262 8.07766 8.66262 7.83766 9.69262C7.57766 10.8126 6.88766 11.7826 5.90766 12.4026Z"></path><path id="Vector" fill-rule="evenodd" style="fill:#00CCFF" opacity="1" d="M5.47059 7.69123C5.09059 7.29123 4.61059 7.00123 4.07059 6.88123C3.71059 6.79123 3.34059 6.78123 2.97059 6.84123C2.61059 6.90123 2.26059 7.03123 1.95059 7.22123C1.64059 7.41123 1.36059 7.67123 1.15059 7.97123C0.94059 8.27123 0.78059 8.61123 0.70059 8.97123C0.58059 9.50123 0.62059 10.0612 0.81059 10.5812C1.01059 11.0912 1.35059 11.5412 1.80059 11.8612C2.25059 12.1812 2.78059 12.3612 3.34059 12.3812C3.89059 12.4012 4.43059 12.2512 4.90059 11.9612C5.37059 11.6712 5.74059 11.2512 5.97059 10.7412C6.20059 10.2412 6.27059 9.68123 6.18059 9.14123C6.09059 8.60123 5.85059 8.09123 5.47059 7.69123Z"></path><path id="Vector" fill-rule="evenodd" style="fill:#0094BA" opacity="1" d="M4.22408 9.18716C4.17408 8.89716 4.03408 8.62716 3.83408 8.41716C3.63408 8.19716 3.36408 8.04716 3.08408 7.98716C2.69408 7.89716 2.29408 7.96716 1.95408 8.17716C1.61408 8.38716 1.38408 8.71716 1.29408 9.10716C1.22408 9.38716 1.24408 9.68716 1.35408 9.96716C1.45408 10.2472 1.64408 10.4772 1.88408 10.6472C2.12408 10.8272 2.40408 10.9172 2.70408 10.9272C2.99408 10.9372 3.29408 10.8572 3.54408 10.6972C3.79408 10.5472 3.98408 10.3172 4.11408 10.0472C4.23408 9.77716 4.26408 9.47716 4.22408 9.18716Z"></path><path id="Vector" fill-rule="evenodd" style="fill:#FFFFFF" opacity="1" d="M4.46639 9.78147C4.80639 9.79147 5.14639 9.70147 5.43639 9.52147C5.71639 9.34147 5.94639 9.08147 6.08639 8.77147C6.22639 8.46147 6.27639 8.12147 6.21639 7.78147C6.16639 7.45147 6.00639 7.14147 5.77639 6.89147C5.54639 6.64147 5.24639 6.47147 4.91639 6.39147C4.69639 6.34147 4.46639 6.34147 4.24639 6.37147C4.01639 6.41147 3.80639 6.49147 3.61639 6.61147C3.42639 6.73147 3.25639 6.88147 3.12639 7.07147C2.99639 7.25147 2.90639 7.46147 2.84639 7.68147C2.77639 8.01147 2.79639 8.35147 2.91639 8.67147C3.03639 8.99147 3.24639 9.26147 3.52639 9.46147C3.80639 9.66147 4.12639 9.77147 4.46639 9.78147Z"></path><path id="Vector" fill-rule="evenodd" style="fill:#FFFFFF" opacity="1" d="M1.89718 10.6729C1.77718 10.6929 1.66718 10.7329 1.56718 10.8029C1.46718 10.8629 1.37718 10.9429 1.30718 11.0429C1.23718 11.1429 1.18718 11.2529 1.15718 11.3629C1.11718 11.5429 1.13718 11.7229 1.19718 11.8929C1.25718 12.0529 1.36718 12.2029 1.51718 12.3029C1.65718 12.4129 1.83718 12.4729 2.01718 12.4729C2.19718 12.4829 2.36718 12.4329 2.52718 12.3429C2.67718 12.2429 2.79718 12.1029 2.86718 11.9429C2.94718 11.7829 2.96718 11.6029 2.93718 11.4229C2.91718 11.2429 2.82718 11.0829 2.70718 10.9529C2.58718 10.8229 2.42718 10.7329 2.25718 10.6829C2.13718 10.6629 2.01718 10.6529 1.89718 10.6729Z"></path><path id="Vector" fill-rule="evenodd" style="fill:#004B60" opacity="1" d="M36.1453,1.53c-2.81,-1.16 -5.89,-1.46 -8.88,-0.87c-2.98,0.59 -5.71,2.05 -7.86,4.2c1.94,-2.46 4.74,-3.95 7.79,-4.56c3.05,-0.6 6.22,-0.29 9.09,0.9c2.88,1.18 5.33,3.2 7.06,5.78c1.73,2.58 2.65,5.62 2.65,8.72c0,4.17 -1.66,8.16 -4.87,10.84c2.88,-2.87 4.5,-6.77 4.51,-10.84c0,-3.03 -0.9,-5.99 -2.59,-8.52c-1.69,-2.52 -4.09,-4.49 -6.9,-5.65zM21.5253,28.76c-2.58,-1.72 -4.6,-4.18 -5.79,-7.05c-1.19,-2.86 -1.51,-6.02 -0.9,-9.07c0.61,-3.04 2.11,-5.84 4.57,-7.78c-2.15,2.14 -3.61,4.88 -4.21,7.85c-0.59,2.98 -0.29,6.06 0.88,8.87c1.16,2.8 3.13,5.19 5.66,6.88c2.52,1.68 5.49,2.58 8.53,2.58c4.07,0 7.98,-1.62 10.86,-4.5c-2.69,3.2 -6.69,4.86 -10.86,4.87c-3.11,0 -6.15,-0.92 -8.74,-2.65z"></path><path id="Vector" fill-rule="evenodd" style="fill:#0094BA" opacity="1" d="M21.6288 28.6131C24.1888 30.3131 27.1888 31.2231 30.2688 31.2231C34.3888 31.2231 38.3388 29.5831 41.2588 26.6731C44.1688 23.7631 45.8088 19.8131 45.8188 15.7031C45.8188 12.6331 44.9088 9.63312 43.1988 7.08312C41.4888 4.53312 39.0588 2.54312 36.2188 1.36312C33.3788 0.193121 30.2488 -0.116879 27.2388 0.483121C24.2188 1.08312 21.4488 2.55312 19.2688 4.72312C17.0988 6.90312 15.6188 9.66312 15.0188 12.6731C14.4188 15.6831 14.7288 18.8131 15.8988 21.6431C17.0788 24.4831 19.0688 26.9031 21.6288 28.6131Z"></path><path id="Vector" fill-rule="evenodd" style="fill:#007A9C" opacity="1" d="M27.8956 9.72428C29.5056 8.62428 31.3656 7.95428 33.3056 7.77427C35.2456 7.60427 37.1956 7.92427 38.9656 8.72427C40.7456 9.51427 42.2856 10.7543 43.4456 12.3143C42.5056 10.2543 40.9556 8.52427 39.0156 7.34427C37.0756 6.16427 34.8256 5.59427 32.5556 5.70428C30.2856 5.82428 28.1056 6.60427 26.2956 7.97427C24.4756 9.33428 23.1156 11.2043 22.3756 13.3543C22.9456 13.5543 23.5456 13.7943 24.1356 14.0543C24.9956 12.3143 26.2956 10.8243 27.8956 9.72428Z"></path><path id="Vector" fill-rule="evenodd" style="fill:#00A7D6" opacity="1" d="M15.0633 12.4531C16.1333 12.2431 17.2333 12.2131 18.3133 12.3731C19.3833 10.0331 21.0133 7.99312 23.0533 6.44312C25.0933 4.89312 27.4933 3.86312 30.0333 3.46312C32.5733 3.06312 35.1733 3.29312 37.5933 4.13312C40.0233 4.98312 42.2033 6.41312 43.9433 8.30312C42.4233 5.51312 40.0833 3.25312 37.2533 1.83312C34.4033 0.413121 31.2033 -0.106879 28.0533 0.343121C24.9133 0.793121 21.9833 2.19312 19.6533 4.36312C17.3333 6.52312 15.7333 9.35312 15.0633 12.4531Z"></path><path id="Vector" fill-rule="evenodd" style="fill:#004B60" opacity="1" d="M26.0768,11.5305c-1.46,1.6 -2.43,3.59 -2.78,5.73c-0.36,2.13 -0.08,4.32 0.79,6.31c0.88,1.98 2.31,3.66 4.13,4.85c1.81,1.18 3.93,1.81 6.1,1.81c0.3448,0 0.6895,-0.0194 1.0247,-0.0486c2.62,-0.9215 4.9509,-2.528 6.7253,-4.6514c1.7869,-2.1362 2.9559,-4.7109 3.3878,-7.4555c-0.1942,-2.1506 -1.0131,-4.1912 -2.3478,-5.8945c-1.33,-1.7 -3.14,-2.97999 -5.19,-3.66998c-2.06,-0.7 -4.27,-0.78 -6.37,-0.24c-2.1,0.53 -4,1.67 -5.47,3.25998zM31.4568,7.91052c2.17,-0.55 4.45,-0.47 6.57,0.24999c2.13,0.72001 3.99,2.03999 5.37,3.79999c1.39,1.76 2.23,3.88 2.42,6.11l-0.18,0.015l-0.18,-0.025c-0.0007,0.0048 -0.0015,0.0097 -0.0022,0.0145c0.0007,0.0085 0.0015,0.017 0.0022,0.0255l0.18,-0.015l0.18,0.025c-0.44,2.82 -1.64,5.46 -3.47,7.65c-1.82,2.19 -4.22,3.84 -6.91,4.78l-0.0592,-0.1726l-0.0208,-0.1874l-0.0153,0.0014c-0.0082,0.0028 -0.0164,0.0057 -0.0247,0.0086l0.0608,0.1774l0.0192,0.1726c-0.36,0.04 -0.72,0.06 -1.08,0.06c-2.24,0 -4.43,-0.65 -6.3,-1.88c-1.88,-1.22 -3.36,-2.96 -4.26,-5.01c-0.9,-2.04 -1.19,-4.31 -0.83,-6.51c0.37,-2.21 1.37,-4.26 2.88,-5.91c1.52,-1.64998 3.48,-2.82998 5.65,-3.37998z"></path><path id="Vector" fill-rule="evenodd" style="fill:#00A7D6" opacity="1" d="M34.3201 30.409C34.6801 30.409 35.0301 30.409 35.3801 30.359C38.0401 29.439 40.4001 27.809 42.2101 25.639C44.0201 23.479 45.2001 20.869 45.6401 18.089C45.3901 15.259 44.0901 12.629 41.9901 10.719C39.9001 8.799 37.1601 7.739 34.3201 7.739C31.3501 7.809 28.5301 9.029 26.4501 11.149C24.3701 13.269 23.2101 16.109 23.2101 19.079C23.2101 22.039 24.3701 24.889 26.4501 27.009C28.5301 29.129 31.3501 30.349 34.3201 30.409Z"></path><path id="Vector" fill-rule="evenodd" style="fill:#0094BA" opacity="1" d="M24.7215 16.9161C23.6915 19.5361 23.6815 22.4461 24.6815 25.0761C25.7015 26.7061 27.1215 28.0561 28.8115 28.9861C30.5015 29.9261 32.3915 30.4161 34.3315 30.4161C34.6815 30.4161 35.0315 30.4161 35.3815 30.3661C38.0415 29.4361 40.4015 27.8061 42.2115 25.6461C44.0215 23.4761 45.2015 20.8661 45.6315 18.0861C45.5415 17.0261 45.3015 15.9861 44.9215 14.9861C43.4215 12.6061 41.0815 10.8761 38.3615 10.1161C35.6515 9.35611 32.7515 9.63611 30.2315 10.8961C27.7115 12.1461 25.7415 14.2961 24.7215 16.9161Z"></path><path id="Vector" fill-rule="evenodd" style="fill:#007A9C" opacity="1" d="M36.0403 29.2157C37.6403 28.8957 39.1203 28.1157 40.2703 26.9557C41.4303 25.8057 42.2203 24.3357 42.5403 22.7357C42.8603 21.1357 42.7003 19.4757 42.0703 17.9657C41.4403 16.4557 40.3903 15.1657 39.0203 14.2557C37.6603 13.3457 36.0703 12.8657 34.4303 12.8657C32.2403 12.8657 30.1303 13.7357 28.5803 15.2857C27.0303 16.8257 26.1603 18.9257 26.1603 21.1157C26.1603 22.7457 26.6403 24.3457 27.5503 25.7057C28.4603 27.0657 29.7503 28.1157 31.2603 28.7457C32.7703 29.3657 34.4303 29.5357 36.0403 29.2157Z"></path><path id="Vector" fill-rule="evenodd" style="fill:#004B60" opacity="1" d="M39.4759,15.7914c-1.07,-0.71 -2.33,-1.1 -3.61,-1.09c-0.86,0 -1.7,0.16 -2.49,0.49c-0.79,0.33 -1.51,0.81 -2.11,1.41c-0.6,0.6 -1.08,1.32 -1.41,2.11c-0.33,0.78 -0.49,1.63 -0.49,2.48c0,1.28 0.38,2.54 1.09,3.61c0.72,1.07 1.74,1.9 2.92,2.39c1.19,0.49 2.5,0.62 3.76,0.37c1.27,-0.25 2.42,-0.87 3.33,-1.78c0.91,-0.91 1.53,-2.07 1.78,-3.33c0.25,-1.26 0.12,-2.56 -0.37,-3.75c-0.49,-1.19 -1.33,-2.2 -2.4,-2.91zM28.9959,21.1914c0,-0.9 0.18,-1.79 0.52,-2.62c0.35,-0.84 0.85,-1.59 1.49,-2.23c0.64,-0.64 1.39,-1.14 2.23,-1.49c0.83,-0.34 1.73,-0.52 2.63,-0.52c1.36,0 2.69,0.4 3.82,1.15c1.13,0.76 2.01,1.83 2.53,3.08c0.52,1.25 0.66,2.63 0.39,3.97c-0.26,1.33 -0.92,2.55 -1.88,3.51c-0.96,0.96 -2.18,1.61 -3.51,1.88c-1.34,0.26 -2.72,0.13 -3.98,-0.39c-1.25,-0.52 -2.33,-1.4 -3.08,-2.53c-0.76,-1.13 -1.16,-2.45 -1.16,-3.81z"></path><path id="Vector" fill-rule="evenodd" style="fill:#00A7D6" opacity="1" d="M40.5993 25.9145C41.5393 24.9745 42.1693 23.7845 42.4293 22.4945C42.6893 21.1945 42.5493 19.8545 42.0493 18.6345C41.5393 17.4145 40.6793 16.3745 39.5793 15.6345C38.4793 14.9045 37.1893 14.5145 35.8593 14.5145C34.0893 14.5145 32.3893 15.2245 31.1393 16.4745C29.8793 17.7245 29.1793 19.4245 29.1793 21.1945C29.1793 22.5145 29.5693 23.8045 30.3093 24.9045C31.0393 26.0045 32.0893 26.8545 33.3093 27.3645C34.5293 27.8645 35.8793 27.9945 37.1793 27.7445C38.4693 27.4845 39.6693 26.8445 40.5993 25.9145Z"></path><path id="Vector" fill-rule="evenodd" style="fill:#007A9C" opacity="1" d="M41.131 25.2887C42.051 24.1187 42.551 22.6787 42.551 21.1887C42.551 20.7487 42.511 20.3087 42.421 19.8687C41.851 18.8087 41.001 17.9187 39.961 17.2987C38.921 16.6787 37.731 16.3487 36.521 16.3487C34.751 16.3487 33.051 17.0587 31.801 18.3087C30.541 19.5587 29.841 21.2587 29.841 23.0287C29.841 23.4687 29.881 23.9087 29.971 24.3487C30.681 25.6587 31.801 26.6887 33.161 27.2887C34.521 27.8887 36.051 28.0187 37.491 27.6587C38.941 27.2987 40.221 26.4687 41.131 25.2887Z"></path><path id="Vector" fill-rule="evenodd" style="fill:#0094BA" opacity="1" d="M33.0623 24.9487C34.1723 25.5687 35.4323 25.8687 36.7023 25.7987C37.9623 25.7287 39.1923 25.3087 40.2223 24.5787C41.2523 23.8387 42.0623 22.8287 42.5423 21.6587C42.5423 21.4987 42.5423 21.3487 42.5423 21.1887C42.5423 20.7487 42.5023 20.3087 42.4123 19.8687C41.8423 18.8087 40.9923 17.9187 39.9523 17.2987C38.9223 16.6787 37.7323 16.3487 36.5223 16.3487C35.1923 16.3487 33.8923 16.7387 32.7923 17.4787C31.6823 18.2187 30.8223 19.2787 30.3223 20.5087C30.3223 20.6587 30.3223 20.8187 30.3223 20.9687C30.3223 21.4087 30.3723 21.8587 30.4523 22.2887C31.0523 23.4087 31.9623 24.3287 33.0623 24.9487Z"></path><path id="Vector" fill-rule="evenodd" style="fill:#004B60" opacity="1" d="M29.4954,17.3235c-3.4,-2.39 -6.98,-3.96 -10.02,-4.56c-3.06,-0.61 -5.49,-0.24 -6.69,1.15c-1.19,1.37 -1,3.58 0.4,6.1c1.39,2.51 3.95,5.27 7.34,7.66c3.4,2.39 6.99,3.96 10.02,4.56c3.06,0.61 5.5,0.23 6.69,-1.16c1.19,-1.38 1,-3.58 -0.4,-6.1c-1.39,-2.51 -3.94,-5.26 -7.34,-7.65zM30.4754,32.5935c-3.1,-0.62 -6.73,-2.21 -10.16,-4.62c-3.43,-2.41 -6.03,-5.21 -7.45,-7.78c-1.42,-2.56 -1.7,-4.96 -0.36,-6.51c1.34,-1.56 3.96,-1.9 7.04,-1.28c3.1,0.62 6.73,2.21 10.16,4.62c3.43,2.41 6.03,5.2 7.45,7.77c1.42,2.55 1.71,4.96 0.36,6.52c-1.33,1.55 -3.96,1.89 -7.04,1.28z"></path><path id="Vector" fill-rule="evenodd" style="fill:#0094BA" opacity="1" d="M37.3775 31.1746C39.9175 28.2246 36.4275 21.9546 29.5975 17.1546C22.7775 12.3446 15.1875 10.8346 12.6475 13.7746C10.1075 16.7246 13.5975 22.9946 20.4275 27.8046C27.2475 32.6046 34.8375 34.1146 37.3775 31.1746Z"></path><path id="Vector" fill-rule="evenodd" style="fill:#007A9C" opacity="1" d="M28.0385 18.6787C22.1085 14.5087 15.5185 13.1887 13.3185 15.7387C12.3285 16.8987 12.3985 18.6487 13.3185 20.5987C15.1785 23.4487 17.5985 25.8987 20.4285 27.7987C22.7885 29.4887 25.3885 30.8287 28.1385 31.7687C31.1185 32.4887 33.5985 32.2486 34.7985 30.8587C36.9885 28.3087 33.9785 22.8487 28.0385 18.6787Z"></path><path id="Vector" fill-rule="evenodd" style="fill:#00607E" opacity="1" d="M33.4512 29.6817C35.3512 27.4817 32.7412 22.7817 27.6312 19.1917C22.5212 15.5917 16.8412 14.4617 14.9512 16.6617C13.0512 18.8617 15.6612 23.5717 20.7712 27.1617C25.8812 30.7517 31.5512 31.8817 33.4512 29.6817Z"></path><path id="Vector" fill-rule="evenodd" style="fill:#000000" opacity="1" d="M34.0704 28.111C34.2304 25.661 31.7404 22.071 27.6404 19.191C23.3704 16.181 18.6904 14.901 16.1604 15.851C16.0004 18.301 18.4904 21.891 22.5904 24.771C26.8704 27.781 31.5404 29.061 34.0704 28.111Z"></path><path id="Vector" fill-rule="evenodd" style="fill:#00A7D6" opacity="1" d="M37.5234 30.9613C37.9234 30.4013 38.1434 29.7413 38.1734 29.0613C38.3734 25.7913 35.0534 21.0013 29.5734 17.1613C24.2934 13.4313 18.5434 11.7013 15.0434 12.4613C14.1234 12.6313 13.2834 13.1013 12.6434 13.8013C12.3734 14.1113 12.1734 14.4713 12.0334 14.8613L12.2034 14.6413C12.9134 13.8813 13.8734 13.3913 14.9134 13.2513C18.4334 12.6313 24.0134 14.3913 29.1334 18.0113C34.2634 21.6313 37.5334 26.0913 37.7334 29.3213C37.7734 29.8813 37.7034 30.4413 37.5234 30.9613Z"></path><path id="Vector" fill-rule="evenodd" style="fill:#FFB413" opacity="1" d="M13.5344,13.8542c2.3,-0.17 5.17,0.94 8.11,2.67c2.94,1.73 5.99,4.09 8.66,6.47c2.68,2.38 4.98,4.79 6.4399,6.59c0.73,0.9 1.25,1.66 1.5,2.21c0.12,0.26 0.2,0.51 0.17,0.71c-0.02,0.11 -0.07,0.21 -0.49,0.36l0.13,-0.42c0,0 -0.02,-0.24 -0.14,-0.5c-0.23,-0.5 -0.73,-1.23 -1.46,-2.13c-1.4399,-1.79 -3.73,-4.17 -6.3899,-6.54c-2.66,-2.38 -5.69,-4.73 -8.61,-6.44c-2.92,-1.72 -5.71,-2.78 -7.89,-2.62c-2.99,0.22 -5.91005,1.27 -7.70005,4.01c-1.79113,2.7265 -2.49307,7.1858 -0.9629,14.3139l-0.0371,-0.0039l0.06,0.11c-0.00768,-0.0354 -0.01532,-0.0708 -0.0229,-0.1061l0.1529,0.0161c0,0 0.47,0.03 0.83,0.05c0.71,0.02 1.74,0.03 2.99,0.03c2.51005,0 5.93005,-0.03 9.59005,-0.06c0.8992,-0.0086 1.8128,-0.0176 2.7311,-0.0267c6.5566,-0.065 13.3442,-0.1322 16.7388,-0.0533l-0.01,0.37c-3.5782,-0.0834 -10.9463,-0.0122 -17.8342,0.0544c-0.5422,0.0053 -1.0815,0.0105 -1.6158,0.0156c-3.6599,0.04 -7.0899,0.07 -9.59995,0.07c-1.26,-0.01 -2.28,-0.02 -3.01,-0.04c-0.35,-0.01 -0.84,-0.04 -0.84,-0.04l-0.46,-0.21c-1.57,-7.22 -0.88,-11.83 0.99,-14.69c1.88,-2.87 4.93005,-3.95 7.98005,-4.17z"></path><path id="Vector" fill-rule="evenodd" style="fill:#FFE7AD" opacity="1" d="M37.9278 32.6773C40.8278 32.7473 22.5078 13.3773 13.5578 14.0373C7.50781 14.4773 1.61781 18.2773 4.74781 32.6773C4.82781 33.0673 30.1978 32.4973 37.9278 32.6773Z"></path><path id="Vector" fill-rule="evenodd" style="fill:#FFF9ED" opacity="1" d="M4.28362 30.2532C4.40361 31.0232 4.56362 31.8332 4.74362 32.6832C4.82362 33.0632 30.1936 32.4932 37.9336 32.6832C38.2336 32.6832 38.3036 32.4732 38.1736 32.0932C37.0336 31.8132 37.7836 31.6732 35.3836 31.6732C32.0536 31.6732 32.1936 28.9432 27.4836 31.1232C26.4536 31.6132 25.1536 31.4932 23.9836 31.3432C20.9836 30.9732 21.7536 29.7132 18.6436 30.0932C16.2436 30.3832 14.0236 31.5932 11.7836 31.5932C8.91362 31.5932 6.64361 29.1732 4.28362 30.2532Z"></path><path id="Vector" fill-rule="evenodd" style="fill:#FFC64D" opacity="1" d="M5.70283 26.3116C5.79283 26.4016 5.91283 26.4616 6.04283 26.4716C6.11283 26.4816 6.18283 26.4716 6.25283 26.4516C6.32283 26.4316 6.38283 26.3916 6.44283 26.3416C6.49283 26.3016 6.53283 26.2416 6.56283 26.1716C6.59283 26.1016 6.61283 26.0316 6.61283 25.9616C6.61283 25.8916 6.59283 25.8116 6.56283 25.7516C6.53283 25.6816 6.49283 25.6216 6.44283 25.5716C6.38283 25.5216 6.32283 25.4916 6.25283 25.4716C6.18283 25.4416 6.11283 25.4416 6.04283 25.4416C5.91283 25.4616 5.79283 25.5216 5.70283 25.6116C5.62283 25.7116 5.57283 25.8316 5.57283 25.9616C5.57283 26.0916 5.62283 26.2116 5.70283 26.3116Z"></path><path id="Vector" fill-rule="evenodd" style="fill:#FFC64D" opacity="1" d="M10.4194 21.0703C10.2794 21.1003 10.1494 21.1703 10.0494 21.2803C9.9394 21.3803 9.8694 21.5103 9.8394 21.6503C9.8194 21.8003 9.8294 21.9403 9.8894 22.0803C9.9394 22.2103 10.0394 22.3303 10.1594 22.4103C10.2794 22.4903 10.4194 22.5303 10.5694 22.5303C10.7594 22.5303 10.9494 22.4603 11.0894 22.3203C11.2294 22.1803 11.3094 21.9903 11.3094 21.8003C11.3094 21.6503 11.2594 21.5103 11.1794 21.3903C11.0994 21.2703 10.9894 21.1703 10.8494 21.1203C10.7194 21.0603 10.5694 21.0503 10.4194 21.0703Z"></path><path id="Vector" fill-rule="evenodd" style="fill:#FFC64D" opacity="1" d="M10.3855 18.5243C10.3085 18.5393 10.2375 18.5773 10.1815 18.6333C10.1255 18.6883 10.0875 18.7603 10.0725 18.8373C10.0565 18.9143 10.0645 18.9943 10.0945 19.0673C10.1255 19.1403 10.1765 19.2023 10.2415 19.2463C10.3075 19.2903 10.3845 19.3133 10.4635 19.3133C10.5695 19.3133 10.6715 19.2713 10.7465 19.1963C10.8205 19.1223 10.8625 19.0203 10.8625 18.9153C10.8625 18.8363 10.8395 18.7593 10.7955 18.6933C10.7515 18.6283 10.6895 18.5763 10.6165 18.5463C10.5435 18.5163 10.4635 18.5083 10.3855 18.5243Z"></path><path id="Vector" fill-rule="evenodd" style="fill:#FFC64D" opacity="1" d="M20.2049 23.6303C20.1929 23.6913 20.1989 23.7553 20.2229 23.8133C20.2469 23.8713 20.2879 23.9203 20.3399 23.9553C20.3919 23.9903 20.4529 24.0083 20.5159 24.0083C20.5999 24.0083 20.6809 23.9753 20.7399 23.9163C20.7999 23.8563 20.8329 23.7763 20.8329 23.6923C20.8329 23.6293 20.8149 23.5683 20.7799 23.5163C20.7449 23.4643 20.6959 23.4233 20.6379 23.3993C20.5799 23.3753 20.5159 23.3693 20.4539 23.3813C20.3929 23.3933 20.3359 23.4233 20.2919 23.4683C20.2479 23.5123 20.2169 23.5683 20.2049 23.6303Z"></path><path id="Vector" fill-rule="evenodd" style="fill:#FFC64D" opacity="1" d="M14.995 28.4953C15.105 28.3753 15.165 28.2253 15.165 28.0753C15.165 27.9553 15.135 27.8353 15.065 27.7353C15.005 27.6453 14.905 27.5653 14.795 27.5253C14.695 27.4753 14.575 27.4653 14.455 27.4853C14.335 27.5053 14.235 27.5653 14.145 27.6453C14.065 27.7353 14.005 27.8353 13.985 27.9553C13.965 28.0653 13.975 28.1853 14.025 28.2953C14.065 28.4053 14.145 28.4953 14.235 28.5653C14.335 28.6353 14.455 28.6653 14.575 28.6653C14.725 28.6653 14.885 28.6053 14.995 28.4953Z"></path><path id="Vector" fill-rule="evenodd" style="fill:#FFC64D" opacity="1" d="M9.35143 28.0341C9.40043 27.9861 9.42843 27.9211 9.43043 27.8521C9.42843 27.7831 9.40043 27.7171 9.35143 27.6681C9.30243 27.6191 9.23643 27.5911 9.16743 27.5901C9.09843 27.5911 9.03343 27.6201 8.98543 27.6691C8.93743 27.7181 8.91043 27.7841 8.91043 27.8521C8.91043 27.9201 8.93743 27.9851 8.98543 28.0341C9.03443 28.0821 9.09943 28.1091 9.16743 28.1091C9.23643 28.1091 9.30243 28.0821 9.35143 28.0341Z"></path><path id="Vector" fill-rule="evenodd" style="fill:#FFC64D" opacity="1" d="M23.9268 27.4266C23.8468 27.3936 23.7588 27.3856 23.6738 27.4016C23.5888 27.4186 23.5108 27.4606 23.4498 27.5216C23.3888 27.5826 23.3468 27.6606 23.3298 27.7456C23.3138 27.8296 23.3218 27.9176 23.3548 27.9976C23.3878 28.0776 23.4448 28.1456 23.5158 28.1936C23.5878 28.2416 23.6728 28.2676 23.7598 28.2676C23.8758 28.2676 23.9868 28.2206 24.0688 28.1396C24.1508 28.0576 24.1968 27.9466 24.1968 27.8306C24.1968 27.7436 24.1708 27.6596 24.1228 27.5876C24.0748 27.5156 24.0068 27.4596 23.9268 27.4266Z"></path><path id="Vector" fill-rule="evenodd" style="fill:#FFC64D" opacity="1" d="M31.5451 27.7936C31.4721 27.8086 31.4041 27.8446 31.3511 27.8966C31.2991 27.9496 31.2631 28.0166 31.2481 28.0896C31.2341 28.1626 31.2411 28.2386 31.2701 28.3076C31.2981 28.3766 31.3471 28.4356 31.4091 28.4766C31.4711 28.5176 31.5441 28.5396 31.6181 28.5396C31.7181 28.5396 31.8141 28.5006 31.8851 28.4296C31.9561 28.3586 31.9961 28.2636 31.9961 28.1636C31.9961 28.0886 31.9741 28.0156 31.9321 27.9536C31.8911 27.8916 31.8321 27.8436 31.7631 27.8156C31.6941 27.7866 31.6181 27.7796 31.5451 27.7936Z"></path><path id="Vector" fill-rule="evenodd" style="fill:#FFC64D" opacity="1" d="M26.4943 24.729C26.4943 24.663 26.4403 24.609 26.3733 24.609C26.3073 24.609 26.2533 24.663 26.2533 24.729C26.2533 24.795 26.3073 24.849 26.3733 24.849C26.4403 24.849 26.4943 24.795 26.4943 24.729Z"></path><path id="Vector" fill-rule="evenodd" style="fill:#FFC64D" opacity="1" d="M17.9867 20.3918C17.9517 20.3988 17.9197 20.4168 17.8947 20.4418C17.8697 20.4668 17.8517 20.4988 17.8447 20.5338C17.8377 20.5688 17.8417 20.6048 17.8557 20.6378C17.8687 20.6708 17.8927 20.6988 17.9217 20.7188C17.9517 20.7388 17.9867 20.7488 18.0217 20.7488C18.0457 20.7488 18.0697 20.7448 18.0917 20.7358C18.1127 20.7268 18.1327 20.7128 18.1497 20.6968C18.1667 20.6798 18.1797 20.6598 18.1887 20.6378C18.1977 20.6158 18.2027 20.5928 18.2027 20.5688C18.2027 20.5338 18.1917 20.4988 18.1727 20.4688C18.1527 20.4388 18.1247 20.4158 18.0917 20.4028C18.0587 20.3888 18.0217 20.3858 17.9867 20.3918Z"></path><path id="Vector" fill-rule="evenodd" style="fill:#FFC64D" opacity="1" d="M19.5062 26.9044C19.5922 26.8184 19.6412 26.7014 19.6412 26.5804C19.6412 26.4584 19.5922 26.3414 19.5062 26.2554C19.4202 26.1694 19.3032 26.1214 19.1812 26.1214C19.0602 26.1214 18.9432 26.1694 18.8572 26.2554C18.7702 26.3414 18.7222 26.4584 18.7222 26.5804C18.7222 26.7014 18.7702 26.8184 18.8572 26.9044C18.9432 26.9904 19.0602 27.0384 19.1812 27.0384C19.3032 27.0384 19.4202 26.9904 19.5062 26.9044Z"></path><path id="Vector" fill-rule="evenodd" style="fill:#FFC64D" opacity="1" d="M6.78231 20.0115C6.84531 19.9475 6.88131 19.8615 6.88131 19.7715C6.88131 19.6825 6.84531 19.5965 6.78231 19.5325C6.71831 19.4695 6.63231 19.4335 6.54231 19.4335C6.45231 19.4335 6.36631 19.4695 6.30231 19.5325C6.23931 19.5965 6.20331 19.6825 6.20331 19.7715C6.20331 19.8615 6.23931 19.9475 6.30231 20.0115C6.36631 20.0745 6.45231 20.1105 6.54231 20.1105C6.63231 20.1105 6.71831 20.0745 6.78231 20.0115Z"></path><path id="Vector" fill-rule="evenodd" style="fill:#FFC64D" opacity="1" d="M25.6536 29.7962C25.7206 29.7292 25.7596 29.6392 25.7606 29.5442C25.7596 29.4492 25.7216 29.3582 25.6536 29.2912C25.5866 29.2242 25.4956 29.1852 25.4006 29.1842C25.3056 29.1852 25.2146 29.2242 25.1486 29.2912C25.0816 29.3592 25.0446 29.4502 25.0446 29.5442C25.0446 29.6382 25.0816 29.7292 25.1486 29.7952C25.2156 29.8622 25.3056 29.8992 25.4006 29.8992C25.4946 29.8992 25.5856 29.8622 25.6536 29.7962Z"></path><path id="Vector" fill-rule="evenodd" style="fill:#FFC64D" opacity="1" d="M27.6948 21.0142C25.5648 19.2542 23.2848 17.6742 20.8848 16.2942C20.7448 16.7142 20.6748 17.1442 20.6748 17.5842C20.6948 18.7342 21.1748 19.8242 22.0048 20.6142C22.8348 21.4142 23.9548 21.8442 25.0948 21.8142C26.0248 21.8242 26.9348 21.5442 27.6948 21.0142Z"></path><path id="Vector" fill-rule="evenodd" style="fill:#FFC64D" opacity="1" d="M30.1343 25.667C30.8343 26.337 31.7743 26.697 32.7443 26.677C33.0843 26.677 33.4243 26.627 33.7643 26.537C32.4143 25.157 30.8243 23.657 29.1243 22.207C29.0443 22.497 29.0043 22.807 29.0043 23.107C29.0243 24.077 29.4343 24.997 30.1343 25.667Z"></path><path id="Vector" fill-rule="evenodd" style="fill:#FFC64D" opacity="1" d="M35.2075 29.8303C35.3375 30.1403 35.5375 30.4203 35.7775 30.6503C36.0175 30.8803 36.3075 31.0603 36.6175 31.1803C36.9275 31.3103 37.2675 31.3603 37.5975 31.3603L37.8075 31.3603C37.0175 30.1703 36.1275 29.0503 35.1475 28.0103C35.0375 28.2803 34.9875 28.5703 34.9875 28.8603C34.9975 29.1903 35.0675 29.5203 35.2075 29.8303Z"></path><path id="Vector" fill-rule="evenodd" style="fill:#FFB413" opacity="1" d="M14.6466,16.8822c-0.51,-0.33 -0.88,-0.83 -1.03,-1.42c-0.07,-0.27 -0.09,-0.56 -0.05,-0.84c0.05,-0.29 0.15,-0.56 0.31,-0.8l1.3,-1.95c0.16,-0.23 0.37,-0.43 0.61,-0.58c0.24,-0.15 0.51,-0.25 0.79,-0.29c0.59,-0.09 1.2,0.04 1.71,0.38l0.21,0.14c0.4,0.34 0.68,0.78 0.81,1.28c0.07,0.27 0.09,0.56 0.04,0.84c-0.04,0.29 -0.15,0.56 -0.3,0.8l-1.3,1.94c-0.16,0.24 -0.37,0.44 -0.61,0.59c-0.24,0.15 -0.51,0.25 -0.79,0.29c-0.59,0.09 -1.2,-0.05 -1.7,-0.38zM18.1566,12.9822c-0.07,-0.27 -0.24,-0.51 -0.48,-0.67l-0.04,-0.02c-0.23,-0.14 -0.5,-0.2 -0.77,-0.16c-0.14,0.02 -0.26,0.07 -0.38,0.14c-0.11,0.07 -0.21,0.16 -0.29,0.27l-1.29,1.96c-0.08,0.11 -0.12,0.23 -0.15,0.36c-0.02,0.14 -0.01,0.27 0.02,0.4c0.07,0.28 0.24,0.51 0.48,0.67c0.24,0.16 0.52,0.22 0.81,0.18c0.13,-0.02 0.26,-0.07 0.37,-0.14c0.12,-0.07 0.22,-0.16 0.3,-0.27l1.29,-1.95c0.07,-0.11 0.12,-0.24 0.14,-0.37c0.02,-0.13 0.02,-0.27 -0.01,-0.4z"></path><path id="Vector" fill-rule="evenodd" style="fill:#FFD26B" opacity="1" d="M18.4336 14.256C18.6836 13.876 18.7736 13.416 18.6836 12.976C18.5836 12.526 18.3236 12.136 17.9536 11.886C17.5736 11.636 17.1136 11.546 16.6636 11.636C16.2236 11.726 15.8336 11.996 15.5836 12.366L14.1636 14.506C13.9136 14.876 13.8236 15.346 13.9136 15.786C14.0036 16.226 14.2736 16.616 14.6436 16.866C15.0236 17.116 15.4836 17.206 15.9336 17.116C16.3736 17.026 16.7636 16.766 17.0136 16.386L18.4336 14.256Z"></path><path id="Vector" fill-rule="evenodd" style="fill:#FFE7AD" opacity="1" d="M16.6629 11.636C16.2229 11.726 15.8329 11.996 15.5829 12.366L14.1629 14.506C14.0129 14.736 13.9129 15.016 13.8929 15.296C13.9729 15.376 14.0529 15.436 14.1429 15.496C14.5229 15.746 14.9829 15.836 15.4229 15.746C15.8729 15.656 16.2629 15.396 16.5129 15.016L17.9329 12.886C18.0829 12.646 18.1829 12.376 18.2029 12.096C18.1229 12.016 18.0429 11.946 17.9529 11.886C17.5729 11.636 17.1129 11.546 16.6629 11.636Z"></path><path id="Vector" fill-rule="evenodd" style="fill:#B3B3B3" opacity="1" d="M21.6483,3.83089c-0.88,-0.36 -1.85,-0.46 -2.78,-0.27c-0.93,0.18 -1.79,0.64 -2.46,1.31c-0.68,0.67 -1.13,1.53 -1.32,2.46c-0.19,0.93 -0.09,1.9 0.27,2.77001c0.37,0.88 0.98,1.63 1.77,2.16c0.8,0.53 1.73,0.81 2.68,0.81c1.27,0 2.49,-0.51 3.39,-1.41c0.91,-0.9 1.41,-2.11001 1.42,-3.39001c0,-0.95 -0.28,-1.88 -0.81,-2.67c-0.53,-0.79 -1.28,-1.4 -2.16,-1.77zM23.4583,11.9209c-0.97,0.97 -2.28,1.51 -3.65,1.52c-1.03,0 -2.03,-0.31 -2.88,-0.88c-0.85,-0.56 -1.52,-1.37 -1.91,-2.32c-0.39,-0.94001 -0.49,-1.98001 -0.29,-2.98001c0.2,-1.01 0.69,-1.93 1.42,-2.65c0.72,-0.72 1.65,-1.21 2.65,-1.41c1,-0.2 2.05,-0.1 2.99,0.29c0.95,0.4 1.76,1.06 2.32,1.91c0.57,0.85 0.87,1.85 0.87,2.87c0,1.37 -0.55,2.68001 -1.52,3.65001z"></path><path id="Vector" fill-rule="evenodd" style="fill:#FFFFFF" opacity="1" d="M15.1918 10.174C15.5718 11.084 16.2118 11.864 17.0318 12.414C17.8518 12.964 18.8218 13.254 19.8018 13.254C21.1318 13.254 22.3918 12.724 23.3318 11.794C24.2618 10.854 24.7918 9.59402 24.8018 8.27402C24.8018 7.28402 24.5118 6.32402 23.9618 5.50402C23.4118 4.68402 22.6318 4.04402 21.7218 3.66402C20.8118 3.28402 19.8018 3.18402 18.8318 3.37402C17.8618 3.57402 16.9718 4.04402 16.2718 4.74402C15.5818 5.44402 15.1018 6.32402 14.9118 7.29402C14.7118 8.26402 14.8118 9.26402 15.1918 10.174Z"></path><path id="Vector" fill-rule="evenodd" style="fill:#E6E6E6" opacity="1" d="M16.0752 11.5638C16.5552 12.1138 17.1552 12.5438 17.8252 12.8338C18.4952 13.1238 19.2152 13.2638 19.9452 13.2438C20.6752 13.2238 21.3952 13.0438 22.0452 12.7138C22.6952 12.3938 23.2752 11.9238 23.7252 11.3538C24.1752 10.7838 24.5052 10.1238 24.6652 9.41379C24.8352 8.70379 24.8452 7.97379 24.7052 7.25379C24.5552 6.54379 24.2552 5.87379 23.8152 5.28379C23.3852 4.70379 22.8252 4.22379 22.1852 3.87379C23.0052 4.79379 23.4452 5.97379 23.4452 7.19379C23.4352 8.0638 23.2152 8.9038 22.7852 9.6538C22.3552 10.4038 21.7452 11.0238 20.9952 11.4638C20.2552 11.9038 19.4152 12.1438 18.5452 12.1638C17.6852 12.1838 16.8352 11.9738 16.0752 11.5638Z"></path><path id="Vector" fill-rule="evenodd" style="fill:#00CCFF" opacity="1" d="M21.6921 8.22027C21.6921 7.59027 21.5021 6.97027 21.1521 6.44027C20.8021 5.92027 20.3021 5.51027 19.7121 5.26027C19.1321 5.02027 18.4821 4.96027 17.8621 5.08027C17.2421 5.20027 16.6721 5.51027 16.2221 5.96027C15.7721 6.40027 15.4721 6.97027 15.3421 7.60027C15.2221 8.22027 15.2821 8.86027 15.5221 9.44027C15.7721 10.0303 16.1821 10.5303 16.7021 10.8803C17.2321 11.2303 17.8521 11.4203 18.4821 11.4203C19.3321 11.4203 20.1521 11.0803 20.7521 10.4803C21.3521 9.88027 21.6921 9.07027 21.6921 8.22027Z"></path><path id="Vector" fill-rule="evenodd" style="fill:#0094BA" opacity="1" d="M17.6703 9.93617C18.1303 9.93617 18.5603 9.74617 18.8803 9.42617C19.2003 9.10617 19.3803 8.67617 19.3803 8.21617C19.3803 7.88617 19.2803 7.55617 19.0903 7.27617C18.9003 6.99617 18.6403 6.77617 18.3203 6.64617C18.0103 6.51617 17.6703 6.48617 17.3303 6.54617C17.0003 6.61617 16.7003 6.77617 16.4603 7.01617C16.2203 7.25617 16.0603 7.56617 15.9903 7.89617C15.9303 8.22617 15.9603 8.56617 16.0903 8.87617C16.2203 9.19617 16.4403 9.45617 16.7203 9.64617C17.0003 9.83617 17.3303 9.93617 17.6703 9.93617Z"></path><path id="Vector" fill-rule="evenodd" style="fill:#FFFFFF" opacity="1" d="M17.4994 6.97595C17.6494 7.33595 17.8994 7.64595 18.2294 7.86595C18.5494 8.08595 18.9294 8.19595 19.3194 8.19595C19.8494 8.19595 20.3494 7.98595 20.7194 7.62595C21.0894 7.25595 21.2994 6.75595 21.2994 6.23595C21.2994 5.84595 21.1894 5.45595 20.9694 5.13595C20.7494 4.81595 20.4394 4.55595 20.0794 4.40595C19.7194 4.25595 19.3294 4.21595 18.9394 4.29595C18.5594 4.36595 18.2094 4.55595 17.9294 4.83595C17.6494 5.10595 17.4594 5.45595 17.3894 5.83595C17.3094 6.22595 17.3494 6.61595 17.4994 6.97595Z"></path><path id="Vector" fill-rule="evenodd" style="fill:#FFFFFF" opacity="1" d="M17.4542 11.8181C17.7342 11.8181 17.9942 11.7081 18.1842 11.5181C18.3842 11.3181 18.4942 11.0581 18.4942 10.7781C18.4942 10.5781 18.4342 10.3781 18.3142 10.2081C18.2042 10.0381 18.0342 9.89815 17.8442 9.82815C17.6542 9.74815 17.4442 9.72815 17.2442 9.76815C17.0442 9.80815 16.8642 9.90815 16.7142 10.0581C16.5742 10.1981 16.4742 10.3881 16.4342 10.5881C16.3942 10.7881 16.4142 10.9981 16.4942 11.1881C16.5742 11.3681 16.7042 11.5381 16.8742 11.6481C17.0442 11.7581 17.2442 11.8181 17.4542 11.8181Z"></path></g></g></g><defs><rect id="path_0" x="0" y="0" width="90" height="70" /></defs></svg>