<svg xmlns="http://www.w3.org/2000/svg" xmlns:xlink="http://www.w3.org/1999/xlink" width="90" height="70" viewBox="0 0 90 70" fill="none"><rect x="0" y="0" width="0" height="0" fill="rgba(249, 249, 249, 1)" /><g opacity="1"  transform="translate(0 0)  rotate(0)"><rect fill="#FFFFFF" opacity="1" transform="translate(0 0)  rotate(0)" x="0" y="0" width="90" height="70" /><mask id="bg-mask-0" fill="white"><use xlink:href="#path_0"></use></mask><g mask="url(#bg-mask-0)" ><path id="矩形 1" fill-rule="evenodd" style="fill:#93C9A5" opacity="1" d="M69 0C78.43 0 83.14 0 86.07 2.93L86.07 2.93C89 5.86 89 10.57 89 20L89 50C89 59.43 89 64.14 86.07 67.07L86.07 67.07C83.14 70 78.43 70 69 70L19 70C9.57 70 4.86 70 1.93 67.07L1.93 67.07C-1 64.14 -1 59.43 -1 50L-1 20C-1 10.57 -1 5.86 1.93 2.93L1.93 2.93C4.86 0 9.57 0 19 0L69 0Z"></path><g opacity="1" transform="translate(6 9)  rotate(0)"><text><tspan x="0" y="17.18" font-size="20" line-height="0" fill="#FFFFFF" opacity="1" font-family="HuXiaoBoNanShen-Regular" font-weight="Regular" letter-spacing="0"  >奇</tspan><tspan x="0" y="38.120000000000005" font-size="20" line-height="0" fill="#FFFFFF" opacity="1" font-family="HuXiaoBoNanShen-Regular" font-weight="Regular" letter-spacing="0" >遇</tspan></text></g><g opacity="1"  transform="translate(89.66036987304688 20)  rotate(0)"><path id="Vector" fill-rule="evenodd" style="fill:#63574B" opacity="1" d="M-35.0599,43.8529l-5.27,6l-0.13,0.15h-0.23l-4.68,-2.02c1.59,-7.13 3.05,-8.9 4.7,-10.02c0.96,-0.66 1.55,-0.37 2.37,0.04c0.82,0.46 1.5,1.15 1.96,1.95c0.98,1.58 1.72,3.33 1.28,3.9zM-35.7199,43.3229c0.24,-0.37 -0.52,-1.63 -1.34,-2.93c-0.38,-0.67 -0.93,-1.22 -1.59,-1.61c-0.0773,-0.0373 -0.1495,-0.0747 -0.2183,-0.1104c-0.4291,-0.2228 -0.7242,-0.376 -1.3017,0.0204c-1.45,0.98 -2.72,2.45 -4.23,8.97l3.54,1.5l5.15,-5.84z"></path><path id="Vector" fill-rule="evenodd" style="fill:#998877" opacity="1" d="M-40.6728 49.6178L-44.8028 47.6278C-40.1328 29.3278 -34.3628 42.2678 -35.3928 43.6078L-40.6728 49.6178Z"></path><path id="Vector" fill-rule="evenodd" style="fill:#877767" opacity="1" d="M-35.8072 41.0438C-35.3272 42.1738 -35.1572 43.2538 -35.4172 43.5938L-37.5372 46.0038L-40.6872 49.6138L-43.3872 48.3038L-41.5872 48.3038L-39.6272 46.0438L-36.3372 42.2938C-36.1772 41.9138 -36.1572 41.4738 -36.2972 41.0838C-36.4572 40.3438 -36.7272 39.6438 -37.0972 38.9838C-36.5572 39.5938 -36.1272 40.2938 -35.8072 41.0438Z"></path><path id="Vector" fill-rule="evenodd" style="fill:#000000" opacity="1" d="M-44.1316,47.5061l-0.08,0.15l0.0006,0.0037l-0.0806,0.1563c0.0158,0.0077 0.0315,0.0156 0.0469,0.0239c-0.4563,0.1065 -0.8827,0.331 -1.2269,0.6561c-0.2967,0.2882 -0.5215,0.6482 -0.6562,1.0435l-0.2338,0.0065v0.17l-0.17,-0.04c0.13,-0.55 0.42,-1.04 0.82,-1.43c0.41,-0.39 0.92,-0.65 1.47,-0.76l0.05,-0.01zM-43.3216,49.7061l-0.16,-0.07v0.005l-0.0051,-0.002l-0.0049,-0.173l-0.1123,0.0031c0.0929,-0.298 0.0894,-0.6085 -0.0177,-0.9031c-0.1139,-0.3131 -0.3358,-0.5722 -0.6231,-0.7261c0.021,-0.0049 0.042,-0.0095 0.0631,-0.0139l-0.0294,-0.1663l0.0794,-0.1537c0.39,0.19 0.68,0.53 0.83,0.94c0.15,0.41 0.14,0.86 -0.02,1.26zM-43.4816,49.8161v-0.175l0.16,0.065l-0.05,0.1zM-46.3616,49.8861v-0.17l0.17,0.04c0.0183,-0.0732 0.0396,-0.1454 0.0638,-0.2165l2.5239,-0.0704c-0.0112,0.0359 -0.0238,0.0715 -0.0377,0.1069l0.1549,0.063l0.0051,0.177z"></path><path id="Vector" fill-rule="evenodd" style="fill:#333333" opacity="1" d="M-45.5845 48.3675C-45.2045 48.0075 -44.7245 47.7575 -44.2145 47.6575C-43.8645 47.8375 -43.5945 48.1375 -43.4545 48.5075C-43.3245 48.8775 -43.3345 49.2775 -43.4845 49.6375L-46.3645 49.7175C-46.2345 49.2075 -45.9645 48.7375 -45.5845 48.3675Z"></path><path id="Vector" fill-rule="evenodd" style="fill:#1A1A1A" opacity="1" d="M-43.3775 48.8029C-43.3435 49.0899 -43.3815 49.3799 -43.4855 49.6489L-43.6965 49.6489L-46.3615 49.7159L-44.2995 49.0869L-43.3775 48.8029Z"></path><path id="Vector" fill-rule="evenodd" style="fill:#000000" opacity="1" d="M-41.7126,47.4959l-0.08,0.15l-0.04,-0.17l0.06,-0.01zM-41.8726,47.8059c0.0158,0.0076 0.0315,0.0156 0.047,0.0239c-0.4563,0.1065 -0.8828,0.331 -1.227,0.6561c-0.3051,0.2882 -0.5312,0.6482 -0.6661,1.0435l-0.2339,0.0065l0.005,0.17l-0.165,-0.04c0.13,-0.55 0.42,-1.04 0.82,-1.43c0.41,-0.39 0.91,-0.65 1.46,-0.76l0.0372,0.1805zM-41.2226,49.5659l0.1551,0.07l0.0001,0.0023l-0.0052,-0.0023l0.01,0.17l-2.88,0.07l-0.005,-0.17l0.165,0.04c0.0183,-0.0732 0.0396,-0.1454 0.0639,-0.2165l2.5346,-0.0704c-0.0114,0.036 -0.0242,0.0717 -0.0385,0.1069zM-41.0675,49.6359l-0.0051,-0.18l-0.1115,0.0031c0.0921,-0.2919 0.0883,-0.6094 -0.0185,-0.9031c-0.1139,-0.3132 -0.3358,-0.5723 -0.623,-0.7261c0.0209,-0.0049 0.0419,-0.0095 0.063,-0.0139l-0.0328,-0.1595l0.0828,-0.1605c0.39,0.19 0.69,0.53 0.83,0.94c0.16,0.41 0.14,0.86 -0.03,1.27zM-40.9526,49.8059h-0.11l-0.0048,-0.1677l0.1548,0.0677zM-44.1726,49.8859l0.06,-0.22l0.16,0.04l0.01,0.17z"></path><path id="Vector" fill-rule="evenodd" style="fill:#333333" opacity="1" d="M-43.1755 48.3572C-42.7955 47.9972 -42.3155 47.7472 -41.7955 47.6472C-41.4455 47.8272 -41.1755 48.1272 -41.0355 48.4972C-40.9055 48.8672 -40.9155 49.2672 -41.0655 49.6372L-43.9455 49.7072C-43.8255 49.1972 -43.5555 48.7272 -43.1755 48.3572Z"></path><path id="Vector" fill-rule="evenodd" style="fill:#1A1A1A" opacity="1" d="M-40.9812 48.7926C-40.9482 49.0796 -40.9851 49.3696 -41.0891 49.6386L-41.3002 49.6386L-43.9702 49.7056L-41.9081 49.0766L-40.9812 48.7926Z"></path><path id="Vector" fill-rule="evenodd" style="fill:#63574B" opacity="1" d="M-21.2684,49.4871l-0.11,0.13h-0.16l-4.02,-1.65c1.25,-6.1 2.46,-7.63 3.85,-8.61c0.81,-0.57 1.48,-0.69 2.19,-0.35c0.68,0.41 1.24,1 1.62,1.69v0.04c0.86,1.33 1.37,3.06 1.03,3.55zM-17.4584,43.8371c0.2,-0.32 -0.33,-1.62 -1.03,-2.72c-0.33,-0.59 -0.8,-1.08 -1.37,-1.44c-0.48,-0.23 -0.9,-0.11 -1.46,0.29c-1.22,0.86 -2.28,2.13 -3.46,7.74l3.04,1.22z"></path><path id="Vector" fill-rule="evenodd" style="fill:#998877" opacity="1" d="M-21.5825 49.2361L-25.1325 47.6061C-21.4425 31.9461 -16.3125 42.8761 -17.1825 44.0361L-21.5825 49.2361Z"></path><path id="Vector" fill-rule="evenodd" style="fill:#877767" opacity="1" d="M-20.7243 46.2103L-17.9743 42.9703C-17.8543 42.6303 -17.8543 42.2703 -17.9743 41.9403C-18.1343 41.3103 -18.3743 40.7103 -18.6943 40.1603C-18.2243 40.6803 -17.8443 41.2703 -17.5643 41.9103C-17.1343 42.8603 -16.9743 43.7803 -17.1843 44.0803L-18.9543 46.1403L-21.5943 49.2403L-23.9243 48.1703L-22.3843 48.1403L-20.7243 46.2103Z"></path><path id="Vector" fill-rule="evenodd" style="fill:#000000" opacity="1" d="M-24.5586,47.4749l-0.0708,0.1464l-0.0392,-0.1664l0.06,-0.01zM-23.8186,49.3749l-0.16,-0.07l0.0003,0.0051l-0.0003,-0.0001l-0.01,-0.175l-0.1131,0.0051c0.0715,-0.2413 0.0604,-0.4996 -0.0269,-0.7351c-0.1029,-0.2622 -0.2848,-0.4717 -0.5292,-0.5958c0.0197,-0.005 0.0395,-0.0097 0.0592,-0.0142l-0.0342,-0.1665l0.0034,-0.0071l0.0008,0.0036l0.07,-0.15c0.34,0.16 0.61,0.45 0.75,0.8c0.14,0.35 0.13,0.75 -0.01,1.1zM-23.9686,49.4849l-0.0097,-0.1749l0.1597,0.0649l-0.04,0.1zM-26.4286,49.4149l-0.17,-0.04c0.1,-0.47 0.34,-0.9 0.68,-1.24c0.35,-0.34 0.78,-0.58 1.25,-0.68l0.0358,0.1735l-0.0758,0.1565c0.0173,0.0076 0.0342,0.0157 0.0508,0.0242c-0.3781,0.0958 -0.7351,0.2906 -1.0108,0.5758c-0.2451,0.2369 -0.4234,0.5273 -0.5296,0.8492l2.0965,-0.0941c-0.0105,0.0354 -0.0228,0.0704 -0.0369,0.1049l0.16,0.065l0.01,0.175l-2.45,0.1zM-26.4286,49.4149l0.17,0.04c0.0165,-0.075 0.0367,-0.1487 0.0604,-0.2208l-0.2404,0.0108z"></path><path id="Vector" fill-rule="evenodd" style="fill:#333333" opacity="1" d="M-25.7914 48.2565C-25.4714 47.9365 -25.0714 47.7165 -24.6314 47.6265C-24.3314 47.7665 -24.0914 48.0265 -23.9714 48.3365C-23.8514 48.6465 -23.8514 48.9965 -23.9814 49.3065L-26.4314 49.4165C-26.3314 48.9765 -26.1114 48.5765 -25.7914 48.2565Z"></path><path id="Vector" fill-rule="evenodd" style="fill:#1A1A1A" opacity="1" d="M-23.9157 48.5965C-23.8797 48.8395 -23.9047 49.0875 -23.9877 49.3185L-24.1677 49.3185L-26.4407 49.4165L-24.7147 48.8495L-23.9157 48.5965Z"></path><path id="Vector" fill-rule="evenodd" style="fill:#000000" opacity="1" d="M-22.5001,47.4336l-0.07,0.15l0.0008,0.0033l-0.0708,0.1567c0.0167,0.0077 0.033,0.0158 0.0492,0.0243c-0.3858,0.0958 -0.7341,0.2901 -1.0192,0.5657c-0.2428,0.2429 -0.4202,0.5316 -0.5319,0.8503l-0.2381,0.0097l0.0051,0.1789l-0.1651,-0.0389c0.1,-0.47 0.34,-0.9 0.69,-1.24c0.34,-0.34 0.77,-0.58 1.24,-0.68l0.06,-0.01zM-21.9204,49.2585l-0.0097,-0.1649l-0.1161,0.0048c0.0748,-0.2441 0.0645,-0.5062 -0.0239,-0.7448c-0.1029,-0.2527 -0.2848,-0.4616 -0.5208,-0.5857c0.0202,-0.0051 0.0404,-0.0098 0.0608,-0.0143l-0.0392,-0.1667l0.0692,-0.1533c0.35,0.16 0.61,0.44 0.75,0.8c0.14,0.35 0.13,0.74 -0.01,1.09zM-24.3701,49.5436l-0.22,0.01l0.05,-0.22l0.1652,0.0401l-0.0001,-0.0012l0.0049,0.0011v0.0012l0.16,0.0388c0.0191,-0.0781 0.0418,-0.1547 0.0681,-0.2297l2.0958,-0.0855c-0.0098,0.0321 -0.0211,0.0638 -0.0339,0.0952l0.1597,0.0649l0.0003,0.0051l0.16,0.06l-0.04,0.11h-0.11zM-24.3701,49.5436v-0.1688l-0.0048,-0.0011z"></path><path id="Vector" fill-rule="evenodd" style="fill:#333333" opacity="1" d="M-23.733 48.2152C-23.413 47.8952 -23.013 47.6852 -22.573 47.5852C-22.263 47.7252 -22.033 47.9852 -21.913 48.2952C-21.793 48.6052 -21.793 48.9552 -21.923 49.2652L-24.373 49.3752C-24.273 48.9352 -24.053 48.5352 -23.733 48.2152Z"></path><path id="Vector" fill-rule="evenodd" style="fill:#1A1A1A" opacity="1" d="M-21.8545 48.5501C-21.8195 48.7941 -21.8465 49.0421 -21.9315 49.2721L-22.1115 49.2721L-24.3845 49.3701L-22.6525 48.8031L-21.8545 48.5501Z"></path><path id="Vector" fill-rule="evenodd" style="fill:#FFB413" opacity="1" d="M-55.3012,27.4533l-0.1654,0.0552l-0.1746,-0.0052l0.04,-0.88zM-55.4581,27.5087l0.1569,-0.0554c0.94,2.6 1.97,4.78 3.45,6.22c1.46,1.44 3.36,2.17 6.08,1.86l0.04,-0.01l-0.02,0.18l0.0008,0.0074l0.0592,-0.1774c0.86,0.3 1.41,0.85 1.69,1.51c0.28,0.65 0.29,1.39 0.12,2.05c-0.18,0.66 -0.54,1.27 -1.03,1.64c-0.494,0.3755 -1.1149,0.5166 -1.7759,0.25c-2.6451,-0.0122 -4.9714,-1.3706 -6.5841,-3.73c-1.62,-2.37 -2.53,-5.74 -2.37,-9.75l0.1615,0.0095l0.0131,-0.0043zM-55.3012,27.5133l-0.1569,-0.0046l-0.0131,0.0046l-0.0085,-0.0005l-0.1515,0.0505c0.1026,0.2829 0.2063,0.5614 0.3117,0.835c0.0002,-0.2911 0.0062,-0.5861 0.0183,-0.885zM-46.5812,40.6533c0.55,0.23 1.05,0.12 1.46,-0.19c0.42,-0.32 0.74,-0.85 0.9,-1.45c0.16,-0.61 0.14,-1.27 -0.1,-1.83c-0.2359,-0.5602 -0.694,-1.0431 -1.4407,-1.3064c0.0102,-0.0012 0.0204,-0.0024 0.0307,-0.0036l-0.0192,-0.1626l-0.0508,0.1526c0.0132,0.0045 0.0263,0.009 0.0393,0.0136c-2.794,0.3209 -4.7949,-0.4391 -6.3293,-1.9536c-1.3737,-1.338 -2.3576,-3.2649 -3.2283,-5.525c-0.0021,3.5659 0.8768,6.5379 2.3283,8.655c1.57,2.29 3.81,3.59 6.34,3.59v0.1824zM-46.7112,40.9733c0.008,0.0034 0.0161,0.0067 0.0241,0.01c0.012,0 0.0239,0 0.0359,0v-0.1576z"></path><path id="Vector" fill-rule="evenodd" style="fill:#FFE7AD" opacity="1" d="M-46.6541 40.8184C-51.8541 40.8184 -55.7941 35.4884 -55.4641 27.5084C-53.5741 32.7284 -51.2841 36.3384 -45.7441 35.6984C-42.4741 36.8084 -44.2041 41.8184 -46.6541 40.8184Z"></path><path id="Vector" fill-rule="evenodd" style="fill:#FFFFFF" opacity="1" d="M-44.6519 36.3684C-44.3519 36.6784 -44.1419 37.0684 -44.0319 37.4884C-44.3719 37.5684 -44.7319 37.5484 -45.0619 37.4084C-48.7819 37.4084 -53.3119 34.4584 -55.4419 29.8684C-55.5019 29.0884 -55.5119 28.2984 -55.4719 27.5084C-53.5819 32.7284 -51.2819 36.3384 -45.7519 35.6984C-45.3319 35.8284 -44.9519 36.0584 -44.6519 36.3684Z"></path><path id="Vector" fill-rule="evenodd" style="fill:#FFD26B" opacity="1" d="M-46.6517 40.8116C-50.1517 40.8116 -53.0817 38.3916 -54.5217 34.3916C-52.0917 37.6716 -48.2717 39.8316 -44.1917 39.4816C-44.6217 40.5116 -45.5617 41.2616 -46.6517 40.8116Z"></path><path id="Vector" fill-rule="evenodd" style="fill:#63574B" opacity="1" d="M-44.7727,27.692l0.12,-0.08l-0.0191,0.2196l0.1191,-0.1096l14.49,15.68l0.27,0.29h-0.4c-3.6421,0 -7.8523,-0.0588 -10.4979,-0.8064c-1.6246,0.9283 -3.231,0.885 -4.6455,0.8469c-0.1443,-0.0039 -0.2865,-0.0077 -0.4266,-0.0105h-0.42v-0.35l-0.01,0.35c-0.85,-0.03 -1.72,-0.17 -2.48,-0.42c-0.76,-0.25 -1.43,-0.61 -1.86,-1.08c-0.31,-0.35 -0.51,-0.87 -0.64,-1.48c-0.12,-0.61 -0.17,-1.34 -0.14,-2.1c0.0498,-1.5234 0.3772,-3.2153 0.9525,-4.5624c0.0855,-1.0757 0.4838,-1.9737 1.1075,-2.5776c0.5907,-0.5813 1.3661,-0.8813 2.2436,-0.8176c0.0412,-0.4371 0.1457,-0.8642 0.4364,-1.3224c0.33,-0.51 0.88,-1.04 1.8,-1.67zM-44.6766,27.8361l0.0039,0.0059l0.0009,-0.0104l-0.0048,0.0045l-0.0961,-0.1441l0.095,0.145zM-44.7004,28.0627c0.0385,-0.0267 0.0777,-0.0536 0.1177,-0.0807l-0.095,-0.145l-0.125,0.115zM-46.6827,31.072l-0.19,-0.03c-0.84,-0.1 -1.59,0.16 -2.14,0.7c-0.55,0.55 -0.93,1.37 -1.01,2.4l-0.1843,-0.0163l-0.1457,-0.0637c-0.0025,0.0059 -0.005,0.0117 -0.0075,0.0176c-0.0008,0.0108 -0.0017,0.0216 -0.0025,0.0324l0.1557,0.0137l0.0143,0.0063l0.16,0.07c-0.56,1.3 -0.89,2.96 -0.94,4.45c-0.02,0.75 0.02,1.44 0.14,2.02c0.12,0.59 0.31,1.04 0.56,1.31c0.38,0.42 0.98,0.75 1.71,0.99c0.72,0.24 1.56,0.37 2.38,0.4h0.42v0.35l0.01,-0.35c0.1424,0.0028 0.2859,0.0065 0.4305,0.0103c1.4301,0.0376 2.9657,0.0779 4.5095,-0.8303l0.07,-0.04l0.0196,0.1863l-0.0006,0.002l-0.049,0.1617c0.0272,0.0079 0.0545,0.0158 0.0821,0.0236c0.0193,-0.0111 0.0386,-0.0223 0.0579,-0.0336l-0.09,-0.15l-0.0004,-0.0037l0.0504,-0.1663c2.4902,0.7335 6.4895,0.8057 10.0919,0.8098l0.2681,0.2902l0.12,-0.1104v0.0004l0.13,-0.12l-0.13,0.1196v-0.1796c-0.1288,0 -0.2582,-0.0001 -0.3881,-0.0002l-14.1196,-15.2791c-0.8272,0.5737 -1.3052,1.0498 -1.5823,1.4893c-0.29,0.45 -0.37,0.86 -0.4,1.33zM-46.8327,30.702c-0.0592,-0.0075 -0.118,-0.0133 -0.1764,-0.0176c-0.0056,0.059 -0.01,0.1182 -0.0136,0.1776l0.17,0.01zM-50.0227,34.142v0.03l-0.17,-0.04z"></path><path id="Vector" fill-rule="evenodd" style="fill:#63574B" opacity="1" d="M-50.3431,22.2561l0.27,-0.74c0.12,-0.34 0.27,-0.66 0.45,-0.9699c0.28,-0.5 0.66,-0.9301 1.13,-1.2701c0.46,-0.33 1,-0.55 1.56,-0.6499c1.04,-0.1501 2.11,-0.0201 3.09,0.3599c0.54,0.2 1.06,0.45 1.55,0.7401l0.23,0.1399l-0.03,0.2601l-0.52,1.2899v0.16l-0.11,0.12c-0.37,0.1801 -0.42,0.6001 -1.64,1.9301c-0.9385,0.8499 -1.4066,0.477 -2.2512,-0.1957c-0.1093,-0.0871 -0.225,-0.1792 -0.3488,-0.2743c-0.0085,-0.0065 -0.0171,-0.0129 -0.0257,-0.0194c-0.8031,-0.6049 -1.684,-1.2684 -2.5943,-1.0607zM-49.0531,21.1961c0.96,0.07 1.79,0.7 2.57,1.29c0.0378,0.0278 0.0754,0.0555 0.1128,0.083c0.7439,0.5482 1.4031,1.0341 1.9172,0.577c0.07,-0.06 0.33,-0.41 0.61,-0.7699c0.28,-0.3701 0.58,-0.75 0.8,-0.9801l0.08,-1.07c-0.38,-0.1999 -0.78,-0.3699 -1.18,-0.5199c-0.85,-0.33 -1.77,-0.4401 -2.67,-0.3201c-0.44,0.0701 -0.86,0.2401 -1.23,0.5c-0.37,0.26 -0.67,0.6 -0.9,0.9901c-0.04,0.07 -0.08,0.1399 -0.11,0.2199z"></path><path id="Vector" fill-rule="evenodd" style="fill:#998877" opacity="1" d="M-44.1517 23.4377C-45.7217 24.8377 -47.4017 21.1277 -49.7017 21.6377C-48.3617 17.9777 -44.7717 18.7477 -42.5217 20.0977L-42.6317 21.5777C-42.9517 21.8777 -43.9517 23.2677 -44.1517 23.4377Z"></path><path id="Vector" fill-rule="evenodd" style="fill:#E35B6A" opacity="1" d="M-44.1552 23.4594C-45.6852 24.8294 -47.3352 21.2694 -49.5652 21.6394C-47.8652 20.0994 -44.7352 20.6494 -42.6352 21.5294L-42.6352 21.5794C-42.9452 21.8794 -43.9452 23.2694 -44.1552 23.4594Z"></path><path id="Vector" fill-rule="evenodd" style="fill:#E87683" opacity="1" d="M-43.1248 22.1846C-43.5448 22.6946 -44.0248 23.3346 -44.1548 23.4546C-45.4248 24.5946 -46.7848 22.3246 -48.4948 21.7446C-46.8748 21.1846 -44.7748 21.5646 -43.1248 22.1846Z"></path><path id="Vector" fill-rule="evenodd" style="fill:#63574B" opacity="1" d="M-0.24,30.6033c0.11,0.26 0.21,0.57 0.23,0.88c0.03,0.3 -0.03,0.63 -0.29,0.84c-0.26,0.21 -0.67,0.28 -1.25,0.18c-0.58,-0.09 -1.38,-0.36 -2.45,-0.85c-0.12,-0.06 -0.35,-0.06 -0.65,0.05c-0.29,0.11 -0.61,0.3 -0.91,0.58c-0.61,0.55 -1.1,1.39 -1.06,2.38l0.02,0.28l-0.26,-0.11l-1.72,-0.72l-0.1,-0.04v-0.11c-0.06,-1.32 0.63,-2.44 1.63,-3.13c1,-0.7 2.32,-0.99 3.55,-0.66l-0.09,0.33l0.00247,0.0006l-0.00247,0.0094c-1.12,-0.3 -2.33,-0.04 -3.26,0.6c-0.89147,0.6201 -1.50126,1.5877 -1.49273,2.7207l-0.09727,-0.0407l-0.07,0.16l0.17,-0.01c-0.00155,-0.0366 -0.00246,-0.073 -0.00273,-0.1093l1.38011,0.5777c-0.00304,0.0892 -0.00226,0.1797 0.00262,0.2716l0.17,-0.01l0.07,-0.16l-0.24262,-0.1016c0.03434,-1.0075 0.55628,-1.8372 1.16262,-2.3884c0.33,-0.3 0.7,-0.52 1.03,-0.65c0.33,-0.12 0.67,-0.16 0.92,-0.04c1.06,0.49 1.82,0.74 2.36,0.83c0.54,0.09 0.83,0.01 0.97,-0.11c0.14,-0.11 0.19,-0.3 0.17,-0.55c-0.00142,-0.0178 -0.0032,-0.0357 -0.00531,-0.0536c0.0671,-0.1977 0.10576,-0.4439 0.12531,-0.7664l-0.17058,-0.0098l0.00058,-0.0002l-0.18,-0.01l0.04,-0.73zM-2.42,30.7533c0.36,0.26 0.68,0.51 0.98,0.68c0.14,0.09 0.27,0.15 0.37,0.17c0.1,0.02 0.17,0.01 0.22,-0.02c0.05,-0.02 0.11,-0.09 0.16,-0.24c0.06,-0.15 0.1,-0.37 0.11,-0.68l0.17942,0.0102l-0.15942,0.0698c0.09289,0.2229 0.17715,0.4717 0.20469,0.7064c-0.00155,0.0045 -0.00311,0.0091 -0.00469,0.0136c-0.07,0.19 -0.17,0.34 -0.32,0.42c-0.15,0.09 -0.31,0.09 -0.47,0.06c-0.15,-0.04 -0.31,-0.12 -0.47,-0.21c-0.31,-0.18 -0.66,-0.46 -1,-0.7c-0.33907,-0.2394 -0.66819,-0.4489 -0.96753,-0.5294l0.08753,-0.3306c0.37,0.1 0.74,0.34 1.08,0.58z"></path><path id="Vector" fill-rule="evenodd" style="fill:#877767" opacity="1" d="M-8.51285 33.9532C-8.62285 31.4532 -5.89285 29.7132 -3.54285 30.3432C-2.22285 30.6932 -0.532852 33.2032 -0.402852 30.6732C0.0171484 31.6532 0.327148 33.4632 -3.92285 31.4932C-4.68285 31.1332 -6.89285 32.5532 -6.79285 34.6732L-8.51285 33.9532Z"></path><path id="Vector" fill-rule="evenodd" style="fill:#63574B" opacity="1" d="M-7.63291,40.1478c-1.13,1.35 -2.75999,2.33 -4.71999,3.02c-3.92,1.39 -9.22,1.69 -14.77,1.69c-11.15,0 -20.27,-7 -20.27,-15.74c0,-8.72 9.12,-15.75 20.27,-15.75c5.62,0 10.93,3.22 14.84,7.5c3.89999,4.29 6.42999,9.66 6.42999,14.01c0,2.19 -0.64,3.92 -1.78,5.27zM-47.0529,29.1178c0,8.47 8.88,15.39 19.93,15.39c5.55,0 10.8,-0.3 14.65,-1.66c1.93,-0.69 3.49999,-1.63 4.57999,-2.92c1.08,-1.29 1.7,-2.94 1.7,-5.05c0,-4.23 -2.47999,-9.53 -6.34999,-13.77c-3.87,-4.24 -9.1,-7.39 -14.58,-7.39c-11.05,0 -19.93,6.94 -19.93,15.4z"></path><path id="Vector" fill-rule="evenodd" style="fill:#998877" opacity="1" d="M-6.0258 34.8809C-6.0258 43.4709 -16.0258 44.6809 -27.1258 44.6809C-38.2158 44.6809 -47.2258 37.7209 -47.2258 29.1209C-47.2258 20.5309 -38.2258 13.5409 -27.1258 13.5409C-16.0258 13.5409 -6.0258 26.2909 -6.0258 34.8809Z"></path><path id="Vector" fill-rule="evenodd" style="fill:#877767" opacity="1" d="M-6.30061 32.2426C-6.12061 33.1026 -6.03061 33.9826 -6.02061 34.8626C-6.02061 43.4725 -16.0106 44.6626 -27.1206 44.6626C-38.2206 44.6626 -47.2206 37.7026 -47.2206 29.1026C-47.2206 28.2826 -47.1306 27.4726 -46.9706 26.6726C-45.4506 34.0926 -37.1406 39.7626 -27.1306 39.7626C-17.1006 39.7626 -7.97061 38.7926 -6.30061 32.2426Z"></path><path id="Vector" fill-rule="evenodd" style="fill:#998877" opacity="1" d="M-50.188 34.1032C-50.028 31.9832 -48.648 30.6332 -46.848 30.8532C-46.798 29.8932 -46.498 29.0732 -44.678 27.8232L-30.188 43.5032C-33.878 43.5032 -38.118 43.4432 -40.728 42.6832C-42.648 43.7932 -44.538 43.5232 -46.188 43.5232L-50.188 34.1032Z"></path><path id="Vector" fill-rule="evenodd" style="fill:#DE4256" opacity="1" d="M-42.081 42.0595C-43.001 44.0395 -48.701 43.9295 -50.401 42.0595C-52.101 40.1895 -50.781 31.7395 -47.691 31.7395C-44.591 31.7395 -41.161 40.0795 -42.081 42.0595Z"></path><path id="Vector" fill-rule="evenodd" style="fill:#E35B6A" opacity="1" d="M-43.1341 41.6399C-43.9241 43.3399 -48.8441 43.2599 -50.3141 41.6399C-51.7841 40.0299 -50.6441 32.7199 -47.9741 32.7199C-45.3041 32.7199 -42.3441 39.9399 -43.1341 41.6399Z"></path><path id="Vector" fill-rule="evenodd" style="fill:#877767" opacity="1" d="M-33.938 39.0947L-30.188 43.4747C-31.048 43.4747 -31.938 43.4747 -32.828 43.4747C-35.758 43.4347 -38.728 43.2647 -40.718 42.6747C-42.478 43.6947 -44.208 43.5547 -45.758 43.5147C-44.078 43.4947 -42.528 43.0247 -42.088 42.0647C-41.768 41.3847 -41.968 39.9447 -42.488 38.3647C-41.988 38.4947 -41.488 38.5947 -40.988 38.6747C-38.648 38.9847 -36.288 39.1247 -33.938 39.0947Z"></path><path id="Vector" fill-rule="evenodd" style="fill:#DE4256" opacity="1" d="M-44.5315 40.6485C-44.7015 41.5885 -46.2615 41.7285 -46.8115 40.9285C-47.3515 40.1385 -47.3415 36.2485 -46.4915 36.1385C-45.6515 36.0285 -44.3615 39.6985 -44.5315 40.6485Z"></path><path id="Vector" fill-rule="evenodd" style="fill:#000000" opacity="1" d="M-44.5859 40.1687C-44.6559 41.0087 -45.8159 41.1387 -46.2759 40.4287C-46.7459 39.7187 -46.9959 36.2387 -46.3659 36.1387C-45.7359 36.0387 -44.5259 39.3287 -44.5859 40.1687Z"></path><path id="Vector" fill-rule="evenodd" style="fill:#DE4256" opacity="1" d="M-48.2874 40.4648C-48.6074 41.3348 -50.0574 41.4548 -50.4274 40.7248C-50.7874 40.0048 -50.1074 36.4348 -49.3174 36.3348C-48.5274 36.2348 -47.9674 39.5948 -48.2874 40.4648Z"></path><path id="Vector" fill-rule="evenodd" style="fill:#000000" opacity="1" d="M-48.2664 40.015C-48.3064 40.185 -48.4064 40.335 -48.5264 40.445C-48.6564 40.565 -48.8164 40.635 -48.9864 40.665C-49.1564 40.685 -49.3264 40.665 -49.4764 40.585C-49.6364 40.515 -49.7664 40.395 -49.8564 40.255C-50.1564 39.605 -49.7964 36.415 -49.2064 36.335C-48.6164 36.245 -48.0664 39.245 -48.2664 40.015Z"></path><path id="Vector" fill-rule="evenodd" style="fill:#877767" opacity="1" d="M-40.9395 35.8722C-42.6095 32.9722 -44.4395 30.7122 -46.8495 30.8522C-46.8095 30.2022 -46.5595 29.5822 -46.1595 29.0822C-43.0795 29.4522 -41.3495 31.7322 -40.9395 35.8722Z"></path><path id="Vector" fill-rule="evenodd" style="fill:#877767" opacity="1" d="M-33.2831 36.5742C-34.1231 36.9942 -35.0731 37.1442 -36.0031 37.0142C-36.9331 36.8842 -37.8131 36.4842 -38.5131 35.8642C-39.2131 35.2442 -39.7231 34.4242 -39.9631 33.5142C-40.1231 32.9142 -40.1531 32.2842 -40.0731 31.6642C-39.9931 31.0442 -39.7831 30.4442 -39.4731 29.9042C-39.1531 29.3642 -38.7331 28.8942 -38.2431 28.5142C-37.7431 28.1342 -37.1731 27.8542 -36.5731 27.7042C-35.6631 27.4642 -34.7031 27.4942 -33.8131 27.8042C-32.9231 28.1142 -32.1431 28.6742 -31.5831 29.4242C-31.0131 30.1742 -30.6831 31.0742 -30.6231 32.0142C-30.5631 32.9542 -30.7831 33.8842 -31.2631 34.7042C-31.7331 35.5142 -32.4431 36.1642 -33.2831 36.5742Z"></path><path id="Vector" fill-rule="evenodd" style="fill:#FFFFFF" opacity="1" d="M-34.1015 33.6295C-34.4115 34.1495 -34.8515 34.5595 -35.3915 34.8195C-35.9215 35.0795 -36.5215 35.1695 -37.1115 35.0895C-37.7015 35.0095 -38.2515 34.7495 -38.6915 34.3495C-39.1415 33.9595 -39.4515 33.4395 -39.6015 32.8695C-39.7015 32.4795 -39.7315 32.0795 -39.6715 31.6895C-39.6215 31.2995 -39.4915 30.9195 -39.2815 30.5795C-39.0815 30.2395 -38.8215 29.9495 -38.5015 29.7095C-38.1915 29.4695 -37.8315 29.2995 -37.4515 29.1995C-36.8715 29.0495 -36.2715 29.0695 -35.7115 29.2695C-35.1415 29.4595 -34.6515 29.8195 -34.3015 30.2995C-33.9415 30.7695 -33.7315 31.3395 -33.6915 31.9395C-33.6615 32.5295 -33.8015 33.1195 -34.1015 33.6295Z"></path><path id="Vector" fill-rule="evenodd" style="fill:#33CC33" opacity="1" d="M-35.9005 33.3092C-36.0905 33.6392 -36.3805 33.8992 -36.7205 34.0692C-37.0605 34.2292 -37.4505 34.2892 -37.8305 34.2392C-38.2005 34.1892 -38.5605 34.0192 -38.8405 33.7692C-39.1305 33.5192 -39.3305 33.1792 -39.4205 32.8092C-39.4905 32.5692 -39.5005 32.3092 -39.4705 32.0592C-39.4305 31.8092 -39.3505 31.5692 -39.2205 31.3492C-39.0905 31.1292 -38.9205 30.9392 -38.7205 30.7892C-38.5105 30.6292 -38.2805 30.5192 -38.0405 30.4592C-37.6705 30.3692 -37.2805 30.3792 -36.9205 30.5092C-36.5605 30.6392 -36.2505 30.8692 -36.0205 31.1692C-35.7905 31.4792 -35.6505 31.8392 -35.6305 32.2192C-35.6105 32.5992 -35.7005 32.9792 -35.9005 33.3092Z"></path><path id="Vector" fill-rule="evenodd" style="fill:#1F7B1F" opacity="1" d="M-37.8619 31.631C-37.6918 31.691 -37.5419 31.801 -37.4319 31.941C-37.3318 32.081 -37.2618 32.261 -37.2519 32.441C-37.2419 32.621 -37.2818 32.791 -37.3819 32.951C-37.4719 33.101 -37.6018 33.231 -37.7618 33.311C-37.9319 33.381 -38.1119 33.411 -38.2818 33.391C-38.4618 33.361 -38.6318 33.281 -38.7618 33.161C-38.9018 33.041 -38.9918 32.891 -39.0418 32.711C-39.0718 32.601 -39.0718 32.481 -39.0618 32.361C-39.0418 32.241 -39.0019 32.131 -38.9418 32.031C-38.8818 31.921 -38.8018 31.831 -38.7118 31.761C-38.6119 31.691 -38.5019 31.641 -38.3918 31.611C-38.2118 31.561 -38.0318 31.571 -37.8619 31.631Z"></path><path id="Vector" fill-rule="evenodd" style="fill:#FFFFFF" opacity="1" d="M-36.2946 30.1253C-36.1246 30.3454 -36.0346 30.6054 -36.0146 30.8753C-36.0046 31.1453 -36.0646 31.4153 -36.2046 31.6453C-36.3446 31.8753 -36.5446 32.0653 -36.7846 32.1853C-37.0346 32.3054 -37.3046 32.3453 -37.5746 32.3054C-37.8346 32.2654 -38.0846 32.1553 -38.2846 31.9753C-38.4946 31.7953 -38.6346 31.5553 -38.7046 31.2953C-38.7446 31.1253 -38.7646 30.9454 -38.7346 30.7654C-38.7146 30.5854 -38.6546 30.4153 -38.5646 30.2554C-38.4746 30.1054 -38.3446 29.9653 -38.2046 29.8554C-38.0646 29.7554 -37.8946 29.6754 -37.7246 29.6254C-37.4646 29.5653 -37.1846 29.5753 -36.9346 29.6653C-36.6746 29.7554 -36.4546 29.9153 -36.2946 30.1253Z"></path><path id="Vector" fill-rule="evenodd" style="fill:#FFFFFF" opacity="1" d="M-36.8083 34.8226C-36.9783 34.8526 -37.1583 34.8226 -37.2983 34.7326C-37.4483 34.6326 -37.5483 34.4926 -37.5883 34.3226C-37.6383 34.1626 -37.6183 33.9826 -37.5283 33.8326C-37.4483 33.6826 -37.3183 33.5726 -37.1483 33.5126C-37.0683 33.4926 -36.9783 33.4826 -36.8883 33.5026C-36.7983 33.5126 -36.7183 33.5426 -36.6383 33.5826C-36.5683 33.6326 -36.4983 33.6926 -36.4483 33.7626C-36.3883 33.8326 -36.3483 33.9126 -36.3283 34.0026C-36.3083 34.0826 -36.2983 34.1726 -36.3183 34.2626C-36.3283 34.3526 -36.3583 34.4326 -36.3983 34.5126C-36.4483 34.5826 -36.5083 34.6526 -36.5783 34.7026C-36.6483 34.7626 -36.7283 34.8026 -36.8083 34.8226Z"></path><path id="Vector" fill-rule="evenodd" style="fill:#63574B" opacity="1" d="M-33.4324,25.1311l-0.0067,0.0046l-0.0033,-0.0046l-0.28,0.2c-0.2,-0.3 -0.52,-0.5 -0.87,-0.57c-0.35,-0.07 -0.72,0.01 -1.02,0.21l-6.28,4.31c-0.3,0.2 -0.5,0.52 -0.57,0.87c-0.06,0.36 0.01,0.72 0.21,1.02l0.73,1.03l-0.2833,0.1954l-0.7267,-1.0254c-0.26,-0.38 -0.35,-0.84 -0.27,-1.28c0.09,-0.45 0.34,-0.84 0.71,-1.1l6.29,-4.31c0.37,-0.25 0.83,-0.34 1.27,-0.26c0.45,0.08 0.84,0.34 1.1,0.71zM-33.0024,26.3511c0.0015,0.0023 0.003,0.0046 0.0045,0.0068l-0.0045,0.0032l-0.72,-1.03l0.2833,-0.1954l0.7267,1.0254zM-39.6279,32.558l6.2755,-4.3069c0.29,-0.21 0.5,-0.52 0.56,-0.88c0.0695,-0.3474 -0.0088,-0.7144 -0.2055,-1.0132l0.2855,-0.1968c0.25,0.38 0.34,0.83 0.26,1.28c-0.08,0.44 -0.33,0.83 -0.7,1.09l-6.29,4.31zM-40.7124,33.1111c-0.44,-0.09 -0.84,-0.34 -1.1,-0.71l0.0067,-0.0046l0.0033,0.0046l0.28,-0.2c0.2,0.3 0.52,0.5 0.87,0.57c0.35,0.06 0.72,-0.01 1.02,-0.22l0.0045,0.0069l-0.0045,0.0031l0.19,0.28c-0.37,0.25 -0.83,0.35 -1.27,0.27z"></path><path id="Vector" fill-rule="evenodd" style="fill:#998877" opacity="1" d="M-42.6253 30.1241C-42.5553 29.7241 -42.3253 29.3641 -41.9953 29.1341L-35.7053 24.8241C-35.3753 24.6041 -34.9553 24.5141 -34.5653 24.5941C-34.1653 24.6641 -33.8153 24.8941 -33.5753 25.2241L-32.8553 26.2641C-32.6353 26.5941 -32.5453 27.0041 -32.6253 27.4041C-32.6953 27.8041 -32.9253 28.1541 -33.2553 28.3941L-39.5353 32.7041C-39.8753 32.9241 -40.2853 33.0141 -40.6853 32.9341C-41.0853 32.8641 -41.4353 32.6341 -41.6653 32.3041L-42.3953 31.2741C-42.6153 30.9341 -42.7053 30.5141 -42.6253 30.1241Z"></path><path id="Vector" fill-rule="evenodd" style="fill:#877767" opacity="1" d="M-40.6853 32.9398C-41.0853 32.8598 -41.4353 32.6298 -41.6653 32.2998L-42.3953 31.2698C-42.5053 31.0998 -42.5853 30.9098 -42.6253 30.7098C-42.6653 30.5098 -42.6653 30.2998 -42.6253 30.0998L-42.0153 30.9898C-41.7853 31.3198 -41.4253 31.5498 -41.0253 31.6298C-40.6353 31.6998 -40.2153 31.6198 -39.8853 31.3898L-33.6053 27.0598C-33.2753 26.8398 -33.0453 26.4898 -32.9653 26.0998L-32.8553 26.2598C-32.6353 26.5998 -32.5453 27.0098 -32.6253 27.4098C-32.6953 27.8098 -32.9253 28.1598 -33.2553 28.3898L-39.5353 32.6998C-39.8753 32.9298 -40.2853 33.0098 -40.6853 32.9398Z"></path><path id="Vector" fill-rule="evenodd" style="fill:#877767" opacity="1" d="M-37.943 39.4109C-37.943 37.3509 -36.643 35.6609 -35.063 35.6609C-33.483 35.6609 -32.193 37.341 -32.193 39.4109C-32.193 41.4809 -33.473 43.1609 -35.063 43.1609C-36.643 43.1609 -37.943 41.4809 -37.943 39.4109Z"></path><path id="Vector" fill-rule="evenodd" style="fill:#FFB413" opacity="1" d="M-45.2743,28.8768l-0.165,0.055l-0.175,-0.005l0.04,-0.88zM-45.4223,28.9323l0.148,-0.0555c0.94,2.6 1.97,4.77 3.45,6.22c1.46,1.44 3.36,2.17 6.08,1.86l0.04,-0.01l-0.02,0.18l0.0013,0.0109l0.0587,-0.1709c0.86,0.29 1.41,0.85 1.69,1.5c0.28,0.66 0.29,1.39 0.12,2.06c-0.18,0.66 -0.54,1.26 -1.03,1.64c-0.494,0.3755 -1.115,0.5166 -1.7856,0.2499c-2.6412,-0.0156 -4.9637,-1.3834 -6.5744,-3.7399c-1.62,-2.36 -2.53,-5.73 -2.37,-9.75l0.1628,0.0091l0.0122,-0.0041zM-45.2643,28.9368l-0.158,-0.0045l-0.012,0.0045l-0.0172,-0.0009l-0.1528,0.0509c0.1058,0.2908 0.2129,0.5769 0.3217,0.8579c-0.0001,-0.2984 0.0059,-0.6011 0.0183,-0.9079zM-36.5643,42.0868c0.55,0.22 1.06,0.11 1.47,-0.2c0.42,-0.32 0.74,-0.85 0.9,-1.45c0.16,-0.6 0.14,-1.26 -0.1,-1.83c-0.236,-0.5605 -0.6945,-1.034 -1.442,-1.3064c0.0107,-0.0012 0.0213,-0.0024 0.032,-0.0036l-0.0187,-0.1591l-0.0513,0.1491c0.0127,0.0045 0.0254,0.009 0.038,0.0136c-2.7933,0.3106 -4.7939,-0.4493 -6.338,-1.9536c-1.3596,-1.3418 -2.3401,-3.26 -3.2083,-5.5021c0.0013,3.5632 0.8788,6.5199 2.3183,8.6421c1.57,2.29 3.81,3.59 6.34,3.59v0.1577zM-36.6943,42.4068c0.00813,0.00333 0.01627,0.00663 0.0244,0.0099c0.0152,0.0001 0.0304,0.0001 0.0456,0.0001v-0.1823z"></path><path id="Vector" fill-rule="evenodd" style="fill:#FFE7AD" opacity="1" d="M-36.6272 42.2426C-41.8172 42.2426 -45.7672 36.9126 -45.4372 28.9326C-43.5572 34.1426 -41.2572 37.7626 -35.7272 37.1226C-32.4372 38.2426 -34.1772 43.2526 -36.6272 42.2426Z"></path><path id="Vector" fill-rule="evenodd" style="fill:#FFFFFF" opacity="1" d="M-34.6321 37.7926C-34.3221 38.1126 -34.1121 38.4926 -34.0021 38.9126C-34.3421 39.0026 -34.7121 38.9726 -35.0321 38.8326C-38.7521 38.8326 -43.2821 35.8826 -45.4121 31.2926C-45.4721 30.5126 -45.4821 29.7226 -45.4421 28.9326C-43.5521 34.1426 -41.2621 37.7626 -35.7221 37.1226C-35.3021 37.2526 -34.9321 37.4826 -34.6321 37.7926Z"></path><path id="Vector" fill-rule="evenodd" style="fill:#FFD26B" opacity="1" d="M-36.6219 42.2354C-40.1219 42.2354 -43.0519 39.8054 -44.4919 35.8054C-42.0619 39.0854 -38.2419 41.2554 -34.1619 40.8954C-34.5919 41.9254 -35.5319 42.6754 -36.6219 42.2354Z"></path><path id="Vector" fill-rule="evenodd" style="fill:#63574B" opacity="1" d="M-38.5421,19.8864c0.28,-0.5 0.66,-0.93 1.13,-1.26c0.46,-0.34 0.99,-0.56 1.55,-0.66c1.05,-0.15 2.11,-0.02 3.1,0.36c0.53,0.2 1.05,0.45 1.54,0.74l0.23,0.13l-0.03,0.27l-0.51,1.29v0.16l-0.12,0.12c-0.37,0.18 -0.41,0.61 -1.63,1.93c-0.9406,0.8439 -1.4021,0.4823 -2.2404,-0.1745c-0.1153,-0.0904 -0.2378,-0.1863 -0.3696,-0.2855c-0.8,-0.62 -1.69,-1.3 -2.61,-1.09l-0.76,0.18l0.27,-0.74c0.12,-0.34 0.27,-0.66 0.45,-0.97zM-33.0721,19.1264c-0.84,-0.33 -1.76,-0.45 -2.66,-0.32c-0.44,0.08 -0.86,0.25 -1.22,0.52c-0.37,0.26 -0.67,0.6 -0.88,0.99l-0.12,0.22c0.97,0.07 1.79,0.7 2.57,1.29c0.0171,0.0128 0.0341,0.0255 0.0511,0.0382c0.7695,0.5751 1.4604,1.0914 1.9789,0.6218c0.07,-0.06 0.33,-0.41 0.62,-0.77c0.28,-0.36 0.58,-0.75 0.76,-0.98l0.08,-1.07c-0.37,-0.21 -0.77,-0.39 -1.18,-0.54z"></path><path id="Vector" fill-rule="evenodd" style="fill:#998877" opacity="1" d="M-33.0805 22.7793C-34.6405 24.1793 -36.3205 20.4693 -38.6205 20.9793C-37.2805 17.3093 -33.7005 18.0993 -31.4405 19.4293L-31.5605 20.9193C-31.8705 21.2193 -32.8705 22.6093 -33.0805 22.7793Z"></path><path id="Vector" fill-rule="evenodd" style="fill:#E35B6A" opacity="1" d="M-33.0891 22.7989C-34.6091 24.1689 -36.2591 20.6189 -38.4991 20.9789C-36.7891 19.4389 -33.6591 19.9889 -31.5591 20.8689L-31.5591 20.9189C-31.8691 21.2189 -32.8691 22.6089 -33.0891 22.7989Z"></path><path id="Vector" fill-rule="evenodd" style="fill:#E87683" opacity="1" d="M-32.0487 21.5254C-32.4687 22.0354 -32.9387 22.6754 -33.0787 22.8054C-34.3487 23.9354 -35.7087 21.6654 -37.4187 21.0854C-35.8087 20.5254 -33.6987 20.9154 -32.0487 21.5254Z"></path><path id="Vector" fill-rule="evenodd" style="fill:#2F2A25" opacity="1" d="M-22.3213,0.69l-0.14,-0.09l0.38,-0.6zM-36.9028,10.3443c2.2748,-3.16313 5.1709,-4.57781 7.8215,-5.6743c1.4,-0.58 2.72,-1.07 3.86,-1.68c1.14,-0.62 2.09,-1.34 2.76,-2.39l0.145,0.095l0.175,0.015c-0.15,1.59 -0.49,2.76 -0.97,3.66c-0.48,0.91 -1.08,1.54 -1.74,2.06c-0.65,0.52 -1.36,0.94 -2.01,1.39c-0.514,0.35049 -1.0098,0.7313 -1.4497,1.21332c2.9771,-0.86161 4.9396,-0.76194 6.7597,-0.57332c0.2172,0.02262 0.432,0.04664 0.646,0.07058c1.6791,0.18777 3.3126,0.37044 5.654,-0.17058l0.32,-0.07l-0.12,0.3c-0.54,1.38 -1.57,2.03 -2.69,2.49c-0.55,0.22 -1.14,0.41 -1.69,0.6c-0.3498,0.1249 -0.6919,0.2577 -1.0139,0.4129c-0.2083,-0.007 -0.4235,-0.0113 -0.6461,-0.0129l-0.0046,0.1635l0.0046,0.0065l-0.0049,0.0015l-0.0001,0.0035l0.095,0.145c0.1764,-0.1126 0.3626,-0.2139 0.5561,-0.3071c2.4408,0.0816 3.9395,0.5211 5.2939,1.0371c1.48,0.56 2.77,1.19 4.97,1.57l0.73004,0.12l-0.76004,0.05l-0.0031,0.0177l0.0431,0.1423l-4.2696,1.26c0.9832,0.4859 1.4459,1.0374 1.8696,1.62c0.46,0.63 0.86,1.28 1.9,1.92l0.54,0.34l-0.64,-0.02l-2.22,-0.06l0.0053,-0.1834l-0.0953,0.1534c-6.67,-4.13 -12.44,-5.27 -17.52,-4.38c-5.08,0.9 -9.49,3.83 -13.43,7.9l-0.125,-0.12l-0.105,0.14c-1.81,-1.42 -1.91,-3.51 -1.63,-5.67c0.15,-1.09 0.39,-2.22 0.58,-3.31c0.2,-1.09 0.34,-2.16 0.28,-3.13l0.175,-0.01l0.115,-0.13c0.9099,0.772 1.5062,1.9336 1.743,3.5241c0.4426,-2.7945 1.3023,-4.4568 2.257,-6.0241c1.18,-1.95 2.5,-3.73 3.32,-7.42c-0.5,3.83 -1.84,5.66 -3.03,7.6c-0.9843,1.6237 -1.8695,3.3394 -2.4829,6.3736c-0.0172,-0.1815 -0.0385,-0.358 -0.0641,-0.5295c-0.0366,0.2313 -0.0703,0.4704 -0.1011,0.7178c0.0205,0.1215 0.0397,0.2456 0.0578,0.3722c0.0348,-0.1918 0.0706,-0.3785 0.1074,-0.5605c0.0544,0.5774 0.066,1.2056 0.0329,1.8864c-0.0346,-0.4701 -0.0812,-0.9117 -0.1403,-1.3259c-0.0747,0.4114 -0.1447,0.8458 -0.2097,1.3059c0.0361,-0.6 0.0873,-1.1575 0.1519,-1.6781c-0.2826,-1.6817 -0.7919,-2.8818 -1.5686,-3.6953c-0.0007,-0.1434 -0.005,-0.2857 -0.0133,-0.4266l-0.175,0.01l-0.115,0.13c0.1053,0.0896 0.2064,0.1851 0.3033,0.2866c0.0043,0.8948 -0.1309,1.8354 -0.3033,2.7834c-0.19,1.11 -0.43,2.22 -0.57,3.29c-0.2829,2.0976 -0.166,3.9668 1.3722,5.2546c3.942,-4.0406 8.3766,-6.9832 13.5078,-7.8846c5.168,-0.9079 11.0129,0.2546 17.7133,4.401l1.5983,0.0504c-0.7528,-0.5782 -1.1167,-1.1543 -1.5016,-1.6814c-0.45,-0.62 -0.94,-1.2 -2.15,-1.7l0.07,-0.155l-0.0015,-0.0051l-0.5185,-0.0199l0.47,-0.14l4.0278,-1.1887c-1.824,-0.3941 -3.0195,-0.9622 -4.3178,-1.4513c-1.44,-0.54 -3.03,-1 -5.83,-1.02l0.005,-0.175l-0.0019,-0.0029l-0.5931,0.1779l0.5,-0.32c0.51,-0.32 1.07,-0.55 1.64,-0.75c0.57,-0.21 1.14,-0.38 1.68,-0.61c0.9889,-0.4029 1.8521,-0.93153 2.3668,-1.97745c-2.2472,0.46417 -3.8639,0.28392 -5.482,0.1035c-0.2012,-0.02242 -0.4023,-0.04486 -0.6048,-0.06605c-1.9,-0.21 -3.93,-0.3 -7.17,0.72l-0.05,-0.165l-0.14,-0.105l0.14,0.11l-0.46,0.32l0.32,-0.43c0.56,-0.74 1.22,-1.27 1.89,-1.73c0.68,-0.47 1.36,-0.86 1.99,-1.37c0.63,-0.5 1.21,-1.1 1.66,-1.95c0.384,-0.7337 0.6805,-1.65664 0.8463,-2.87439c-0.6672,0.82337 -1.5186,1.43334 -2.4863,1.95439c-1.17,0.63 -2.51,1.13 -3.9,1.7c-2.76,1.15 -5.73,2.61 -7.99,6.03l-0.3,0.46l0.1592,-0.5571l-0.0042,-0.0029h-0.175c-0.01,-0.8 0.08,-1.54 0.19,-2.26c0.11,-0.73 0.25,-1.42 0.34,-2.15c0.17,-1.44 0.14,-2.98 -0.36,-5.1c0.85,2.05 0.88,3.65 0.7,5.14c-0.09,0.74 -0.23,1.45 -0.34,2.16c-0.0824,0.53212 -0.148,1.06986 -0.1715,1.6343zM-37.0821,10.9229l0.1408,0.0971l-0.14,-0.1zM-37.0813,10.92h0.17c-0.0025,-0.1954 0.0007,-0.3871 0.0085,-0.5757c-0.111,0.1543 -0.2205,0.3128 -0.3285,0.4757l0.145,0.1zM-15.2113,8.53l-0.16,-0.06c-0.0413,0.10545 -0.0858,0.2062 -0.1332,0.30255c0.1096,-0.02262 0.2206,-0.04678 0.3332,-0.07255zM-21.1913,12.11l0.0931,0.1421l0.002,-0.0006l0.0003,-0.008zM-14.9813,16.09l0.0485,0.1599l0.0015,0.0001zM-10.7713,19.9879v0.1621l0.005,-0.17zM-10.7713,19.9879v-0.0079l0.0053,-0.0078l0.0047,-0.1622l-0.5884,-0.0186c0.147,0.1129 0.3088,0.2259 0.4884,0.3386zM-10.7663,19.98l0.095,-0.15l-0.0947,0.1422zM-44.2813,23.34l0.125,0.12l0.105,-0.14c-0.0401,-0.0314 -0.0794,-0.0632 -0.1178,-0.0954c-0.0375,0.0384 -0.0748,0.0768 -0.1122,0.1154zM-12.948,19.741l-0.0333,-0.001l-0.0047,0.1666l0.0847,-0.1366c-0.0155,-0.0097 -0.0311,-0.0193 -0.0467,-0.029zM-14.8813,16.42l0.4404,-0.13c-0.1305,-0.0645 -0.2703,-0.1279 -0.4204,-0.19l-0.07,0.155zM-10.2413,15.04l0.0269,-0.1523l-0.0569,-0.1877l-0.6822,0.2013c0.2272,0.0491 0.4641,0.0955 0.7122,0.1387zM-28.6713,9.47c0.115,-0.1548 0.2354,-0.29982 0.3603,-0.43668c-0.1797,0.05199 -0.363,0.10749 -0.5503,0.16668l0.05,0.165zM-22.565,1.33561c0.1395,-0.17216 0.271,-0.35365 0.3937,-0.54561l-0.145,-0.095l-0.175,-0.015c-0.0205,0.22763 -0.0452,0.44599 -0.0737,0.65561z"></path><path id="Vector" fill-rule="evenodd" style="fill:#63574B" opacity="1" d="M-28.8161 9.36303C-22.2761 7.30303 -20.5661 9.75303 -15.2061 8.53303C-16.2361 11.163 -19.1361 11.013 -21.0961 12.253C-15.4661 12.293 -14.6461 14.113 -10.2161 14.863L-14.9361 16.253C-12.4361 17.283 -12.9061 18.653 -10.7661 19.983L-12.9861 19.913C-26.3961 11.613 -36.2461 15.293 -44.1561 23.453C-47.6161 20.753 -44.6261 15.473 -44.8561 11.473C-43.5861 12.553 -42.9361 14.423 -43.0761 17.283C-42.5661 8.68303 -38.9161 8.91303 -37.2461 1.47303C-35.5861 5.51303 -37.1461 7.77303 -37.0861 10.923C-32.5161 3.99303 -25.0561 5.01303 -22.3161 0.693031C-22.8661 6.97303 -26.6461 6.47303 -28.8161 9.36303Z"></path><path id="Vector" fill-rule="evenodd" style="fill:#51483F" opacity="1" d="M-44.1575 23.4607C-44.6975 23.0207 -45.1275 22.4707 -45.4275 21.8407C-45.7175 21.2107 -45.8575 20.5107 -45.8275 19.8207L-44.0175 21.8807C-36.5975 11.2907 -26.8775 9.02067 -13.9875 18.2707L-10.7675 19.9607L-12.9875 19.9107C-26.3875 11.6207 -36.2475 15.2907 -44.1575 23.4607Z"></path><path id="Vector" fill-rule="evenodd" style="fill:#51483F" opacity="1" d="M-43.8571 18.9896C-43.4331 16.8056 -43.4981 14.5556 -44.0471 12.4006C-43.3201 13.5146 -42.9701 15.1146 -43.0781 17.2816L-43.8571 18.9896Z"></path><path id="Vector" fill-rule="evenodd" style="fill:#51483F" opacity="1" d="M-37.0856 10.9166L-39.4656 13.8466C-37.3656 9.46661 -38.6256 7.19661 -36.5656 3.87661C-36.1856 6.53661 -37.1256 8.45661 -37.0856 10.9166Z"></path><path id="Vector" fill-rule="evenodd" style="fill:#51483F" opacity="1" d="M-28.8357 9.36376L-33.4757 11.2338C-27.9457 8.23376 -24.3757 4.99376 -22.4157 1.52376C-23.2157 6.93376 -26.7457 6.60376 -28.8357 9.36376Z"></path><path id="Vector" fill-rule="evenodd" style="fill:#51483F" opacity="1" d="M-21.1103 12.2607L-24.5903 11.6807C-20.5103 11.1107 -17.1403 10.1607 -15.2103 8.53072C-16.2303 11.1607 -19.1303 11.0107 -21.1103 12.2607Z"></path><path id="Vector" fill-rule="evenodd" style="fill:#51483F" opacity="1" d="M-14.9261 16.257L-17.2261 14.867C-14.9361 15.517 -12.5061 15.517 -10.2161 14.867L-14.9261 16.257Z"></path><path id="Vector" fill-rule="evenodd" style="fill:#63574B" opacity="1" d="M-23.9889,43.8529l-5.27,6l-0.13,0.15h-0.19l-4.68,-2.02c1.59,-7.13 3.05,-8.9 4.7,-10.02c0.97,-0.66 1.55,-0.37 2.37,0.04c0.81,0.46 1.47,1.15 1.92,1.95c0.98,1.58 1.72,3.33 1.28,3.9zM-24.6489,43.3229c0.24,-0.37 -0.51,-1.63 -1.34,-2.93c-0.38,-0.67 -0.93,-1.22 -1.59,-1.61c-0.0722,-0.0354 -0.1401,-0.071 -0.2051,-0.1051c-0.4301,-0.2256 -0.7329,-0.3845 -1.3149,0.0151c-1.45,0.98 -2.72,2.45 -4.23,8.97l3.54,1.5l5.16,-5.84z"></path><path id="Vector" fill-rule="evenodd" style="fill:#998877" opacity="1" d="M-29.6018 49.6178L-33.7318 47.6278C-29.0618 29.3278 -23.2918 42.2678 -24.3218 43.6078L-29.6018 49.6178Z"></path><path id="Vector" fill-rule="evenodd" style="fill:#877767" opacity="1" d="M-32.3093 48.3038L-30.5093 48.3038L-28.5193 46.0338L-25.2293 42.2838C-25.0693 41.9038 -25.0593 41.4738 -25.1993 41.0838C-25.3593 40.3438 -25.6293 39.6438 -25.9993 38.9838C-25.4593 39.5938 -25.0293 40.2938 -24.7093 41.0438C-24.2293 42.1738 -24.0593 43.2538 -24.3193 43.5938L-26.4393 46.0038L-29.5993 49.6138L-32.3093 48.3038Z"></path><path id="Vector" fill-rule="evenodd" style="fill:#000000" opacity="1" d="M-33.0665,47.5062l-0.0708,0.1464l-0.0392,-0.1664l0.06,-0.01zM-32.4065,49.6362v0.005l-0.005,-0.0021l-0.005,-0.1729l-0.1124,0.0031c0.0931,-0.2997 0.0896,-0.6173 -0.0176,-0.9031c-0.1139,-0.3133 -0.3359,-0.5725 -0.6234,-0.7263c0.0211,-0.0048 0.0422,-0.0094 0.0634,-0.0137l-0.0342,-0.1665l0.0034,-0.0071l0.0008,0.0036l0.07,-0.15c0.39,0.19 0.69,0.53 0.84,0.94c0.15,0.41 0.14,0.86 -0.02,1.26zM-32.4065,49.6412l0.16,0.065l-0.05,0.1l-0.11,0.01zM-35.2865,49.7174l0.16,0.0388c0.0183,-0.0732 0.0396,-0.1454 0.0639,-0.2165l2.5337,-0.0704c-0.0111,0.0359 -0.0237,0.0716 -0.0376,0.1069l0.155,0.0629l0.005,0.1771l-2.88,0.07zM-35.2915,49.715l0.005,0.0012v0.0012l-0.005,-0.0012zM-35.2915,49.7162l0.005,0.17l-0.23,0.01l0.06,-0.22zM-35.4565,49.6762c0.13,-0.55 0.42,-1.04 0.82,-1.43c0.41,-0.39 0.91,-0.65 1.46,-0.76l0.0358,0.1735l-0.0758,0.1565c0.0157,0.0076 0.0313,0.0155 0.0466,0.0237c-0.4645,0.1064 -0.8822,0.331 -1.2266,0.6563c-0.3051,0.2882 -0.5312,0.6482 -0.6661,1.0435l-0.2339,0.0065l0.005,0.1688z"></path><path id="Vector" fill-rule="evenodd" style="fill:#333333" opacity="1" d="M-34.5194 48.3675C-34.1394 48.0075 -33.6594 47.7575 -33.1394 47.6575C-32.7894 47.8375 -32.5194 48.1375 -32.3894 48.5075C-32.2494 48.8675 -32.2594 49.2775 -32.4094 49.6375L-35.2894 49.7175C-35.1694 49.2075 -34.8994 48.7375 -34.5194 48.3675Z"></path><path id="Vector" fill-rule="evenodd" style="fill:#1A1A1A" opacity="1" d="M-32.3268 48.8029C-32.2918 49.0889 -32.3268 49.3799 -32.4298 49.6489L-32.6418 49.6489L-35.3108 49.7159L-33.2498 49.0869L-32.3268 48.8029Z"></path><path id="Vector" fill-rule="evenodd" style="fill:#000000" opacity="1" d="M-30.6417,47.4957l-0.08,0.15l-0.04,-0.17l0.06,-0.01zM-30.8017,47.8057c0.0159,0.0077 0.0315,0.0157 0.047,0.024c-0.4563,0.1064 -0.8828,0.331 -1.227,0.656c-0.2966,0.2882 -0.5285,0.6481 -0.6594,1.0434l-0.2406,0.0066l0.005,0.1689l0.005,0.1711l-0.22,0.01l0.05,-0.22c0.13,-0.55 0.42,-1.04 0.82,-1.43c0.41,-0.38 0.91,-0.65 1.46,-0.76l0.0372,0.1805zM-30.1517,49.5657l0.1552,0.0701v0.0022l-0.0052,-0.0023l0.01,0.17l-2.88,0.07v-0.17l0.17,0.04c0.0168,-0.0732 0.0371,-0.1455 0.0606,-0.2166l2.528,-0.0703c-0.0114,0.0361 -0.0243,0.0718 -0.0386,0.1069zM-29.9965,49.6358l-0.0052,-0.1801l-0.1114,0.0031c0.0921,-0.2919 0.0882,-0.6093 -0.0186,-0.9031c-0.1138,-0.3131 -0.3358,-0.5722 -0.623,-0.726c0.021,-0.0049 0.042,-0.0096 0.063,-0.014l-0.0328,-0.1595l0.0828,-0.1605c0.38,0.19 0.69,0.53 0.84,0.94c0.15,0.41 0.13,0.86 -0.04,1.27zM-29.8817,49.8057h-0.11l-0.0048,-0.1677l0.1548,0.0677z"></path><path id="Vector" fill-rule="evenodd" style="fill:#333333" opacity="1" d="M-32.0946 48.3672C-31.7146 47.9972 -31.2445 47.7472 -30.7246 47.6472C-30.3745 47.8272 -30.1045 48.1272 -29.9646 48.4972C-29.8345 48.8672 -29.8445 49.2672 -29.9946 49.6372L-32.8745 49.7072C-32.7445 49.1972 -32.4745 48.7272 -32.0946 48.3672Z"></path><path id="Vector" fill-rule="evenodd" style="fill:#1A1A1A" opacity="1" d="M-29.9102 48.7926C-29.8772 49.0796 -29.9142 49.3696 -30.0182 49.6386L-30.2292 49.6386L-32.8942 49.7056L-30.8322 49.0766L-29.9102 48.7926Z"></path><path id="Vector" fill-rule="evenodd" style="fill:#63574B" opacity="1" d="M-6.12851,40.6971v0.04c0.87,1.33 1.37,3.06 1.04,3.55l-4.4,5.2l-0.11,0.13h-0.16l-4.01999,-1.65c1.24,-6.1 2.45,-7.63 3.84999,-8.61c0.8,-0.57 1.48,-0.69 2.18,-0.35c0.68,0.41 1.24,1 1.62,1.69zM-5.69851,43.8371c0.2,-0.32 -0.33,-1.62 -1.03,-2.72c-0.32,-0.59 -0.79,-1.08 -1.36,-1.44c-0.48,-0.23 -0.9,-0.11 -1.46,0.29c-1.22999,0.86 -2.28999,2.13 -3.46999,7.74l3.03999,1.22z"></path><path id="Vector" fill-rule="evenodd" style="fill:#998877" opacity="1" d="M-9.80564 49.2361L-13.3656 47.6061C-9.67564 31.9461 -4.54564 42.8761 -5.41564 44.0361L-9.80564 49.2361Z"></path><path id="Vector" fill-rule="evenodd" style="fill:#877767" opacity="1" d="M-9.81434 49.2403L-12.1543 48.1703L-10.6143 48.1403L-8.95434 46.2103L-6.21434 42.9703C-6.08434 42.6303 -6.08434 42.2703 -6.21434 41.9403C-6.36434 41.3103 -6.60434 40.7103 -6.92434 40.1603C-6.45434 40.6803 -6.07434 41.2703 -5.79434 41.9103C-5.36434 42.8603 -5.20434 43.7803 -5.42434 44.0803L-7.18434 46.1403L-9.81434 49.2403Z"></path><path id="Vector" fill-rule="evenodd" style="fill:#000000" opacity="1" d="M-12.7903,47.4748l-0.0709,0.1464l-0.0391,-0.1664l0.0599,-0.01zM-12.0504,49.3748l-0.16,-0.07l0.0003,0.0051l-0.0003,-0.0001l-0.01,-0.175l-0.1131,0.0051c0.0715,-0.2415 0.0604,-0.5009 -0.0268,-0.7451c-0.103,-0.2528 -0.2849,-0.4617 -0.5293,-0.5858c0.0197,-0.005 0.0395,-0.0097 0.0593,-0.0142l-0.0343,-0.1665l0.0034,-0.0071l0.0009,0.0036l0.07,-0.15c0.34,0.16 0.6099,0.44 0.75,0.8c0.14,0.35 0.13,0.75 -0.0101,1.1zM-12.2003,49.4848l-0.0098,-0.1749l0.1597,0.0649l-0.04,0.1zM-14.6655,49.4148l-0.1648,-0.04c0.1,-0.47 0.34,-0.9 0.68,-1.24c0.3499,-0.34 0.78,-0.57 1.25,-0.68l0.0357,0.1735l-0.0757,0.1565c0.0172,0.0077 0.0341,0.0157 0.0507,0.0242c-0.3781,0.0959 -0.7351,0.2907 -1.0107,0.5758c-0.2452,0.237 -0.4236,0.5275 -0.5352,0.8495l2.102,-0.0944c-0.0105,0.0354 -0.0228,0.0704 -0.0368,0.1049l0.1599,0.065l0.0101,0.175l-2.46,0.11zM-14.6655,49.4148l0.1652,0.04c0.0182,-0.0749 0.0398,-0.1485 0.0648,-0.2205l-0.2348,0.0105z"></path><path id="Vector" fill-rule="evenodd" style="fill:#333333" opacity="1" d="M-14.0233 48.2565C-13.7033 47.9465 -13.3033 47.7265 -12.8633 47.6265C-12.5633 47.7665 -12.3233 48.0265 -12.2033 48.3365C-12.0833 48.6465 -12.0833 48.9965 -12.2133 49.3065L-14.6633 49.4165C-14.5633 48.9765 -14.3433 48.5765 -14.0233 48.2565Z"></path><path id="Vector" fill-rule="evenodd" style="fill:#1A1A1A" opacity="1" d="M-12.1332 48.5965C-12.0992 48.8405 -12.1262 49.0885 -12.2112 49.3185L-12.3912 49.3185L-14.6642 49.4165L-12.9372 48.8495L-12.1332 48.5965Z"></path><path id="Vector" fill-rule="evenodd" style="fill:#000000" opacity="1" d="M-10.7305,47.4337l-0.0708,0.1464l-0.0392,-0.1664l0.06,-0.01zM-9.99049,49.3237l-0.16031,-0.0651l-0.0097,-0.1649l-0.1161,0.0047c0.0748,-0.244 0.0645,-0.5061 -0.0239,-0.7447c-0.103,-0.2528 -0.2848,-0.4617 -0.5292,-0.5858c0.0197,-0.005 0.0394,-0.0098 0.0592,-0.0142l-0.0343,-0.1665l0.0035,-0.0071l0.0008,0.0036l0.07,-0.15c0.34,0.16 0.61,0.44 0.75001,0.8c0.14,0.35 0.13,0.74 -0.01,1.09zM-12.6005,49.3687l-0.17,-0.035c0.1,-0.47 0.34,-0.9 0.69,-1.24c0.34,-0.34 0.77,-0.58 1.24,-0.68l0.0357,0.1735l-0.0757,0.1565c0.0172,0.0076 0.0342,0.0157 0.0508,0.0242c-0.3782,0.0958 -0.7351,0.2901 -1.0108,0.5658c-0.2442,0.2442 -0.4221,0.5348 -0.5284,0.8501l2.0923,-0.0854c-0.0098,0.0321 -0.0211,0.0639 -0.0339,0.0953l0.1597,0.0649l0.0003,0.0051l0.16001,0.06l-0.04001,0.11h-0.11l-2.45,0.11zM-12.6005,49.3687l0.17,0.035c0.0168,-0.0744 0.0373,-0.1478 0.0616,-0.2199l-0.2416,0.0099z"></path><path id="Vector" fill-rule="evenodd" style="fill:#333333" opacity="1" d="M-11.9634 48.2152C-11.6434 47.8952 -11.2434 47.6752 -10.8034 47.5852C-10.5034 47.7252 -10.2634 47.9852 -10.1434 48.2952C-10.0234 48.6052 -10.0234 48.9552 -10.1534 49.2652L-12.6034 49.3752C-12.5034 48.9352 -12.2834 48.5352 -11.9634 48.2152Z"></path><path id="Vector" fill-rule="evenodd" style="fill:#1A1A1A" opacity="1" d="M-10.0773 48.5501C-10.0383 48.7931 -10.0633 49.0421 -10.1493 49.2721L-10.3293 49.2721L-12.6023 49.3701L-10.8763 48.8031L-10.0773 48.5501Z"></path><path id="Vector" fill-rule="evenodd" style="fill:#63574B" opacity="1" d="M-12.5359,43.8618c-0.59,-0.3 -1.09,-0.73 -1.48,-1.27c-0.88,-1.16 -1.35,-2.58 -1.35,-4.04c0,-1.46 0.47,-2.88 1.35,-4.04c0.4,-0.53 0.91,-0.95 1.49,-1.25c0.59,-0.3 1.24,-0.47 1.89,-0.48c0.65998,0.01 1.29998,0.18 1.88998,0.48c0.58,0.29 1.09,0.72 1.49,1.25c0.88,1.16 1.35,2.58 1.35,4.04c0,1.46 -0.47,2.88 -1.35,4.04c-0.39,0.54 -0.89,0.97 -1.48,1.27c-0.59,0.31 -1.24,0.46 -1.89998,0.46c-0.66,0 -1.31,-0.15 -1.9,-0.46zM-9.10592,43.1218c0.47,-0.24 0.87,-0.6 1.18,-1.03c0.76,-1.02 1.17,-2.26 1.17,-3.54c0,-1.27 -0.41,-2.51 -1.17,-3.54c-0.31,-0.43 -0.71,-0.79 -1.18,-1.03c-0.47,-0.25 -0.99998,-0.38 -1.52998,-0.38c-0.53,0 -1.05,0.13 -1.52,0.38c-0.47,0.24 -0.88,0.6 -1.18,1.03c-0.76,1.03 -1.17,2.27 -1.17,3.54c0,1.28 0.41,2.52 1.17,3.54c0.3,0.43 0.71,0.79 1.18,1.03c0.47,0.25 0.99,0.38 1.52,0.38c0.53,0 1.05998,-0.13 1.52998,-0.38z"></path><path id="Vector" fill-rule="evenodd" style="fill:#998877" opacity="1" d="M-14.9399 38.3418C-14.9399 35.2818 -12.9999 32.7818 -10.6299 32.7818C-8.2599 32.7818 -6.3299 35.2818 -6.3299 38.3418C-6.3299 41.4018 -8.2599 43.8918 -10.6299 43.8918C-12.9999 43.8918 -14.9399 41.4018 -14.9399 38.3418Z"></path><path id="Vector" fill-rule="evenodd" style="fill:#877767" opacity="1" d="M-9.42436 32.983C-8.97436 33.153 -8.56436 33.403 -8.20436 33.723C-7.44436 34.413 -6.90436 35.293 -6.61436 36.273C-6.41436 36.943 -6.31436 37.643 -6.31436 38.343C-6.31436 41.413 -8.24436 43.893 -10.6144 43.893C-11.2544 43.873 -11.8844 43.693 -12.4344 43.373C-12.9944 43.063 -13.4644 42.613 -13.8044 42.073C-13.4244 42.213 -13.0244 42.283 -12.6144 42.283C-10.9044 42.283 -9.42436 40.993 -8.73436 39.123C-8.45436 38.353 -8.30436 37.533 -8.31436 36.713C-8.31436 35.863 -8.46436 35.023 -8.76436 34.233C-8.93436 33.793 -9.15436 33.373 -9.42436 32.983Z"></path></g></g></g><defs><rect id="path_0" x="0" y="0" width="90" height="70" /></defs></svg>