<svg xmlns="http://www.w3.org/2000/svg" xmlns:xlink="http://www.w3.org/1999/xlink" width="90" height="70" viewBox="0 0 90 70" fill="none"><rect x="0" y="0" width="0" height="0" fill="rgba(249, 249, 249, 1)" /><g opacity="1"  transform="translate(0 0)  rotate(0)"><rect fill="#FFFFFF" opacity="1" transform="translate(0 0)  rotate(0)" x="0" y="0" width="90" height="70" /><mask id="bg-mask-0" fill="white"><use xlink:href="#path_0"></use></mask><g mask="url(#bg-mask-0)" ><path id="矩形 1" fill-rule="evenodd" style="fill:#44C7EB" opacity="1" d="M69 0C78.43 0 83.14 0 86.07 2.93L86.07 2.93C89 5.86 89 10.57 89 20L89 50C89 59.43 89 64.14 86.07 67.07L86.07 67.07C83.14 70 78.43 70 69 70L19 70C9.57 70 4.86 70 1.93 67.07L1.93 67.07C-1 64.14 -1 59.43 -1 50L-1 20C-1 10.57 -1 5.86 1.93 2.93L1.93 2.93C4.86 0 9.57 0 19 0L69 0Z"></path><g opacity="1" transform="translate(6 5)  rotate(0)"><text><tspan x="0" y="12.026" font-size="14" line-height="0" fill="#FFFFFF" opacity="1" font-family="HuXiaoBoNanShen-Regular" font-weight="Regular" letter-spacing="0"  >更</tspan><tspan x="0" y="26.683999999999997" font-size="14" line-height="0" fill="#FFFFFF" opacity="1" font-family="HuXiaoBoNanShen-Regular" font-weight="Regular" letter-spacing="0" >新</tspan></text></g><g opacity="1" transform="translate(17 36)  rotate(0)"><text><tspan x="0" y="12.026" font-size="14" line-height="0" fill="#FFFFFF" opacity="1" font-family="HuXiaoBoNanShen-Regular" font-weight="Regular" letter-spacing="0"  >日</tspan><tspan x="0" y="26.683999999999997" font-size="14" line-height="0" fill="#FFFFFF" opacity="1" font-family="HuXiaoBoNanShen-Regular" font-weight="Regular" letter-spacing="0" >记</tspan></text></g><g opacity="1"  transform="translate(43 42)  rotate(0)"><path id="Vector" fill-rule="evenodd" style="fill:#000000" opacity="1" d="M30.9905,14.9511l0.09,0.01l-0.0142,0.1182l-0.1158,-0.0482zM31.0663,15.0793l0.0042,0.0018l0.01,-0.12c0.58,0.05 1.03,0.48 1.32,0.99c0.3,0.51 0.45,1.14 0.43,1.66l-0.1312,-0.0053l0.1212,0.0253l-1.54,9.33l-0.11,0.64l-0.14,-0.64c-0.0429,-0.2029 -0.0862,-0.406 -0.1296,-0.6091c-0.7855,-3.6815 -1.5805,-7.4069 0.0496,-11.3209l0.1156,0.0502zM31.1426,15.2227c0.0125,-0.0305 0.0251,-0.0611 0.0379,-0.0916l-0.1144,-0.0498l-0.0156,0.1298c0.0311,0.0026 0.0618,0.0064 0.0921,0.0116zM32.5805,17.5811l0.0007,0.0001c0.0153,-0.4664 -0.1245,-1.0369 -0.3907,-1.5101c-0.2525,-0.4396 -0.61,-0.7742 -1.0479,-0.8484c-1.5454,3.7808 -0.7848,7.3879 -0.002,11.035zM31.1416,26.9388l0.1389,-0.0277c-0.0418,-0.1965 -0.084,-0.3929 -0.1261,-0.5891c-0.0046,-0.0215 -0.0092,-0.0429 -0.0138,-0.0643l-0.1101,0.6634zM31.1416,26.9388l-0.1111,0.0223l0.1274,-0.0196l0.1226,0.0196l-0.12,-0.02l-0.0026,0.0004zM32.5805,17.6011l0.1188,0.0047l-0.1181,-0.0246c-0.0002,0.0067 -0.0004,0.0133 -0.0007,0.0199z"></path><path id="Vector" fill-rule="evenodd" style="fill:#58561A" opacity="1" d="M32.7044 17.601C32.7444 16.611 32.1244 15.181 31.0644 15.081C29.3644 19.171 30.3344 23.041 31.1544 26.931L32.7044 17.601Z"></path><path id="Vector" fill-rule="evenodd" style="fill:#3F3D14" opacity="1" d="M31.2301 26.5194L32.6801 17.7194C30.9301 13.0694 31.0501 25.6294 31.2301 26.5194Z"></path><path id="Vector" fill-rule="evenodd" style="fill:#D6D6D6" opacity="1" d="M31.1326 26.5041C30.9446 24.5821 30.4686 22.4011 30.4816 20.4491C30.5176 18.6641 30.7286 16.8871 31.1126 15.1431C29.4876 19.0501 30.3416 22.7861 31.1326 26.5041Z"></path><path id="Vector" fill-rule="evenodd" style="fill:#000000" opacity="1" d="M27.1698,14.8744l0.09,0.02l-0.0236,0.1132l-0.1064,-0.0532zM27.2362,15.0076l0.0044,0.0022l0.0192,-0.1154c0.58,0.1 0.99,0.55 1.24,1.09c0.25,0.53 0.35,1.17 0.29,1.69l-0.1731,-0.0207l0.1631,0.0407l-2.28,9.17l-0.16,0.64l-0.08,-0.65c-0.0246,-0.1865 -0.0496,-0.3731 -0.0745,-0.5598c-0.5019,-3.757 -1.0085,-7.5486 0.9445,-11.3402l0.1055,0.0576zM27.3498,15.0644l-0.1092,-0.0546l-0.0008,0.0046l-0.0045,-0.0024l-0.0255,0.1224c0.0318,0.0054 0.0631,0.0122 0.0939,0.0203c0.0152,-0.0301 0.0306,-0.0602 0.0461,-0.0903zM28.5398,17.6344l0.0012,0.0003c0.0575,-0.4684 -0.0328,-1.0537 -0.2612,-1.5503c-0.2238,-0.4568 -0.5518,-0.818 -0.9761,-0.9297c-1.8475,3.6593 -1.3724,7.3188 -0.8873,11.02zM26.4998,26.8144c-0.0266,-0.2062 -0.0537,-0.4124 -0.0807,-0.6184c-0.0009,-0.0071 -0.0018,-0.0142 -0.0027,-0.0213l-0.1566,0.6297l0.12,0.03zM28.5398,17.6444l0.0769,0.0093l-0.0757,-0.019c-0.0004,0.0033 -0.0008,0.0065 -0.0012,0.0097z"></path><path id="Vector" fill-rule="evenodd" style="fill:#58561A" opacity="1" d="M28.6638 17.6623C28.7838 16.6723 28.2838 15.1923 27.2338 15.0123C25.2138 18.9523 25.8638 22.8923 26.3738 26.8323L28.6638 17.6623Z"></path><path id="Vector" fill-rule="evenodd" style="fill:#3F3D14" opacity="1" d="M26.4742 26.4291L28.6342 17.7691C27.2642 12.9991 26.3742 25.5191 26.4742 26.4291Z"></path><path id="Vector" fill-rule="evenodd" style="fill:#D6D6D6" opacity="1" d="M26.3893 26.4066C26.3593 24.4766 26.0493 22.2566 26.2293 20.3166C26.4093 18.5366 26.7593 16.7866 27.2793 15.0766C25.3493 18.8466 25.8993 22.6366 26.3893 26.4066Z"></path><path id="Vector" fill-rule="evenodd" style="fill:#000000" opacity="1" d="M22.1566,14.8143l0.09,0.02c0.57,0.15 0.95,0.63 1.16,1.18c0.21,0.56 0.26,1.2 0.16,1.71l-0.1588,-0.0318l-0.0812,-0.0282l-0.0037,0.0112l-0.0063,-0.0012c0.1,-0.46 0.05,-1.06 -0.14,-1.57c-0.1876,-0.4784 -0.4895,-0.8599 -0.9058,-1.0045c0.0151,-0.0252 0.0304,-0.0504 0.0458,-0.0755l-0.1018,-0.063l0.0018,-0.007l-0.11,-0.06zM20.3566,26.6943c-0.0106,-0.1915 -0.0216,-0.383 -0.0326,-0.5748c-0.2159,-3.7743 -0.4348,-7.5994 1.7826,-11.2252l0.1082,0.067l-0.0282,0.113c0.0286,0.0074 0.0566,0.0159 0.0842,0.0255c-2.1075,3.5049 -1.913,7.2025 -1.7008,10.9273l-0.2034,0.6172l0.119,0.0396zM20.4866,26.6843l-0.001,-0.0004l0.121,-0.0096c-0.0105,-0.1895 -0.0213,-0.3788 -0.0321,-0.5681l-0.0045,-0.0791l2.7529,-8.3516l0.0849,0.017l0.1488,0.0518l-2.95,8.98l-0.21,0.62l-0.04,-0.65zM23.4466,17.7043l0.12,0.02l-0.01,0.02z"></path><path id="Vector" fill-rule="evenodd" style="fill:#58561A" opacity="1" d="M23.4408 17.7068C23.6308 16.7268 23.2508 15.2168 22.2108 14.9568C19.9008 18.7368 20.2608 22.7168 20.4808 26.6868L23.4408 17.7068Z"></path><path id="Vector" fill-rule="evenodd" style="fill:#3F3D14" opacity="1" d="M20.6142 26.2863L23.4042 17.8063C22.3842 12.9463 20.5742 25.3663 20.6142 26.2863Z"></path><path id="Vector" fill-rule="evenodd" style="fill:#D6D6D6" opacity="1" d="M20.5261 26.2556C20.6361 24.3256 20.4861 22.0956 20.8161 20.1656C21.1261 18.4156 21.6061 16.6856 22.2561 15.0256C20.0361 18.6356 20.3161 22.4556 20.5261 26.2556Z"></path><path id="Vector" fill-rule="evenodd" style="fill:#000000" opacity="1" d="M45.4373,16.424c-0.081,0.0748 -0.1625,0.1499 -0.2447,0.2253c-1.9777,0.055 -4.0935,0.5154 -6.2453,1.0747c-2.2024,0.5724 -4.4519,1.2579 -6.6389,1.7365c-0.0405,-0.0511 -0.0809,-0.1033 -0.1211,-0.1565l-0.101,0.0757l-0.029,-0.1257c2.24,-0.47 4.54,-1.18 6.82,-1.77c2.28,-0.6 4.53,-1.08 6.64,-1.09h0.32l-0.23,0.22l-0.09,-0.1006zM45.6073,16.614c-1.96,1.8 -4.32,3.86 -6.71,4.8c-1.2,0.46 -2.41,0.66 -3.59,0.39c-1.17,-0.27 -2.3,-1 -3.32,-2.35l-0.12,-0.15l0.19,-0.05l0.0257,0.1283l0.0033,-0.0026l0.001,0.0043l-0.0035,0.0025l0.0235,0.1175c0.067,-0.0143 0.134,-0.0288 0.2011,-0.0435c0.9567,1.2088 1.994,1.8537 3.0589,2.0935c1.11,0.26 2.27,0.08 3.44,-0.38c2.2434,-0.8724 4.4775,-2.7742 6.3853,-4.5247c0.1086,-0.003 0.2169,-0.0048 0.3247,-0.0053v-0.12zM31.9873,19.454l0.0965,-0.0675l-0.0008,-0.0042z"></path><path id="Vector" fill-rule="evenodd" style="fill:#333333" opacity="1" d="M32.0846 19.369C36.1246 24.679 41.6046 20.129 45.5246 16.509C41.3346 16.529 36.5646 18.419 32.0846 19.369Z"></path><path id="Vector" fill-rule="evenodd" style="fill:#1A1A1A" opacity="1" d="M33.8426 20.409C33.4726 20.309 33.1226 20.159 32.7926 19.969C32.6326 19.879 32.4826 19.779 32.3326 19.669C32.4326 19.789 32.5326 19.909 32.6326 20.019C32.8426 20.239 33.0626 20.449 33.2926 20.649C33.9826 21.229 34.8126 21.599 35.6926 21.739C39.0226 22.249 42.6826 19.139 45.5226 16.509C44.5326 16.519 43.5526 16.619 42.5726 16.779L42.0926 17.199C40.1926 18.769 38.0926 20.169 36.0426 20.509C35.3126 20.639 34.5626 20.599 33.8426 20.409Z"></path><path id="Vector" fill-rule="evenodd" style="fill:#000000" opacity="1" d="M35.413,17.0321c-0.41,-0.2 -0.87,-0.27 -1.32,-0.21c-0.29,0.04 -0.58,0.14 -0.84,0.3c-0.26,0.15 -0.49,0.35 -0.67,0.59c-0.18,0.24 -0.31,0.52 -0.39,0.81c-0.07,0.29 -0.09,0.6 -0.05,0.89c0.06,0.45 0.26,0.88 0.56,1.21c0.3,0.34 0.7,0.59 1.14,0.7c0.44,0.11 0.9,0.09 1.33,-0.06c0.43,-0.15 0.8,-0.42 1.07,-0.78c0.28,-0.36 0.44,-0.8 0.46,-1.25c0.03,-0.46 -0.08,-0.91 -0.31,-1.3c-0.23,-0.39 -0.57,-0.71 -0.98,-0.9zM31.953,18.4621c0.08,-0.33 0.23,-0.63 0.43,-0.9c0.2,-0.26 0.45,-0.49 0.74,-0.66c0.29,-0.17 0.61,-0.28 0.94,-0.33c0.5,-0.07 1,0.01 1.46,0.23c0.45,0.22 0.83,0.57 1.08,1c0.26,0.44 0.38,0.94 0.35,1.44c-0.03,0.5 -0.21,0.99 -0.51,1.39c-0.3,0.4 -0.72,0.7 -1.19,0.87c-0.48,0.16 -0.99,0.19 -1.48,0.06c-0.48,-0.13 -0.92,-0.39 -1.26,-0.77c-0.33,-0.38 -0.55,-0.84 -0.62,-1.34c-0.04,-0.33 -0.02,-0.67 0.06,-0.99z"></path><path id="Vector" fill-rule="evenodd" style="fill:#333333" opacity="1" d="M32.077 18.4862C31.997 18.7962 31.977 19.1162 32.017 19.4362C32.087 19.9062 32.287 20.3562 32.607 20.7062C32.927 21.0662 33.347 21.3162 33.807 21.4462C34.267 21.5662 34.757 21.5462 35.207 21.3862C35.667 21.2262 36.057 20.9362 36.347 20.5562C36.637 20.1762 36.797 19.7162 36.827 19.2362C36.857 18.7562 36.737 18.2862 36.497 17.8662C36.257 17.4562 35.897 17.1262 35.467 16.9162C35.037 16.7062 34.557 16.6362 34.077 16.6962C33.767 16.7462 33.467 16.8462 33.187 17.0062C32.917 17.1762 32.677 17.3862 32.487 17.6362C32.297 17.8962 32.157 18.1862 32.077 18.4862Z"></path><path id="Vector" fill-rule="evenodd" style="fill:#1A1A1A" opacity="1" d="M35.9318 20.971C36.2618 20.711 36.5218 20.361 36.6718 19.971C36.8218 19.581 36.8718 19.151 36.8118 18.731C36.7518 18.321 36.5818 17.921 36.3218 17.591C36.1718 18.001 35.9118 18.371 35.5718 18.641C35.2318 18.921 34.8218 19.101 34.3918 19.161C33.9718 19.221 33.5418 19.161 33.1518 19.011C32.7518 18.851 32.4118 18.591 32.1518 18.261C32.0018 18.651 31.9618 19.081 32.0318 19.491C32.1118 19.911 32.2818 20.301 32.5518 20.631C32.8218 20.951 33.1718 21.201 33.5618 21.351C33.9618 21.501 34.3818 21.541 34.8018 21.481C35.2118 21.411 35.6118 21.241 35.9318 20.971Z"></path><path id="Vector" fill-rule="evenodd" style="fill:#000000" opacity="1" d="M31.6665,17.5576c-0.41,-0.2 -0.87,-0.27 -1.32,-0.21c-0.29,0.04 -0.58,0.14 -0.84,0.3c-0.26,0.15 -0.49,0.35 -0.67,0.59c-0.18,0.24 -0.31,0.52 -0.39,0.81c-0.07,0.29 -0.09,0.6 -0.05,0.89c0.06,0.45 0.26,0.88 0.56,1.21c0.3,0.34 0.7,0.59 1.14,0.7c0.44,0.11 0.9,0.09 1.33,-0.06c0.43,-0.15 0.8,-0.42 1.07,-0.78c0.28,-0.36 0.44,-0.8 0.46,-1.25c0.03,-0.46 -0.08,-0.91 -0.31,-1.3c-0.23,-0.39 -0.57,-0.71 -0.98,-0.9zM28.2065,18.9876c0.08,-0.33 0.23,-0.63 0.43,-0.9c0.2,-0.26 0.45,-0.49 0.74,-0.66c0.29,-0.17 0.61,-0.28 0.94,-0.33c0.5,-0.07 1,0.01 1.46,0.23c0.45,0.22 0.83,0.57 1.08,1c0.26,0.44 0.38,0.94 0.35,1.44c-0.03,0.5 -0.21,0.99 -0.51,1.39c-0.3,0.4 -0.72,0.7 -1.19,0.87c-0.48,0.16 -0.99,0.19 -1.48,0.06c-0.48,-0.13 -0.92,-0.39 -1.26,-0.77c-0.33,-0.38 -0.55,-0.84 -0.62,-1.34c-0.04,-0.33 -0.02,-0.67 0.06,-0.99z"></path><path id="Vector" fill-rule="evenodd" style="fill:#333333" opacity="1" d="M28.3305 19.0118C28.2505 19.3218 28.2305 19.6418 28.2705 19.9618C28.3405 20.4318 28.5405 20.8818 28.8605 21.2318C29.1805 21.5918 29.6005 21.8418 30.0605 21.9718C30.5205 22.0918 31.0105 22.0718 31.4605 21.9118C31.9205 21.7518 32.3105 21.4618 32.6005 21.0818C32.8905 20.7018 33.0505 20.2418 33.0805 19.7618C33.1105 19.2818 32.9905 18.8118 32.7505 18.3918C32.5105 17.9818 32.1505 17.6518 31.7205 17.4418C31.2905 17.2318 30.8105 17.1618 30.3305 17.2218C30.0205 17.2718 29.7205 17.3718 29.4405 17.5318C29.1705 17.7018 28.9305 17.9118 28.7405 18.1618C28.5505 18.4218 28.4105 18.7118 28.3305 19.0118Z"></path><path id="Vector" fill-rule="evenodd" style="fill:#1A1A1A" opacity="1" d="M31.062 22.0087C31.472 21.9387 31.872 21.7687 32.192 21.4987C32.5219 21.2387 32.782 20.8887 32.9319 20.4987C33.082 20.1087 33.132 19.6787 33.0719 19.2587C33.012 18.8487 32.8419 18.4487 32.582 18.1187C32.4319 18.5287 32.172 18.8987 31.832 19.1687C31.482 19.4487 31.072 19.6287 30.642 19.6887C30.222 19.7387 29.792 19.6887 29.402 19.5287C29.012 19.3687 28.672 19.1187 28.412 18.7887C28.262 19.1787 28.222 19.6087 28.292 20.0187C28.372 20.4387 28.542 20.8287 28.812 21.1587C29.082 21.4787 29.432 21.7287 29.822 21.8787C30.222 22.0287 30.642 22.0687 31.062 22.0087Z"></path><path id="Vector" fill-rule="evenodd" style="fill:#000000" opacity="1" d="M44.6425,13.5617l0.03,0.1l-0.09,0.05c-1.43,0.85 -4.43,1.81 -7.74,2.43c-3.31,0.62 -6.95,0.91 -9.65,0.4l-0.09,-0.07c-0.6,-1.4 -1.18,-2.59 -1.31,-3.82c-0.12,-1.23 0.22,-2.49 1.42,-4.02004l0.1022,0.07667l-0.0422,-0.12667c3.7,-1.14 7.38,-1.77 10.48,-1.17c3.1,0.59 5.6,2.42 6.89,6.15004zM44.5225,13.6017l-0.0024,0.0008l-0.0576,-0.1008c-0.0295,0.0175 -0.0596,0.0352 -0.0905,0.0529c-1.2683,-3.58121 -3.6737,-5.32759 -6.6695,-5.90294c-3.0196,-0.57801 -6.6451,0.02583 -10.3122,1.15829c0.0074,-0.00942 0.0148,-0.01885 0.0222,-0.02829l-0.0978,-0.07333l0.0378,0.11333c0.0126,-0.00391 0.0252,-0.00781 0.0378,-0.01171c-1.1519,1.47695 -1.4671,2.66905 -1.3478,3.82175c0.118,1.151 0.662,2.2827 1.2604,3.6712c-0.0202,-0.0037 -0.0403,-0.0075 -0.0604,-0.0112l-0.0261,0.1304l-0.1139,0.0496l0.1134,-0.0473l-0.0234,0.1173l0.03,-0.12l-0.0066,0.0027l0.0005,-0.0023l0.1161,-0.0504c-0.0099,-0.023 -0.0198,-0.046 -0.0296,-0.0688c2.6441,0.4845 6.2146,0.2041 9.4896,-0.4012c3.23,-0.6069 6.1535,-1.5299 7.5795,-2.3471c0.0102,0.0289 0.0204,0.0579 0.0305,0.0871l0.1176,-0.0392l0.0624,0.1092z"></path><path id="Vector" fill-rule="evenodd" style="fill:#818026" opacity="1" d="M27.3165 8.71914C24.9365 11.7391 26.0065 13.6191 27.2165 16.4291C32.5665 17.4391 41.7065 15.2991 44.5265 13.6191C41.9765 6.22914 34.6865 6.41914 27.3165 8.71914Z"></path><path id="Vector" fill-rule="evenodd" style="fill:#FFFFFF" opacity="1" d="M44.3664 13.6958L44.5264 13.6058C41.9764 6.22581 34.6864 6.42581 27.3164 8.70581C26.1864 10.1358 25.8364 11.3058 25.9064 12.4458C25.9764 11.4758 26.3664 10.4458 27.3164 9.23581C34.5364 6.99581 41.6764 6.76581 44.3664 13.6958Z"></path><path id="Vector" fill-rule="evenodd" style="fill:#000000" opacity="1" d="M32.1968,8.68891l-0.03,0.12l-0.1,0.07c0.0085,0.01259 0.0169,0.02517 0.0253,0.03776c-2.2975,-0.62471 -4.5362,-0.53137 -6.7159,0.53278l0.0006,-0.00054l-0.075,-0.1l-0.055,-0.11c2.26,-1.11 4.59,-1.21 6.95,-0.55zM31.0435,17.9189l0.0033,0.08c-3.2,0.21 -5.4,-1.37 -6.43,-3.31c-1.03,-1.92 -0.9,-4.23 0.61,-5.43999l0.075,0.1l0.055,0.11c0.0065,-0.00316 0.0129,-0.00632 0.0194,-0.00946c-1.3794,1.11015 -1.5392,3.26975 -0.5394,5.12945c0.9779,1.8461 3.091,3.3635 6.1802,3.1812zM32.2668,8.73891c1.56,2.31999 1.77,4.54999 1.34,6.23999c-0.22,0.84 -0.59,1.55 -1.05,2.08c-0.44,0.52 -0.97,0.86 -1.5,0.94l-0.0133,-0.08l-0.0067,-0.16c-0.0066,0.0004 -0.0132,0.0008 -0.0198,0.0012l-0.0002,-0.0012c0.45,-0.08 0.93,-0.37 1.36,-0.87c0.42,-0.49 0.78,-1.16 0.99,-1.97c0.4077,-1.611 0.2221,-3.7559 -1.2747,-6.00224c0.0149,0.00406 0.0298,0.00814 0.0447,0.01225l0.03,-0.12l0.08,-0.11z"></path><path id="Vector" fill-rule="evenodd" style="fill:#818026" opacity="1" d="M25.3102 9.34308C22.4202 11.6731 24.7502 18.2831 31.0502 17.8831C32.9801 17.5631 35.2402 13.3931 32.1702 8.81308C29.8302 8.16308 27.5402 8.25308 25.3102 9.34308Z"></path><path id="Vector" fill-rule="evenodd" style="fill:#FFFFFF" opacity="1" d="M31.7728 8.71096C29.7618 8.17896 27.6328 8.33496 25.7208 9.15396C27.7228 8.84996 29.7468 8.70096 31.7728 8.71096Z"></path><path id="Vector" fill-rule="evenodd" style="fill:#FFFFFF" opacity="1" d="M30.4383 8.93259C30.4383 8.64259 29.7583 8.40259 28.8983 8.40259C28.0383 8.40259 27.3483 8.63259 27.3483 8.93259C27.3483 9.22259 28.0483 9.45259 28.8983 9.45259C29.7383 9.45259 30.4383 9.21259 30.4383 8.93259Z"></path><path id="Vector" fill-rule="evenodd" style="fill:#686620" opacity="1" d="M24.1842 11.1441C23.4942 14.0141 25.9942 18.1941 31.0442 17.8841C32.7842 17.5941 34.7842 14.2041 32.9542 10.2141C32.7542 12.3841 31.4942 13.9241 30.3442 14.1141C27.3542 14.3041 25.2542 12.9141 24.1842 11.1441Z"></path><path id="Vector" fill-rule="evenodd" style="fill:#000000" opacity="1" d="M32.4938,8.83569c3.71,-1.14 6.66,-0.95 9.03,0.36c2.36,1.30001 4.11,3.71001 5.44,6.94001l-0.1191,0.0466l-0.0609,-0.1066c-0.0296,0.0176 -0.0596,0.0351 -0.0902,0.0526c-1.3049,-3.1503 -3.0133,-5.4654 -5.2898,-6.71261c-2.2822,-1.26562 -5.1502,-1.46861 -8.8021,-0.35164c0.0073,-0.00945 0.0147,-0.0189 0.022,-0.02836l-0.0931,-0.0735zM32.4938,8.83569l0.03,0.12l-0.07,-0.1zM30.9338,17.7457c-0.61,-1.43 -0.84,-2.88 -0.61,-4.36c0.23,-1.48 0.91,-2.98 2.11,-4.50001l0.0968,0.0765l0.0332,0.1135c0.0126,-0.00389 0.0253,-0.00778 0.0379,-0.01164c-1.1564,1.49005 -1.8193,2.94065 -2.0379,4.36165c-0.2164,1.4065 -0.0072,2.784 0.5707,4.1515c-0.0203,-0.0038 -0.0405,-0.0076 -0.0607,-0.0115l-0.0261,0.1305l-0.0043,0.0018l0.0004,-0.0023zM30.9638,17.8057l-0.03,-0.06l0.1096,-0.0477l-0.0196,0.1177zM46.9038,16.2857c-1.43,0.86 -4.07,1.49 -7,1.79c-2.93,0.29 -6.1901,0.25 -8.88,-0.26l0.0239,-0.1195l0.116,-0.0505c-0.0098,-0.0228 -0.0195,-0.0456 -0.0292,-0.0685c2.6483,0.4991 5.8515,0.5363 8.7493,0.2485c2.858,-0.2839 5.3999,-0.8934 6.8098,-1.6974c0.0134,0.0324 0.0268,0.0648 0.0401,0.0974l0.111,-0.0434l0.0014,0.0024l-0.0023,0.001zM46.8461,16.1847l0.1177,-0.049l0.04,0.1l-0.1,0.05z"></path><path id="Vector" fill-rule="evenodd" style="fill:#818026" opacity="1" d="M32.5295 8.96094C30.1595 11.9909 29.8395 14.8909 31.0495 17.6909C36.3995 18.7009 44.0295 17.8709 46.8495 16.1809C44.2095 9.75094 39.8995 6.68094 32.5295 8.96094Z"></path><path id="Vector" fill-rule="evenodd" style="fill:#686620" opacity="1" d="M31.5586 10.3782C30.0986 12.9082 30.0286 15.3282 31.0486 17.6982C36.3986 18.6982 44.0286 17.8682 46.8486 16.1882C43.8986 16.3582 37.1686 17.0282 31.8186 16.0182C31.0086 14.2482 30.9086 12.2182 31.5586 10.3782Z"></path><path id="Vector" fill-rule="evenodd" style="fill:#FFFFFF" opacity="1" d="M46.2275 14.79C43.5475 9.32003 39.3475 6.85003 32.5275 8.96003C38.7275 7.98003 43.1875 10.11 46.2275 14.79Z"></path><path id="Vector" fill-rule="evenodd" style="fill:#FFFFFF" opacity="1" d="M35.9518 9.61033C35.7518 10.5103 36.9918 11.5503 38.7018 11.9303C40.4218 12.3203 41.9818 11.8903 42.1818 10.9903C42.3818 10.0903 41.1518 9.05033 39.4318 8.67033C37.7118 8.29033 36.1518 8.71033 35.9518 9.61033Z"></path><path id="Vector" fill-rule="evenodd" style="fill:#333333" opacity="1" d="M37.627 14.7882L37.767 13.8882L37.397 12.5982L36.057 11.8882L36.547 12.5782L36.727 14.1382L36.647 14.9682L36.867 15.8582L36.887 16.2282L36.537 16.5082C37.117 16.5482 37.687 16.5582 38.257 16.5682L38.257 15.7282L37.627 14.7882Z"></path><path id="Vector" fill-rule="evenodd" style="fill:#333333" opacity="1" d="M41.754 14.862L41.134 13.672L40.284 13.172L40.714 13.802L41.034 14.722L40.464 15.832L40.494 16.542C41.064 16.532 41.604 16.512 42.144 16.482L41.774 16.042L41.754 14.862Z"></path><path id="Vector" fill-rule="evenodd" style="fill:#333333" opacity="1" d="M43.8774 16.1924L43.9574 16.3824L45.1674 16.3024L45.3874 15.9324L44.4174 14.9724L43.6874 13.9924L43.8674 15.1324L44.0974 15.8724L43.8774 16.1924Z"></path><path id="Vector" fill-rule="evenodd" style="fill:#1A1A1A" opacity="1" d="M43.9511 16.3805L44.1541 16.8485L43.9331 17.2765C44.2941 17.1875 44.6391 17.0895 44.9631 16.9875L44.9291 16.6845L45.1691 16.3005L43.9511 16.3805Z"></path><path id="Vector" fill-rule="evenodd" style="fill:#1A1A1A" opacity="1" d="M42.1377 16.4801C41.6077 16.5001 41.0577 16.5301 40.4877 16.5401L40.4977 16.8301L39.8877 17.3601L40.1777 17.9201C40.9577 17.8401 41.7177 17.7301 42.4277 17.6001L42.6077 17.0301L42.1377 16.4801Z"></path><path id="Vector" fill-rule="evenodd" style="fill:#1A1A1A" opacity="1" d="M38.2582 16.5623C37.6882 16.5623 37.1182 16.5423 36.5382 16.5223L35.9582 16.9923L36.2082 17.6023L35.4082 18.1223C36.3182 18.1423 37.2383 18.1223 38.1382 18.0823L37.8582 17.5823L38.2582 16.5623Z"></path><path id="Vector" fill-rule="evenodd" style="fill:#000000" opacity="1" d="M27.3735,18.0602c-0.39,-0.23 -0.84,-0.35 -1.3,-0.33c-0.6,0.03 -1.17,0.29 -1.58,0.74c-0.41,0.44 -0.63,1.03 -0.61,1.64c0.02,0.45 0.17,0.89 0.43,1.26c0.27,0.37 0.64,0.65 1.06,0.81c0.43,0.16 0.89,0.19 1.34,0.08c0.44,-0.11 0.84,-0.34 1.15,-0.67c0.3,-0.34 0.51,-0.76 0.58,-1.21c0.07,-0.45 0,-0.91 -0.19,-1.32c-0.19,-0.41 -0.5,-0.76 -0.88,-1zM24.1135,21.5202c-0.29,-0.41 -0.46,-0.9 -0.48,-1.4c-0.02,-0.68 0.22,-1.33 0.68,-1.82c0.45,-0.5 1.08,-0.79 1.75,-0.82c0.51,-0.02 1.01,0.11 1.44,0.37c0.42,0.26 0.77,0.65 0.98,1.11c0.21,0.45 0.28,0.96 0.2,1.46c-0.08,0.5 -0.3,0.96 -0.64,1.33c-0.34,0.37 -0.79,0.63 -1.28,0.75c-0.49,0.12 -1,0.09 -1.47,-0.09c-0.47,-0.17 -0.88,-0.49 -1.18,-0.89z"></path><path id="Vector" fill-rule="evenodd" style="fill:#333333" opacity="1" d="M26.0775 17.6043C25.4375 17.6343 24.8375 17.9143 24.3975 18.3843C23.9675 18.8543 23.7375 19.4743 23.7575 20.1143C23.7775 20.5943 23.9375 21.0543 24.2175 21.4443C24.4975 21.8343 24.8875 22.1243 25.3375 22.2943C25.7875 22.4643 26.2675 22.4943 26.7375 22.3843C27.2075 22.2643 27.6275 22.0243 27.9475 21.6743C28.2775 21.3143 28.4875 20.8743 28.5675 20.4043C28.6375 19.9243 28.5675 19.4443 28.3675 19.0043C28.1675 18.5743 27.8475 18.2043 27.4375 17.9543C27.0275 17.7043 26.5475 17.5843 26.0775 17.6043Z"></path><path id="Vector" fill-rule="evenodd" style="fill:#1A1A1A" opacity="1" d="M23.7567 20.1151C23.7767 20.4851 23.8767 20.8451 24.0467 21.1751C24.2267 21.5051 24.4767 21.7851 24.7767 21.9951C25.0867 22.2151 25.4367 22.3551 25.7967 22.4151C26.1667 22.4651 26.5467 22.4451 26.8967 22.3351C27.2567 22.2151 27.5767 22.0251 27.8467 21.7751C28.1167 21.5151 28.3167 21.1951 28.4467 20.8451C28.5767 20.4951 28.6167 20.1251 28.5767 19.7551C28.5367 19.3851 28.4167 19.0251 28.2167 18.7151C28.0167 19.1051 27.7267 19.4451 27.3567 19.6851C26.9967 19.9251 26.5667 20.0551 26.1367 20.0751C25.7067 20.0951 25.2867 19.9951 24.9167 19.7951C24.5367 19.6051 24.2167 19.3151 23.9967 18.9551C23.8267 19.3151 23.7467 19.7151 23.7567 20.1151Z"></path><path id="Vector" fill-rule="evenodd" style="fill:#000000" opacity="1" d="M24.3352,21.7133c-0.82,0.72 -1.87,1.08 -3.02,1.22c-2.3,0.27 -5.06,-0.36 -7.38,-0.97l-0.31,-0.08l0.28,-0.15c1.68,-0.89 3.68,-1.46 5.74,-1.96c2.07,-0.5 4.2,-0.91 6.18,-1.49l0.19,-0.05l-0.03,0.19c-0.25,1.51 -0.83,2.57 -1.65,3.29zM25.9852,18.4233l-0.12,-0.02l-0.04,-0.12l0.035,0.12zM25.7021,18.5792c0.0646,-0.0185 0.1289,-0.0371 0.1931,-0.0559l-0.035,-0.12l-0.125,-0.02c-0.0103,0.0662 -0.0214,0.1315 -0.0331,0.1959zM25.7021,18.5792c-1.9262,0.5514 -4.0037,0.96 -5.9969,1.4341c-1.9414,0.4712 -3.8028,1.0046 -5.3919,1.7926c2.2559,0.5816 4.8236,1.1352 6.9719,0.8774c1.12,-0.13 2.11,-0.48 2.89,-1.15c0.7353,-0.6494 1.2791,-1.5905 1.5269,-2.9541zM14.0252,21.9533c0.095,-0.0501 0.1911,-0.0992 0.2881,-0.1474c-0.1067,-0.0275 -0.2128,-0.0551 -0.3181,-0.0826l-0.03,0.12z"></path><path id="Vector" fill-rule="evenodd" style="fill:#333333" opacity="1" d="M25.8653 18.4069C21.8953 19.5569 17.3053 20.0669 13.9653 21.8469C18.6153 23.0669 24.9053 24.3469 25.8653 18.4069Z"></path><path id="Vector" fill-rule="evenodd" style="fill:#1A1A1A" opacity="1" d="M25.8042 18.7506C25.7342 18.9006 25.6542 19.0406 25.5642 19.1806C25.3842 19.4706 25.1642 19.7306 24.9142 19.9706C24.4242 20.4406 23.8342 20.7806 23.1942 20.9906C21.4242 21.6006 19.1642 21.3806 16.9942 20.9306C16.8042 20.8906 16.6142 20.8506 16.4342 20.8106C15.5842 21.0906 14.7642 21.4406 13.9742 21.8506C17.3442 22.7306 21.5642 23.6406 24.0142 21.8306C24.6542 21.3406 25.1542 20.6906 25.4442 19.9406C25.5542 19.6806 25.6442 19.4206 25.7142 19.1506C25.7442 19.0206 25.7742 18.8906 25.8042 18.7506Z"></path><path id="Vector" fill-rule="evenodd" style="fill:#000000" opacity="1" d="M26.6784,8.57921c-3.2367,-0.70896 -7.4439,0.38114 -10.8452,2.59549c-3.3979,2.2221 -5.96177,5.5364 -5.97987,9.2702c-0.00342,-0.0067 -0.00679,-0.0135 -0.01009,-0.0202l-0.12546,0.06h-0.11454c0,-3.87 2.64996,-7.27 6.09996,-9.51c3.44,-2.25001 7.73,-3.37001 11.05,-2.64001l-0.025,0.125l-0.085,0.085c0.0117,0.01135 0.0234,0.02286 0.0352,0.03452zM30.3232,16.3547c-0.495,-3.911 -2.4606,-6.60636 -3.6448,-7.77549c0.0083,0.00182 0.0166,0.00364 0.0248,0.00548l0.025,-0.125l0.085,-0.085c1.219,1.17904 3.2368,3.92551 3.7588,7.94021l0.0012,-0.0002c0.12,0.57 -0.12,1.13 -0.6,1.64c-0.47,0.52 -1.19,1.01 -2.07,1.45c-1.76,0.9 -4.21,1.66 -6.74,2.16c-2.53,0.51 -5.15,0.76 -7.26,0.64c-1.06,-0.07 -1.99,-0.22 -2.73,-0.49c-0.74,-0.26 -1.28996,-0.65 -1.55996,-1.18l0.10454,-0.05h0.13546c0,-0.0133 0.00003,-0.0265 0.00009,-0.0398c0.22437,0.4403 0.70057,0.7837 1.39987,1.0398c0.71,0.25 1.62,0.41 2.66,0.47c2.09,0.12 4.69,-0.13 7.2,-0.63c2.52,-0.5 4.94,-1.25 6.68,-2.14c0.87,-0.44 1.56,-0.91 2,-1.39c0.45,-0.49 0.63,-0.97 0.54,-1.43l0.1268,-0.0264zM30.5732,16.3247c-0.0004,-0.0033 -0.0008,-0.0065 -0.0012,-0.0098l-0.112,0.0234z"></path><path id="Vector" fill-rule="evenodd" style="fill:#818026" opacity="1" d="M9.72725 20.4789C11.6773 24.4089 31.3072 20.5189 30.4472 16.3389C29.9372 12.3589 27.9272 9.62889 26.7272 8.45889C20.1672 7.00889 9.71725 12.8789 9.72725 20.4789Z"></path><path id="Vector" fill-rule="evenodd" style="fill:#FFFFFF" opacity="1" d="M28.5643 10.8446C28.0543 9.97458 27.4443 9.17458 26.7243 8.45459C22.2443 7.46458 15.9343 9.89458 12.4043 13.9546C16.2643 10.8046 20.4143 8.15458 26.5243 8.84458L28.5643 10.8446Z"></path><path id="Vector" fill-rule="evenodd" style="fill:#000000" opacity="1" d="M11.7197,15.8787l0.86,-0.15l-0.34,0.8l-1.87,4.46l-0.14,0.34l-0.37001,-0.06c-1.81,-0.28 -3.91,-1.06 -5.44,-2.97c-1.14,-1.43 -1.95,-3.48 -2.09,-6.41l-0.08,-1.71l0.95,1.43c1.31,1.98 2.66,3.21 4.03,3.85c1.38,0.64 2.85001,0.72 4.49001,0.42zM11.0397,16.9387c-1.43001,0.19 -2.89001,-0.02 -4.20001,-0.62c-1.17,-0.55 -2.3,-1.44 -3.39,-2.77c0.3,1.82 0.92,3.16 1.72,4.16c1.24,1.56 2.94,2.27 4.48,2.56z"></path><path id="Vector" fill-rule="evenodd" style="fill:#818026" opacity="1" d="M11.5633 18.8638L12.5733 15.7238C9.06327 16.9438 5.54327 15.9838 2.80327 11.8638C3.11327 18.4238 7.35327 20.5138 10.3733 20.9838L11.5633 18.8638Z"></path><path id="Vector" fill-rule="evenodd" style="fill:#333333" opacity="1" d="M6.03545 16.7438L7.24545 17.7438L6.58545 16.4138L8.90545 16.6338L8.18545 16.0238C6.22545 15.5738 4.38545 14.2538 2.80545 11.8638C2.91545 14.2438 3.54545 16.0338 4.44545 17.3638L5.65545 17.8338L4.85545 16.6038L4.95545 15.6538L6.03545 16.7438Z"></path><path id="Vector" fill-rule="evenodd" style="fill:#000000" opacity="1" d="M18.08,11.46l-0.13,-0.49c-0.07,-0.27 -0.16,-0.54 -0.25,-0.8c-1.04,-2.88 -3.15,-4.6 -5.7,-5.41c-2.61,-0.82 -5.66,-0.71 -8.53,0.07c-0.49,0.13 -0.98,0.28 -1.45,0.46l-2.02,0.72l1.53,-1.51c1.79,-1.78 3.99,-3.08 6.4,-3.81c2.67,-0.81 5.51,-0.91 8.24,-0.3c2.64,0.6 5.05,1.86 6.82,3.66c1.24,1.24 2.16,2.76 2.67,4.44l0.14,0.44l-0.45,0.14l-6.79,2.23zM18.72,10.25l5.88,-1.92c-0.49,-1.36 -1.27,-2.59 -2.29,-3.61c-1.65,-1.67 -3.89,-2.84 -6.36,-3.4c-2.56,-0.57 -5.23,-0.47 -7.75,0.28c-1.55,0.47 -3.01,1.2 -4.33,2.15c2.84,-0.67 5.82,-0.71 8.41,0.11c2.82,0.89 5.16,2.79 6.31,5.99c0.05,0.12 0.09,0.26 0.13,0.4z"></path><path id="Vector" fill-rule="evenodd" style="fill:#818026" opacity="1" d="M1.8578 4.83725C8.3078 2.51725 17.5378 3.94725 18.0778 11.4573L22.4978 10.2873L25.7978 8.92725C23.2278 0.457251 9.4678 -2.70275 1.8578 4.83725Z"></path><path id="Vector" fill-rule="evenodd" style="fill:#333333" opacity="1" d="M12.5978 2.98078L14.8078 2.45078L16.2778 2.51078L14.5678 1.97078L12.5478 2.10078L10.5078 2.03078L10.0478 1.58078L11.0578 1.45078L12.8278 0.970779L10.0478 0.770779C6.9578 1.22078 4.0878 2.64078 1.8578 4.83078C5.3778 3.57078 9.7178 3.42078 13.0278 4.76078L12.9278 4.55078L11.3578 3.60078L13.4678 3.91078L15.3378 3.62078L13.7578 3.24078L12.5978 2.98078Z"></path><path id="Vector" fill-rule="evenodd" style="fill:#686620" opacity="1" d="M9.79726 19.3908C9.74726 19.7608 9.72726 20.1208 9.72726 20.4908C11.6773 24.4108 31.3073 20.5208 30.4473 16.3408C30.3973 15.9408 30.3373 15.5508 30.2573 15.1808C30.0273 19.0708 12.7973 22.5208 9.79726 19.3908Z"></path><path id="Vector" fill-rule="evenodd" style="fill:#686620" opacity="1" d="M9.81433 19.3794C6.66433 18.7894 3.48433 17.7394 2.81433 11.8594C3.11433 18.4194 7.35433 20.5194 10.3743 20.9794L9.81433 19.3794Z"></path><path id="Vector" fill-rule="evenodd" style="fill:#1A1A1A" opacity="1" d="M2.80545 11.8594C2.91545 14.2394 3.54545 16.0294 4.44545 17.3594L5.65545 17.8294C4.24545 16.7794 3.16545 15.0194 2.80545 11.8594Z"></path><path id="Vector" fill-rule="evenodd" style="fill:#686620" opacity="1" d="M6.0278 3.36055C4.5778 3.66055 3.1778 4.16055 1.8578 4.83055C7.8378 2.68055 16.2078 3.75055 17.8278 9.91055C17.9578 10.4205 18.0478 10.9405 18.0778 11.4605L18.5578 11.3105L21.7178 10.2705C21.6578 9.96055 21.5678 9.65055 21.4478 9.36055C21.3478 9.14055 21.2378 8.92055 21.1178 8.70055C19.1278 5.31055 12.8478 1.95055 6.0278 3.36055Z"></path><path id="Vector" fill-rule="evenodd" style="fill:#1A1A1A" opacity="1" d="M6.0178 3.35794C4.5778 3.65794 3.1778 4.14794 1.8578 4.82794C5.3778 3.55794 9.7178 3.40794 13.0278 4.75794L12.9178 4.54794L11.3478 3.58794L13.4578 3.90794L14.1878 3.79794C11.5478 2.95794 8.7378 2.79794 6.0178 3.35794Z"></path><path id="Vector" fill-rule="evenodd" style="fill:#FFFFFF" opacity="1" d="M25.3191 7.67161C22.0791 0.651613 10.7291 -1.97839 3.35906 3.53161C5.07906 2.60161 6.90906 1.89161 8.79906 1.42161C15.6091 -0.198387 22.2291 2.70161 25.3191 7.67161Z"></path><path id="Vector" fill-rule="evenodd" style="fill:#FFFFFF" opacity="1" d="M10.7355 16.4138C11.3755 16.2438 11.9855 16.0138 12.5755 15.7238C12.0255 15.9138 11.4555 16.0538 10.8755 16.1338C7.94548 16.5438 5.09548 15.3238 2.80548 11.8638C4.68548 15.4338 7.20548 17.3238 10.7355 16.4138Z"></path><path id="Vector" fill-rule="evenodd" style="fill:#686620" opacity="1" d="M16.4033 3.19424C19.7733 4.55424 22.4033 6.41424 23.1433 9.52424L24.2933 9.11424C23.0633 5.72424 20.2433 3.94424 16.4033 3.19424Z"></path><path id="Vector" fill-rule="evenodd" style="fill:#686620" opacity="1" d="M11.4793 17.2631C10.0093 17.6931 8.4393 17.6531 6.9993 17.1431C8.2093 18.1831 9.5193 18.7131 10.9493 18.6231L11.4793 17.2631Z"></path><path id="Vector" fill-rule="evenodd" style="fill:#333333" opacity="1" d="M17.4948 17.3148L16.6048 15.5048L14.4148 14.9148L15.4648 15.9248L16.1748 17.7548L16.9848 19.1548L16.6748 20.5348C17.6348 20.4648 18.6448 20.3448 19.6648 20.1748L19.0948 18.0948L17.4948 17.3148Z"></path><path id="Vector" fill-rule="evenodd" style="fill:#333333" opacity="1" d="M24.8626 17.9355L23.2726 16.5855L22.4126 15.4255L20.5326 14.1355L20.0826 13.1855L17.8426 13.0855L19.0126 13.6555L19.3426 15.2855L20.4226 15.9255L22.2126 17.4155L22.1026 19.3355L22.2826 19.6555C23.2926 19.4155 24.2726 19.1355 25.1826 18.8155L24.8626 17.9355Z"></path><path id="Vector" fill-rule="evenodd" style="fill:#333333" opacity="1" d="M26.7409 17.4184L27.0109 18.0884C27.7309 17.7684 28.4209 17.3784 29.0609 16.9084L26.9009 15.0084L22.9309 13.7484L24.5209 15.0584L25.8009 15.8084L26.7409 17.4184Z"></path><path id="Vector" fill-rule="evenodd" style="fill:#333333" opacity="1" d="M28.7229 13.2301L29.4328 14.2401L30.1028 14.4801C29.8328 13.4501 29.4429 12.4601 28.9529 11.5201L28.0429 12.3401L25.1629 12.9101L26.8129 13.4501L28.7229 13.2301Z"></path><path id="Vector" fill-rule="evenodd" style="fill:#1A1A1A" opacity="1" d="M27.0073 18.1013L27.5373 19.4513C28.6373 18.9313 29.4973 18.3413 29.9973 17.7513L29.0573 16.9213C28.4173 17.3913 27.7273 17.7813 27.0073 18.1013Z"></path><path id="Vector" fill-rule="evenodd" style="fill:#1A1A1A" opacity="1" d="M25.1688 18.8193C24.2588 19.1293 23.2788 19.4093 22.2688 19.6493L23.0388 21.0193C23.9588 20.7793 24.8488 20.5093 25.6688 20.2193L25.1688 18.8193Z"></path><path id="Vector" fill-rule="evenodd" style="fill:#1A1A1A" opacity="1" d="M19.6721 20.1763C18.6521 20.3463 17.6421 20.4663 16.6721 20.5363L16.4121 21.5963L16.6021 22.0563C17.9621 21.9663 19.3221 21.7963 20.6621 21.5363L19.6721 20.1763Z"></path><path id="Vector" fill-rule="evenodd" style="fill:#000000" opacity="1" d="M27.0466,15.9185c-0.2,0.02 -0.4,0.13 -0.53,0.29c-0.14,0.15 -0.19,0.34 -0.14,0.53c0.14,0.52 0.28,1.36 0.37,2.17c0.09,0.8 0.12,1.6 0.06,2.04c-0.03,0.18 0.06,0.35 0.22,0.47c0.17,0.13 0.4,0.2 0.61,0.17c0.21,-0.02 0.42,-0.13 0.55,-0.28c0.14,-0.16 0.19,-0.35 0.13,-0.52c-0.15,-0.45 -0.26,-1.25 -0.34,-2.06c-0.08,-0.81 -0.11,-1.64 -0.09,-2.15c0,-0.19 -0.09,-0.37 -0.25,-0.49c-0.16,-0.12 -0.38,-0.19 -0.59,-0.17zM27.0266,15.6685c0.27,-0.02 0.55,0.06 0.76,0.22c0.21,0.17 0.35,0.41 0.34,0.7c-0.01,0.49 0.02,1.31 0.1,2.12c0.07,0.8 0.19,1.58 0.33,2c0.09,0.28 -0.01,0.56 -0.18,0.76c-0.18,0.2 -0.44,0.34 -0.71,0.37c-0.28,0.03 -0.57,-0.06 -0.78,-0.22c-0.22,-0.16 -0.37,-0.41 -0.33,-0.71c0.06,-0.4 0.03,-1.17 -0.06,-1.98c-0.09,-0.8 -0.23,-1.62 -0.36,-2.13c-0.08,-0.28 0.02,-0.55 0.19,-0.76c0.17,-0.2 0.43,-0.34 0.7,-0.37z"></path><path id="Vector" fill-rule="evenodd" style="fill:#818026" opacity="1" d="M26.6807 20.9327C26.6107 21.4127 27.1707 21.7627 27.6507 21.7127C28.1307 21.6627 28.5907 21.2027 28.4307 20.7427C28.1507 19.8827 27.9707 17.5927 28.0107 16.5827C28.0207 16.1027 27.5207 15.7527 27.0407 15.7927C26.5607 15.8527 26.1307 16.2927 26.2507 16.7627C26.5307 17.7927 26.8107 20.0927 26.6807 20.9327Z"></path><path id="Vector" fill-rule="evenodd" style="fill:#686620" opacity="1" d="M27.1209 17.8983C26.7409 17.3283 26.5809 16.2783 26.9609 15.8083C26.5209 15.8983 26.1309 16.3183 26.2509 16.7683C26.5309 17.7983 26.8109 20.0883 26.6809 20.9283C26.6109 21.4083 27.1709 21.7683 27.6509 21.7183C28.1309 21.6683 28.5909 21.2083 28.4309 20.7483C28.3509 20.4883 28.2809 20.2283 28.2409 19.9583C27.9009 19.8883 27.5009 18.4583 27.1209 17.8983Z"></path><path id="Vector" fill-rule="evenodd" style="fill:#000000" opacity="1" d="M26.2241,14.8143l0.08,0.02c0.58,0.15 0.96,0.63 1.17,1.18c0.21,0.56 0.26,1.2 0.16,1.71l-0.1588,-0.0318l-0.0812,-0.0282l-0.0037,0.0112l-0.0063,-0.0012c0.1,-0.46 0.05,-1.06 -0.14,-1.57c-0.1866,-0.4758 -0.4863,-0.8558 -0.9072,-1.0021c0.0156,-0.026 0.0313,-0.052 0.0472,-0.0779l-0.1104,-0.0684l0.0004,-0.0016l-0.1,-0.06zM24.4241,26.6943c-0.0106,-0.1914 -0.0216,-0.383 -0.0326,-0.5747c-0.2159,-3.7744 -0.4348,-7.5995 1.7826,-11.2253l0.0996,0.0616l-0.0296,0.1184c0.0316,0.008 0.0625,0.0174 0.0928,0.0279c-2.106,3.5042 -1.9115,7.201 -1.6994,10.925l-0.2034,0.6171l0.119,0.0397zM24.5541,26.6843l-0.001,-0.0003l0.121,-0.0097c-0.0105,-0.1894 -0.0213,-0.3788 -0.0321,-0.5681l-0.0045,-0.079l2.7529,-8.3517l0.0849,0.017l0.1488,0.0518l-2.95,8.98l-0.21,0.62l-0.04,-0.65zM27.5141,17.7043l0.12,0.02l-0.01,0.02z"></path><path id="Vector" fill-rule="evenodd" style="fill:#818026" opacity="1" d="M27.5084 17.7068C27.6984 16.7268 27.3184 15.2168 26.2784 14.9568C23.9684 18.7368 24.3284 22.7168 24.5484 26.6868L27.5084 17.7068Z"></path><path id="Vector" fill-rule="evenodd" style="fill:#686620" opacity="1" d="M24.6796 26.2863L27.4696 17.8063C26.4496 12.9463 24.6496 25.3663 24.6796 26.2863Z"></path><path id="Vector" fill-rule="evenodd" style="fill:#FFFFFF" opacity="1" d="M24.5929 26.2556C24.7029 24.3256 24.5529 22.0956 24.8729 20.1656C25.1829 18.4156 25.6729 16.6856 26.3229 15.0256C24.1029 18.6356 24.3829 22.4556 24.5929 26.2556Z"></path><path id="Vector" fill-rule="evenodd" style="fill:#000000" opacity="1" d="M39.6299,16.6559c0.17,0.22 0.24,0.5 0.22,0.77c-0.02,0.26 -0.15,0.52 -0.41,0.66c-0.46,0.25 -1.15,0.73 -1.78,1.22c-0.64,0.5 -1.22,1.01 -1.46,1.33c-0.19,0.24 -0.47,0.31 -0.74,0.26c-0.26,-0.04 -0.53,-0.19 -0.7,-0.4c-0.17,-0.22 -0.25,-0.51 -0.23,-0.77c0.02,-0.27 0.15,-0.53 0.42,-0.66c0.4,-0.19 1.04,-0.65 1.67,-1.16c0.63,-0.5 1.24,-1.05 1.58,-1.4c0.2,-0.21 0.48,-0.28 0.74,-0.24c0.26,0.04 0.52,0.18 0.69,0.39zM39.4299,16.8159c-0.13,-0.17 -0.32,-0.28 -0.52,-0.3c-0.2,-0.03 -0.39,0.02 -0.53,0.16c-0.35,0.37 -0.97,0.92 -1.61,1.43c-0.63,0.5 -1.28,0.98 -1.71,1.18c-0.17,0.08 -0.26,0.25 -0.28,0.46c-0.02,0.2 0.05,0.43 0.18,0.59c0.13,0.17 0.34,0.29 0.54,0.32c0.21,0.03 0.39,-0.02 0.5,-0.17c0.27,-0.35 0.87,-0.88 1.51,-1.37c0.64,-0.5 1.34,-0.99 1.81,-1.25c0.17,-0.09 0.26,-0.27 0.28,-0.47c0.02,-0.2 -0.04,-0.42 -0.17,-0.58z"></path><path id="Vector" fill-rule="evenodd" style="fill:#818026" opacity="1" d="M39.5243 16.74C39.2243 16.35 38.6243 16.24 38.2943 16.59C37.5943 17.31 35.8243 18.78 35.0043 19.18C34.5743 19.39 34.5643 20.03 34.8543 20.42C35.1643 20.79 35.8043 20.95 36.0943 20.56C36.6143 19.89 38.4443 18.49 39.3843 17.97C39.8043 17.74 39.8243 17.12 39.5243 16.74Z"></path><path id="Vector" fill-rule="evenodd" style="fill:#686620" opacity="1" d="M35.0115 19.1883C34.5815 19.3983 34.5715 20.0583 34.8715 20.4283C35.1715 20.7983 35.8115 20.9583 36.1015 20.5683C36.6215 19.8983 38.4515 18.4983 39.3915 17.9883C39.7915 17.7583 39.8315 17.1883 39.5815 16.8083C39.5115 17.3983 38.6415 18.0183 37.9815 18.1383C37.3115 18.2583 36.0015 18.9683 35.7115 18.7683C35.4915 18.9283 35.2615 19.0683 35.0115 19.1883Z"></path><path id="Vector" fill-rule="evenodd" style="fill:#000000" opacity="1" d="M39.7877,15.5676l0.05,0.08l-0.1045,0.0665l-0.0355,-0.1165zM39.8377,15.6476c2.3772,3.5042 2.3505,7.3045 2.324,11.0694c-0.0014,0.2103 -0.0029,0.4205 -0.004,0.6306l-0.01,0.65l-0.23,-0.61l-3.39,-8.83l0.0885,-0.0346l-0.0985,0.0246c-0.13,-0.51 -0.11,-1.15 0.08,-1.72c0.18,-0.56 0.53,-1.06 1.1,-1.23l0.03,0.12l0.0055,-0.0035l0.0008,0.0026zM39.6768,15.8603c0.0297,-0.0122 0.06,-0.0231 0.0909,-0.0327l-0.0337,-0.1109l-0.1063,0.0709c0.0165,0.0242 0.0329,0.0485 0.0491,0.0727zM41.9119,26.6833c0.0263,-3.7303 0.0501,-7.4124 -2.2351,-10.823c-0.4023,0.1654 -0.6908,0.563 -0.8491,1.0473c-0.1677,0.5131 -0.1797,1.1041 -0.0743,1.5617l-0.1372,0.0537l0.1415,-0.0354c-0.0014,-0.0061 -0.0029,-0.0122 -0.0043,-0.0183l0.0043,-0.0017zM42.0327,27.3426l0.125,0.005l-0.1151,-0.0089zM41.9177,27.3876l0.115,-0.045l-0.0147,-0.0006zM42.018,27.342l0.0097,-0.0044l0.0149,0.0011l0.1051,-0.0411l-0.2358,-0.6143l-0.0001,0.0111c-0.0015,0.2142 -0.003,0.4287 -0.0041,0.6432z"></path><path id="Vector" fill-rule="evenodd" style="fill:#818026" opacity="1" d="M39.7343 15.7129C38.7143 16.0229 38.4043 17.5529 38.6343 18.5129L42.0243 27.3429C42.0543 23.3629 42.2243 19.3729 39.7343 15.7129Z"></path><path id="Vector" fill-rule="evenodd" style="fill:#686620" opacity="1" d="M41.8787 26.9521C41.8687 26.0321 39.4587 13.7121 38.6787 18.6221L41.8787 26.9521Z"></path><path id="Vector" fill-rule="evenodd" style="fill:#FFFFFF" opacity="1" d="M41.3917 20.8539C41.8017 22.7639 41.7617 24.9939 41.9717 26.9139C41.9917 23.1139 42.0817 19.2839 39.7017 15.7839C40.4317 17.4139 40.9917 19.1139 41.3917 20.8539Z"></path><path id="Vector" fill-rule="evenodd" style="fill:#000000" opacity="1" d="M32.9162,15.5585c0.25,0.1 0.46,0.3 0.57,0.54c0.11,0.24 0.13,0.53 -0.02,0.78c-0.27,0.45 -0.63,1.2 -0.93,1.95c-0.31,0.76 -0.55,1.48 -0.6,1.89c-0.04,0.3 -0.26,0.5 -0.51,0.59c-0.25,0.1 -0.56,0.1 -0.81,0c-0.25,-0.1 -0.47,-0.31 -0.58,-0.55c-0.12,-0.24 -0.13,-0.53 0.03,-0.78c0.25,-0.36 0.57,-1.08 0.87,-1.84c0.29,-0.75 0.55,-1.53 0.66,-2.01c0.08,-0.28 0.28,-0.47 0.53,-0.57c0.24,-0.1 0.53,-0.11 0.79,0zM31.6862,20.6885c0.06,-0.44 0.31,-1.2 0.62,-1.95c0.3,-0.75 0.67,-1.52 0.95,-1.99c0.1,-0.16 0.09,-0.36 0.01,-0.54c-0.09,-0.19 -0.25,-0.35 -0.45,-0.42l0.1,-0.23l-0.1,0.22c-0.19,-0.07 -0.41,-0.07 -0.6,0.01c-0.19,0.07 -0.33,0.21 -0.37,0.4c-0.13,0.5 -0.39,1.28 -0.68,2.04c-0.29,0.76 -0.63,1.5 -0.89,1.89c-0.11,0.15 -0.1,0.35 -0.02,0.53c0.09,0.19 0.26,0.35 0.45,0.43l-0.09,0.23l0.1,-0.23c0.19,0.08 0.42,0.08 0.62,0c0.19,-0.07 0.33,-0.21 0.35,-0.39z"></path><path id="Vector" fill-rule="evenodd" style="fill:#818026" opacity="1" d="M32.8593 15.6664C32.4193 15.4964 31.8393 15.6864 31.7193 16.1564C31.4793 17.1364 30.6793 19.2964 30.1693 20.0464C29.8993 20.4464 30.2193 21.0164 30.6593 21.1964C31.1093 21.3664 31.7493 21.1864 31.8093 20.7064C31.9193 19.8564 32.8093 17.7264 33.3593 16.8164C33.6093 16.3964 33.3193 15.8464 32.8593 15.6664Z"></path><path id="Vector" fill-rule="evenodd" style="fill:#686620" opacity="1" d="M30.1682 20.0397C29.8982 20.4397 30.2182 21.0097 30.6582 21.1897C31.1082 21.3597 31.7482 21.1797 31.8082 20.6997C31.9182 19.8497 32.8082 17.7197 33.3582 16.8097C33.6082 16.4197 33.3482 15.9097 32.9382 15.6997C33.1782 16.2597 32.7382 17.2297 32.2182 17.6597C31.6982 18.0997 30.9282 19.3697 30.5782 19.3397C30.4582 19.5897 30.3182 19.8197 30.1682 20.0397Z"></path><path id="Vector" fill-rule="evenodd" style="fill:#000000" opacity="1" d="M33.5412,14.6935l0.04,0.08l-0.1006,0.0575l-0.0294,-0.1175zM33.4762,14.8335l0.0044,-0.0025l0.0006,0.0025l0.1,-0.06c2.1445,3.6627 1.8489,7.4605 1.5568,11.2139c-0.0157,0.2022 -0.0314,0.4042 -0.0468,0.6061l-0.1066,-0.0089l0.1066,-0.0311l-0.1975,-0.6417c0.295,-3.707 0.5603,-7.3823 -1.4745,-10.9354c0.0269,-0.0086 0.0542,-0.0163 0.082,-0.0229zM32.3096,17.5239l0.0016,-0.0004l2.5825,8.3883c-0.0035,0.0445 -0.0071,0.0889 -0.0106,0.1334c-0.0141,0.176 -0.0281,0.3521 -0.0419,0.5283l0.1291,0.0103l-0.1191,0.0397l-2.78,-9.03l0.16,-0.0467l0.08,-0.0133c-0.0005,-0.0032 -0.0011,-0.0064 -0.0016,-0.0096zM32.2312,17.5468l-0.16,0.0267c-0.09,-0.51 -0.03,-1.15 0.19,-1.7c0.22,-0.55 0.61,-1.03 1.19,-1.16l0.025,0.12l-0.105,0.06c0.0162,0.0276 0.0321,0.0553 0.048,0.0829c-0.4186,0.1346 -0.7307,0.5079 -0.928,0.9871c-0.1986,0.5064 -0.2591,1.1017 -0.1816,1.5604zM34.9836,26.5849l-0.0133,-0.0011l0.0009,-0.0003l0.0134,0.0011l-0.001,0.0003l0.1076,0.0086l-0.05,0.66l-0.19,-0.63z"></path><path id="Vector" fill-rule="evenodd" style="fill:#818026" opacity="1" d="M33.4752 14.8438C32.4352 15.0838 32.0252 16.5938 32.1952 17.5638L34.9652 26.5938C35.2752 22.6338 35.7052 18.6538 33.4752 14.8438Z"></path><path id="Vector" fill-rule="evenodd" style="fill:#686620" opacity="1" d="M34.8463 26.201C34.9063 25.281 33.3463 12.821 32.2263 17.661L34.8463 26.201Z"></path><path id="Vector" fill-rule="evenodd" style="fill:#FFFFFF" opacity="1" d="M34.7776 20.0737C35.0576 22.0037 34.8676 24.2337 34.9376 26.1637C35.2276 22.3737 35.5676 18.5537 33.4376 14.9037C34.0576 16.5737 34.4976 18.3137 34.7776 20.0737Z"></path></g></g></g><defs><rect id="path_0" x="0" y="0" width="90" height="70" /></defs></svg>